<svg width="20" height="20" viewBox="0 0 20 20" fill="fill" xmlns="http://www.w3.org/2000/svg">
<path d="M10.1045 12.548C10.3059 12.5423 10.49 12.4675 10.6396 12.3063L15.0133 7.82915C15.1399 7.70254 15.2089 7.54141 15.2089 7.3515C15.2089 6.97169 14.9097 6.66669 14.5299 6.66669C14.3457 6.66669 14.1673 6.7415 14.0349 6.87386L10.1102 10.9079L6.17397 6.87386C6.04161 6.74725 5.86897 6.66669 5.67906 6.66669C5.29925 6.66669 5 6.97169 5 7.3515C5 7.54141 5.06906 7.70254 5.19566 7.82915L9.57502 12.3063C9.7304 12.4675 9.90304 12.548 10.1045 12.548Z" fill="fill"/>
</svg>
