<svg width="24" height="24" viewBox="0 0 24 24" fill="none" xmlns="http://www.w3.org/2000/svg">
<g id="clipboard-pen-line">
<path id="Vector" d="M15 2H9C8.44772 2 8 2.44772 8 3V5C8 5.55228 8.44772 6 9 6H15C15.5523 6 16 5.55228 16 5V3C16 2.44772 15.5523 2 15 2Z" stroke="#FFFFFF" stroke-width="2" stroke-linecap="round" stroke-linejoin="round"/>
<path id="Vector_2" d="M8 4H6C5.46957 4 4.96086 4.21071 4.58579 4.58579C4.21071 4.96086 4 5.46957 4 6V20C4 20.5304 4.21071 21.0391 4.58579 21.4142C4.96086 21.7893 5.46957 22 6 22H18C18.5304 22 19.0391 21.7893 19.4142 21.4142C19.7893 21.0391 20 20.5304 20 20V19.5" stroke="#FFFFFF" stroke-width="2" stroke-linecap="round" stroke-linejoin="round"/>
<path id="Vector_3" d="M16 4H18C18.3507 4.00036 18.6952 4.09294 18.9988 4.26846C19.3025 4.44398 19.5546 4.69626 19.73 5" stroke="#FFFFFF" stroke-width="2" stroke-linecap="round" stroke-linejoin="round"/>
<path id="Vector_4" d="M8 18H9" stroke="#FFFFFF" stroke-width="2" stroke-linecap="round" stroke-linejoin="round"/>
<path id="Vector_5" d="M18.4 9.59984C18.7978 9.20201 19.3374 8.97852 19.9 8.97852C20.4626 8.97852 21.0022 9.20201 21.4 9.59984C21.7978 9.99766 22.0213 10.5372 22.0213 11.0998C22.0213 11.6624 21.7978 12.202 21.4 12.5998L17 16.9998L13 17.9998L14 13.9998L18.4 9.59984Z" stroke="#FFFFFF" stroke-width="2" stroke-linecap="round" stroke-linejoin="round"/>
</g>
</svg>
