<svg width="4" height="14" viewBox="0 0 4 14" fill="none" xmlns="http://www.w3.org/2000/svg">
<path d="M1.73937 -0.000423507C1.96772 -0.000423756 2.19384 0.0445212 2.40481 0.13184C2.61578 0.219158 2.80747 0.34714 2.96894 0.508484C3.13041 0.669827 3.25849 0.861372 3.34588 1.07218C3.43326 1.28298 3.47824 1.50892 3.47824 1.7371C3.47824 1.96527 3.43326 2.19121 3.34588 2.40202C3.25849 2.61282 3.13041 2.80436 2.96894 2.9657C2.80747 3.12705 2.61578 3.25504 2.40481 3.34236C2.19384 3.42967 1.96772 3.47461 1.73937 3.47461C1.51101 3.47461 1.2849 3.42967 1.07393 3.34236C0.862957 3.25504 0.671262 3.12705 0.509793 2.9657C0.348323 2.80436 0.220241 2.61282 0.132855 2.40202C0.0454684 2.19121 0.000488007 1.96527 0.000488205 1.7371C0.000487987 1.50892 0.0454683 1.28298 0.132855 1.07218C0.220241 0.861372 0.348323 0.669827 0.509793 0.508484C0.671262 0.34714 0.862957 0.219158 1.07393 0.13184C1.2849 0.0445213 1.51101 -0.000423736 1.73937 -0.000423507Z" fill="url(#paint0_linear_694_1341)"/>
<path d="M1.73937 10.525C1.96772 10.525 2.19384 10.5699 2.40481 10.6572C2.61578 10.7445 2.80747 10.8725 2.96894 11.0339C3.13041 11.1952 3.25849 11.3868 3.34588 11.5976C3.43326 11.8084 3.47824 12.0343 3.47824 12.2625C3.47824 12.4907 3.43326 12.7166 3.34588 12.9274C3.25849 13.1382 3.13041 13.3297 2.96894 13.4911C2.80747 13.6524 2.61578 13.7804 2.40481 13.8677C2.19384 13.9551 1.96772 14 1.73937 14C1.51101 14 1.2849 13.9551 1.07393 13.8677C0.862957 13.7804 0.671262 13.6524 0.509793 13.4911C0.348323 13.3297 0.220241 13.1382 0.132855 12.9274C0.0454684 12.7166 0.000488007 12.4907 0.000488205 12.2625C0.000487987 12.0343 0.0454683 11.8084 0.132855 11.5976C0.220241 11.3868 0.348323 11.1952 0.509793 11.0339C0.671262 10.8725 0.862957 10.7445 1.07393 10.6572C1.2849 10.5699 1.51101 10.525 1.73937 10.525Z" fill="url(#paint1_linear_694_1341)"/>
<path d="M1.73937 5.26227C1.96772 5.26227 2.19384 5.30721 2.40481 5.39452C2.61578 5.48184 2.80747 5.60984 2.96894 5.77118C3.13041 5.93252 3.25849 6.12406 3.34588 6.33486C3.43326 6.54567 3.47824 6.77161 3.47824 6.99978C3.47824 7.22796 3.43326 7.4539 3.34588 7.6647C3.25849 7.87551 3.13041 8.06705 2.96894 8.2284C2.80747 8.38974 2.61578 8.51772 2.40481 8.60504C2.19384 8.69236 1.96772 8.7373 1.73937 8.7373C1.51101 8.7373 1.2849 8.69236 1.07393 8.60504C0.862957 8.51772 0.671262 8.38974 0.509793 8.2284C0.348323 8.06705 0.220241 7.87551 0.132855 7.6647C0.0454684 7.4539 0.000488007 7.22796 0.000488205 6.99978C0.000487987 6.77161 0.0454683 6.54567 0.132855 6.33486C0.220241 6.12406 0.348323 5.93252 0.509793 5.77118C0.671262 5.60984 0.862957 5.48184 1.07393 5.39453C1.2849 5.30721 1.51101 5.26227 1.73937 5.26227Z" fill="url(#paint2_linear_694_1341)"/>
<defs>
<linearGradient id="paint0_linear_694_1341" x1="1.73964" y1="3.47505" x2="1.73964" y2="1.95264e-05" gradientUnits="userSpaceOnUse">
<stop stop-color="fill"/>
<stop offset="0.44" stop-color="fill"/>
<stop offset="1" stop-color="fill"/>
</linearGradient>
<linearGradient id="paint1_linear_694_1341" x1="1.73964" y1="14.0004" x2="1.73964" y2="10.5254" gradientUnits="userSpaceOnUse">
<stop stop-color="fill"/>
<stop offset="0.44" stop-color="fill"/>
<stop offset="1" stop-color="fill"/>
</linearGradient>
<linearGradient id="paint2_linear_694_1341" x1="1.73964" y1="8.73775" x2="1.73964" y2="5.26271" gradientUnits="userSpaceOnUse">
<stop stop-color="fill"/>
<stop offset="0.44" stop-color="fill"/>
<stop offset="1" stop-color="fill"/>
</linearGradient>
</defs>
</svg>
