<svg version="1.2" xmlns="http://www.w3.org/2000/svg" viewBox="0 0 1000 1000" width="1000" height="1000">
	<title>6544293</title>
	<defs>
		<clipPath clipPathUnits="userSpaceOnUse" id="cp1">
			<path d="m1000 1000h-1000v-1000h1000z"/>
		</clipPath>
		<clipPath clipPathUnits="userSpaceOnUse" id="cp2">
			<path d="m423.53 786.79h-1.96c-0.81 0-1.47-0.66-1.47-1.47 0-0.82 0.66-1.48 1.47-1.48h1.96z"/>
		</clipPath>
		<linearGradient id="g1" x2="1" gradientUnits="userSpaceOnUse" gradientTransform="matrix(7.854,.737,-0.334,3.559,415.676,783.844)">
			<stop offset="0" stop-color="#ffffff"/>
			<stop offset="1" stop-color="#7797d9"/>
		</linearGradient>
		<linearGradient id="g2" x2="1" gradientUnits="userSpaceOnUse" gradientTransform="matrix(1.96,.737,-0.289,.768,421.57,783.844)">
			<stop offset="0" stop-color="#ffffff"/>
			<stop offset="1" stop-color="#7797d9"/>
		</linearGradient>
		<clipPath clipPathUnits="userSpaceOnUse" id="cp3">
			<path d="m577.08 783.84h1.96c0.81 0 1.47 0.66 1.47 1.48 0 0.81-0.66 1.47-1.47 1.47h-1.96z"/>
		</clipPath>
		<linearGradient id="g3" x2="1" gradientUnits="userSpaceOnUse" gradientTransform="matrix(1,0,0,.375,577.075,783.844)">
			<stop offset="0" stop-color="#ffffff"/>
			<stop offset="1" stop-color="#ffffff"/>
		</linearGradient>
		<clipPath clipPathUnits="userSpaceOnUse" id="cp4">
			<path d="m762.18 763.79l-0.64-0.02h-0.11c-1.08-0.03-1.94-0.93-1.91-2.02 0.03-1.08 0.93-1.94 2.01-1.91h0.01l0.66 0.02z"/>
		</clipPath>
		<linearGradient id="g4" x2="1" gradientUnits="userSpaceOnUse" gradientTransform="matrix(1,0,0,.426,753.676,759.625)">
			<stop offset="0" stop-color="#ffffff"/>
			<stop offset="1" stop-color="#ffffff"/>
		</linearGradient>
		<linearGradient id="g5" x2="1" gradientUnits="userSpaceOnUse" gradientTransform="matrix(185.02,-12.252,5.55,83.816,761.944,759.827)">
			<stop offset="0" stop-color="#ffffff"/>
			<stop offset="1" stop-color="#762bff"/>
		</linearGradient>
		<linearGradient id="g6" x2="1" gradientUnits="userSpaceOnUse" gradientTransform="matrix(.995,-1.979,2.129,1.07,495.67,614.403)">
			<stop offset="0" stop-color="#dec7ff"/>
			<stop offset="1" stop-color="#ffffff"/>
		</linearGradient>
		<linearGradient id="g7" x2="1" gradientUnits="userSpaceOnUse" gradientTransform="matrix(0,-233.158,233.124,0,620.239,380.095)">
			<stop offset="0" stop-color="#c2baff"/>
			<stop offset="1" stop-color="#e6e3ff"/>
		</linearGradient>
		<linearGradient id="g8" x2="1" gradientUnits="userSpaceOnUse" gradientTransform="matrix(0,-124.948,124.93,0,499.091,369.878)">
			<stop offset="0" stop-color="#c2baff"/>
			<stop offset="1" stop-color="#e6e3ff"/>
		</linearGradient>
		<linearGradient id="g9" x2="1" gradientUnits="userSpaceOnUse" gradientTransform="matrix(0,-191.117,442.658,0,499.914,342.169)">
			<stop offset="0" stop-color="#b2c5f2"/>
			<stop offset="1" stop-color="#eff3fc"/>
		</linearGradient>
		<linearGradient id="g10" x2="1" gradientUnits="userSpaceOnUse" gradientTransform="matrix(0,-192.129,366.204,0,486.006,343.181)">
			<stop offset="0" stop-color="#b2c5f2"/>
			<stop offset="1" stop-color="#eff3fc"/>
		</linearGradient>
		<linearGradient id="g11" x2="1" gradientUnits="userSpaceOnUse" gradientTransform="matrix(-91.792,-155.769,134.23,-79.1,178.327,621.358)">
			<stop offset="0" stop-color="#ffd8fd"/>
			<stop offset="1" stop-color="#d585ff"/>
		</linearGradient>
		<clipPath clipPathUnits="userSpaceOnUse" id="cp5">
			<path d="m210.33 502.46l0.26 0.55 0.05 0.12c0.92 1.96 0.07 4.3-1.9 5.22-1.97 0.91-4.31 0.06-5.22-1.91l-0.29-0.63z"/>
		</clipPath>
		<linearGradient id="g12" x2="1" gradientUnits="userSpaceOnUse" gradientTransform="matrix(-5.721,-16.939,8.959,-3.026,210.155,520.693)">
			<stop offset="0" stop-color="#ffffff"/>
			<stop offset="1" stop-color="#fac4fe"/>
		</linearGradient>
		<linearGradient id="g13" x2="1" gradientUnits="userSpaceOnUse" gradientTransform="matrix(.915,-2.689,1.164,.396,203.527,506.443)">
			<stop offset="0" stop-color="#ffffff"/>
			<stop offset="1" stop-color="#fac4fe"/>
		</linearGradient>
		<clipPath clipPathUnits="userSpaceOnUse" id="cp6">
			<path d="m263.89 409l0.69-0.03c2.17-0.11 4.01 1.56 4.11 3.73 0.11 2.16-1.56 4-3.73 4.11l-0.38 0.02-0.61 0.03z"/>
		</clipPath>
		<linearGradient id="g14" x2="1" gradientUnits="userSpaceOnUse" gradientTransform="matrix(2.082,1.864,-1.897,2.119,262.502,409.069)">
			<stop offset="0" stop-color="#ffe3fe"/>
			<stop offset="1" stop-color="#ffffff"/>
		</linearGradient>
		<linearGradient id="g15" x2="1" gradientUnits="userSpaceOnUse" gradientTransform="matrix(0,-50.556,67.261,0,245.568,638.868)">
			<stop offset="0" stop-color="#f6aafe"/>
			<stop offset="1" stop-color="#ee99ff"/>
		</linearGradient>
		<linearGradient id="g16" x2="1" gradientUnits="userSpaceOnUse" gradientTransform="matrix(75.526,0,0,11.247,226.804,590.808)">
			<stop offset="0" stop-color="#ffbffd"/>
			<stop offset="1" stop-color="#ee99ff"/>
		</linearGradient>
		<linearGradient id="g17" x2="1" gradientUnits="userSpaceOnUse" gradientTransform="matrix(71.693,0,0,9.373,228.721,580.355)">
			<stop offset="0" stop-color="#ffbffd"/>
			<stop offset="1" stop-color="#ee99ff"/>
		</linearGradient>
		<linearGradient id="g18" x2="1" gradientUnits="userSpaceOnUse" gradientTransform="matrix(75.526,0,0,11.247,226.804,606.769)">
			<stop offset="0" stop-color="#ffbffd"/>
			<stop offset="1" stop-color="#ee99ff"/>
		</linearGradient>
		<linearGradient id="g19" x2="1" gradientUnits="userSpaceOnUse" gradientTransform="matrix(67.261,0,0,10.822,230.937,622.942)">
			<stop offset="0" stop-color="#ffbffd"/>
			<stop offset="1" stop-color="#ee99ff"/>
		</linearGradient>
		<linearGradient id="g20" x2="1" gradientUnits="userSpaceOnUse" gradientTransform="matrix(0,-57.922,220.628,0,550.424,741.075)">
			<stop offset=".249" stop-color="#7123ff"/>
			<stop offset=".837" stop-color="#9650ff"/>
		</linearGradient>
		<linearGradient id="g21" x2="1" gradientUnits="userSpaceOnUse" gradientTransform="matrix(0,-40.313,7.275,0,463.713,683.153)">
			<stop offset=".249" stop-color="#7123ff"/>
			<stop offset=".837" stop-color="#9650ff"/>
		</linearGradient>
		<linearGradient id="g22" x2="1" gradientUnits="userSpaceOnUse" gradientTransform="matrix(0,-20.156,7.275,0,512.741,683.153)">
			<stop offset=".249" stop-color="#7123ff"/>
			<stop offset=".837" stop-color="#9650ff"/>
		</linearGradient>
		<linearGradient id="g23" x2="1" gradientUnits="userSpaceOnUse" gradientTransform="matrix(0,-10.078,7.275,0,540.957,683.153)">
			<stop offset=".249" stop-color="#7123ff"/>
			<stop offset=".837" stop-color="#9650ff"/>
		</linearGradient>
		<linearGradient id="g24" x2="1" gradientUnits="userSpaceOnUse" gradientTransform="matrix(0,-618.229,394.632,0,-174.649,741.075)">
			<stop offset="0" stop-color="#e869ff" stop-opacity=".03"/>
			<stop offset=".382" stop-color="#e869ff" stop-opacity=".2"/>
			<stop offset="1" stop-color="#f569ff" stop-opacity=".75"/>
		</linearGradient>
		<linearGradient id="g25" x2="1" gradientUnits="userSpaceOnUse" gradientTransform="matrix(79.395,0,0,98.825,536.151,603.622)">
			<stop offset="0" stop-color="#ff9100"/>
			<stop offset="1" stop-color="#ffbd23"/>
		</linearGradient>
		<clipPath clipPathUnits="userSpaceOnUse" id="cp7">
			<path d="m-34.17 787.28h-0.65c-1.09 0-1.97-0.88-1.97-1.96 0-1.09 0.88-1.97 1.97-1.97h0.65z"/>
		</clipPath>
		<linearGradient id="g26" x2="1" gradientUnits="userSpaceOnUse" gradientTransform="matrix(9.819,.982,-0.473,4.723,-42.681,783.353)">
			<stop offset="0" stop-color="#292929"/>
			<stop offset="1" stop-color="#2a2a2a"/>
		</linearGradient>
		<linearGradient id="g27" x2="1" gradientUnits="userSpaceOnUse" gradientTransform="matrix(498.727,-0.222,.069,154.19,-34.822,783.353)">
			<stop offset="0" stop-color="#292929"/>
			<stop offset="1" stop-color="#ffffff"/>
		</linearGradient>
		<clipPath clipPathUnits="userSpaceOnUse" id="cp8">
			<path d="m615.61 583.83l-0.15-0.63-0.02-0.11c-0.25-1.05 0.4-2.11 1.45-2.36 1.06-0.25 2.12 0.4 2.37 1.46l0.15 0.64z"/>
		</clipPath>
		<linearGradient id="g28" x2="1" gradientUnits="userSpaceOnUse" gradientTransform="matrix(.5,-2.148,1.586,.37,615.909,585.092)">
			<stop offset="0" stop-color="#ff9100"/>
			<stop offset="1" stop-color="#ffffff"/>
		</linearGradient>
		<linearGradient id="g29" x2="1" gradientUnits="userSpaceOnUse" gradientTransform="matrix(-36.327,-304.125,448.584,-53.582,473.097,628.03)">
			<stop offset=".249" stop-color="#7123ff"/>
			<stop offset=".837" stop-color="#9650ff"/>
		</linearGradient>
		<linearGradient id="g30" x2="1" gradientUnits="userSpaceOnUse" gradientTransform="matrix(40.629,-364.03,471.842,52.662,397.287,629.995)">
			<stop offset="0" stop-color="#d6b7ff"/>
			<stop offset="1" stop-color="#f7ddfe"/>
		</linearGradient>
		<linearGradient id="g31" x2="1" gradientUnits="userSpaceOnUse" gradientTransform="matrix(187.589,165.982,-166.418,188.082,477.882,301.913)">
			<stop offset="0" stop-color="#988aff" stop-opacity="1"/>
			<stop offset="1" stop-color="#bcb3ff" stop-opacity=".2"/>
		</linearGradient>
		<linearGradient id="g32" x2="1" gradientUnits="userSpaceOnUse" gradientTransform="matrix(144.808,-10.114,4.38,62.71,586.973,476.887)">
			<stop offset="0" stop-color="#988aff"/>
			<stop offset="1" stop-color="#bcb3ff"/>
		</linearGradient>
		<linearGradient id="g33" x2="1" gradientUnits="userSpaceOnUse" gradientTransform="matrix(0,-78.63,31.281,0,655.293,526.857)">
			<stop offset="0" stop-color="#e67614"/>
			<stop offset="1" stop-color="#e7a047"/>
		</linearGradient>
		<linearGradient id="g34" x2="1" gradientUnits="userSpaceOnUse" gradientTransform="matrix(0,-78.627,31.272,0,741.947,526.848)">
			<stop offset="0" stop-color="#e67614"/>
			<stop offset="1" stop-color="#e7a047"/>
		</linearGradient>
		<linearGradient id="g35" x2="1" gradientUnits="userSpaceOnUse" gradientTransform="matrix(0,-38.135,15.153,0,784.747,486.356)">
			<stop offset="0" stop-color="#e67614"/>
			<stop offset="1" stop-color="#e7a047"/>
		</linearGradient>
		<linearGradient id="g36" x2="1" gradientUnits="userSpaceOnUse" gradientTransform="matrix(55.034,-0.249,.144,31.897,770.024,317.356)">
			<stop offset="0" stop-color="#e67614"/>
			<stop offset=".402" stop-color="#e7a047"/>
			<stop offset="1" stop-color="#e68121"/>
		</linearGradient>
		<linearGradient id="g37" x2="1" gradientUnits="userSpaceOnUse" gradientTransform="matrix(-85.286,-44.707,52.956,-101.023,803.226,518.54)">
			<stop offset="0" stop-color="#ffd093"/>
			<stop offset="1" stop-color="#fff4e6"/>
		</linearGradient>
		<linearGradient id="g38" x2="1" gradientUnits="userSpaceOnUse" gradientTransform="matrix(0,-20.99,66.676,0,793.904,496.303)">
			<stop offset="0" stop-color="#e6a756"/>
			<stop offset="1" stop-color="#e6b77b"/>
		</linearGradient>
		<linearGradient id="g39" x2="1" gradientUnits="userSpaceOnUse" gradientTransform="matrix(0,-41.754,41.754,0,777.79,410.192)">
			<stop offset="0" stop-color="#db963f"/>
			<stop offset="1" stop-color="#dba25b"/>
		</linearGradient>
		<linearGradient id="g40" x2="1" gradientUnits="userSpaceOnUse" gradientTransform="matrix(0,-40.483,40.483,0,776.963,407.265)">
			<stop offset="0" stop-color="#ffaf49"/>
			<stop offset="1" stop-color="#ffbc6a"/>
		</linearGradient>
		<linearGradient id="g41" x2="1" gradientUnits="userSpaceOnUse" gradientTransform="matrix(0,-40.483,40.483,0,776.963,407.265)">
			<stop offset="0" stop-color="#ffaf49"/>
			<stop offset="1" stop-color="#ffd29c"/>
		</linearGradient>
		<linearGradient id="g42" x2="1" gradientUnits="userSpaceOnUse" gradientTransform="matrix(0,-28.814,28.814,0,782.797,401.43)">
			<stop offset="0" stop-color="#e69e44"/>
			<stop offset="1" stop-color="#cd6426"/>
		</linearGradient>
		<linearGradient id="g43" x2="1" gradientUnits="userSpaceOnUse" gradientTransform="matrix(7.287,-7.287,4.127,4.127,781.446,377.901)">
			<stop offset="0" stop-color="#e69126"/>
			<stop offset="1" stop-color="#e69e44"/>
		</linearGradient>
		<linearGradient id="g44" x2="1" gradientUnits="userSpaceOnUse" gradientTransform="matrix(0,-20.99,7.88,0,739.853,496.303)">
			<stop offset="0" stop-color="#e6a756"/>
			<stop offset="1" stop-color="#e6b77b"/>
		</linearGradient>
		<linearGradient id="g45" x2="1" gradientUnits="userSpaceOnUse" gradientTransform="matrix(0,-20.99,8.617,0,747.209,496.303)">
			<stop offset="0" stop-color="#e6a756"/>
			<stop offset="1" stop-color="#e6b77b"/>
		</linearGradient>
		<linearGradient id="g46" x2="1" gradientUnits="userSpaceOnUse" gradientTransform="matrix(0,-20.99,7.142,0,747.997,496.303)">
			<stop offset="0" stop-color="#e6a756"/>
			<stop offset="1" stop-color="#e6b77b"/>
		</linearGradient>
		<linearGradient id="g47" x2="1" gradientUnits="userSpaceOnUse" gradientTransform="matrix(0,-20.99,5.683,0,746.142,496.303)">
			<stop offset="0" stop-color="#e6a756"/>
			<stop offset="1" stop-color="#e6b77b"/>
		</linearGradient>
		<linearGradient id="g48" x2="1" gradientUnits="userSpaceOnUse" gradientTransform="matrix(0,-20.99,4.225,0,738.84,496.303)">
			<stop offset="0" stop-color="#e6a756"/>
			<stop offset="1" stop-color="#e6b77b"/>
		</linearGradient>
		<linearGradient id="g49" x2="1" gradientUnits="userSpaceOnUse" gradientTransform="matrix(0,-20.99,3.068,0,725.406,496.303)">
			<stop offset="0" stop-color="#e6a756"/>
			<stop offset="1" stop-color="#e6b77b"/>
		</linearGradient>
		<linearGradient id="g50" x2="1" gradientUnits="userSpaceOnUse" gradientTransform="matrix(0,-20.99,4.225,0,751.297,496.303)">
			<stop offset="0" stop-color="#e6a756"/>
			<stop offset="1" stop-color="#e6b77b"/>
		</linearGradient>
		<linearGradient id="g51" x2="1" gradientUnits="userSpaceOnUse" gradientTransform="matrix(0,-20.99,5.684,0,770.738,496.303)">
			<stop offset="0" stop-color="#e6a756"/>
			<stop offset="1" stop-color="#e6b77b"/>
		</linearGradient>
		<linearGradient id="g52" x2="1" gradientUnits="userSpaceOnUse" gradientTransform="matrix(0,-20.99,7.159,0,784.794,496.303)">
			<stop offset="0" stop-color="#e6a756"/>
			<stop offset="1" stop-color="#e6b77b"/>
		</linearGradient>
		<linearGradient id="g53" x2="1" gradientUnits="userSpaceOnUse" gradientTransform="matrix(0,-20.99,8.617,0,796.063,496.303)">
			<stop offset="0" stop-color="#e6a756"/>
			<stop offset="1" stop-color="#e6b77b"/>
		</linearGradient>
		<linearGradient id="g54" x2="1" gradientUnits="userSpaceOnUse" gradientTransform="matrix(0,-20.99,7.896,0,798.7,496.303)">
			<stop offset="0" stop-color="#e6a756"/>
			<stop offset="1" stop-color="#e6b77b"/>
		</linearGradient>
		<linearGradient id="g55" x2="1" gradientUnits="userSpaceOnUse" gradientTransform="matrix(0,-79.356,9.262,0,456.426,526.857)">
			<stop offset="0" stop-color="#e67614"/>
			<stop offset="1" stop-color="#e7a047"/>
		</linearGradient>
		<linearGradient id="g56" x2="1" gradientUnits="userSpaceOnUse" gradientTransform="matrix(0,-41.914,41.913,0,698.551,609.811)">
			<stop offset="0" stop-color="#e06500"/>
			<stop offset="1" stop-color="#e0961f"/>
		</linearGradient>
		<linearGradient id="g57" x2="1" gradientUnits="userSpaceOnUse" gradientTransform="matrix(0,-41.914,41.913,0,690.693,609.811)">
			<stop offset="0" stop-color="#ff9100"/>
			<stop offset="1" stop-color="#ffbd23"/>
		</linearGradient>
		<linearGradient id="g58" x2="1" gradientUnits="userSpaceOnUse" gradientTransform="matrix(0,-134.32,151.063,0,732.373,741.075)">
			<stop offset="0" stop-color="#7d6bff"/>
			<stop offset="1" stop-color="#a194ff"/>
		</linearGradient>
		<linearGradient id="g59" x2="1" gradientUnits="userSpaceOnUse" gradientTransform="matrix(0,-134.32,151.063,0,706.508,741.075)">
			<stop offset="0" stop-color="#988aff"/>
			<stop offset="1" stop-color="#bcb3ff"/>
		</linearGradient>
		<linearGradient id="g60" x2="1" gradientUnits="userSpaceOnUse" gradientTransform="matrix(0,-81.082,91.189,0,772.047,606.755)">
			<stop offset="0" stop-color="#6151db"/>
			<stop offset="1" stop-color="#7a6edb"/>
		</linearGradient>
		<linearGradient id="g61" x2="1" gradientUnits="userSpaceOnUse" gradientTransform="matrix(0,-81.082,91.189,0,753.599,606.755)">
			<stop offset="0" stop-color="#7563ff"/>
			<stop offset="1" stop-color="#9284ff"/>
		</linearGradient>
		<linearGradient id="g62" x2="1" gradientUnits="userSpaceOnUse" gradientTransform="matrix(0,-31.435,146.697,0,806.441,748.643)">
			<stop offset="0" stop-color="#e06500"/>
			<stop offset="1" stop-color="#e0961f"/>
		</linearGradient>
		<linearGradient id="g63" x2="1" gradientUnits="userSpaceOnUse" gradientTransform="matrix(0,-31.435,146.697,0,799.787,748.643)">
			<stop offset="0" stop-color="#ff9100"/>
			<stop offset="1" stop-color="#ffbd23"/>
		</linearGradient>
		<linearGradient id="g64" x2="1" gradientUnits="userSpaceOnUse" gradientTransform="matrix(38.023,-257.059,149.602,22.128,842.663,758.945)">
			<stop offset="0" stop-color="#d2cfff"/>
			<stop offset="1" stop-color="#ebe9ff"/>
		</linearGradient>
		<linearGradient id="g65" x2="1" gradientUnits="userSpaceOnUse" gradientTransform="matrix(23.089,0,0,18.429,897.564,723.567)">
			<stop offset="0" stop-color="#b5b0ff"/>
			<stop offset="1" stop-color="#cfcaff"/>
		</linearGradient>
		<linearGradient id="g66" x2="1" gradientUnits="userSpaceOnUse" gradientTransform="matrix(0,-75.585,52.829,0,692.283,799.598)">
			<stop offset=".249" stop-color="#7123ff"/>
			<stop offset="1" stop-color="#9650ff"/>
		</linearGradient>
		<linearGradient id="g67" x2="1" gradientUnits="userSpaceOnUse" gradientTransform="matrix(0,-81.353,52.039,0,656.352,802.554)">
			<stop offset="0" stop-color="#7123ff"/>
			<stop offset=".59" stop-color="#9650ff"/>
			<stop offset="1" stop-color="#bb8dff"/>
		</linearGradient>
		<linearGradient id="g68" x2="1" gradientUnits="userSpaceOnUse" gradientTransform="matrix(0,-81.208,52.039,0,640.425,802.409)">
			<stop offset=".249" stop-color="#7123ff"/>
			<stop offset=".837" stop-color="#9650ff"/>
		</linearGradient>
		<linearGradient id="g69" x2="1" gradientUnits="userSpaceOnUse" gradientTransform="matrix(16.154,11.133,-6.193,8.987,721.921,736.899)">
			<stop offset="0" stop-color="#7123ff" stop-opacity="1"/>
			<stop offset="1" stop-color="#873eff" stop-opacity="0"/>
		</linearGradient>
		<linearGradient id="g70" x2="1" gradientUnits="userSpaceOnUse" gradientTransform="matrix(16.154,11.133,-6.193,8.987,708.532,742.988)">
			<stop offset="0" stop-color="#7123ff" stop-opacity="1"/>
			<stop offset="1" stop-color="#873eff" stop-opacity="0"/>
		</linearGradient>
		<linearGradient id="g71" x2="1" gradientUnits="userSpaceOnUse" gradientTransform="matrix(53.262,0,0,14.794,643.133,757.102)">
			<stop offset=".249" stop-color="#7540d6"/>
			<stop offset=".837" stop-color="#9366d6"/>
		</linearGradient>
		<linearGradient id="g72" x2="1" gradientUnits="userSpaceOnUse" gradientTransform="matrix(0,-14.794,53.262,0,669.347,771.896)">
			<stop offset="0" stop-color="#9961ff"/>
			<stop offset="1" stop-color="#c39bff"/>
		</linearGradient>
		<linearGradient id="g73" x2="1" gradientUnits="userSpaceOnUse" gradientTransform="matrix(53.262,0,0,14.794,656.303,750.981)">
			<stop offset=".249" stop-color="#7540d6"/>
			<stop offset=".837" stop-color="#9366d6"/>
		</linearGradient>
		<linearGradient id="g74" x2="1" gradientUnits="userSpaceOnUse" gradientTransform="matrix(0,-14.794,53.262,0,682.517,765.775)">
			<stop offset="0" stop-color="#9961ff"/>
			<stop offset="1" stop-color="#c39bff"/>
		</linearGradient>
		<linearGradient id="g75" x2="1" gradientUnits="userSpaceOnUse" gradientTransform="matrix(0,-231.41,109.319,0,97.352,741.075)">
			<stop offset="0" stop-color="#988aff"/>
			<stop offset="1" stop-color="#bcb3ff"/>
		</linearGradient>
		<linearGradient id="g76" x2="1" gradientUnits="userSpaceOnUse" gradientTransform="matrix(0,-103.712,109.319,0,181.254,741.075)">
			<stop offset="0" stop-color="#7563ff"/>
			<stop offset="1" stop-color="#9284ff"/>
		</linearGradient>
		<linearGradient id="g77" x2="1" gradientUnits="userSpaceOnUse" gradientTransform="matrix(0,-52.091,109.319,0,170.013,748.175)">
			<stop offset="0" stop-color="#513ee6"/>
			<stop offset="1" stop-color="#6b5ce6"/>
		</linearGradient>
		<linearGradient id="g78" x2="1" gradientUnits="userSpaceOnUse" gradientTransform="matrix(0,-209.371,27.586,0,14.582,697.941)">
			<stop offset=".306" stop-color="#b1a7ff" stop-opacity="0"/>
			<stop offset="1" stop-color="#988aff" stop-opacity="1"/>
		</linearGradient>
		<linearGradient id="g79" x2="1" gradientUnits="userSpaceOnUse" gradientTransform="matrix(40.434,-204.486,25.057,4.955,1096.284,759.956)">
			<stop offset="0" stop-color="#b7adff"/>
			<stop offset="1" stop-color="#dbd6ff"/>
		</linearGradient>
		<linearGradient id="g80" x2="1" gradientUnits="userSpaceOnUse" gradientTransform="matrix(0,-41.913,41.914,0,384.193,468.666)">
			<stop offset="0" stop-color="#04e000"/>
			<stop offset="1" stop-color="#1fe06a"/>
		</linearGradient>
		<linearGradient id="g81" x2="1" gradientUnits="userSpaceOnUse" gradientTransform="matrix(0,-41.913,41.914,0,392.052,468.666)">
			<stop offset="0" stop-color="#00ff3c"/>
			<stop offset="1" stop-color="#23ffbb"/>
		</linearGradient>
		<linearGradient id="g82" x2="1" gradientUnits="userSpaceOnUse" gradientTransform="matrix(0,-41.914,41.914,0,375.17,509.733)">
			<stop offset="0" stop-color="#e06500"/>
			<stop offset="1" stop-color="#e0961f"/>
		</linearGradient>
		<linearGradient id="g83" x2="1" gradientUnits="userSpaceOnUse" gradientTransform="matrix(0,-41.914,41.914,0,383.029,509.733)">
			<stop offset="0" stop-color="#ff9100"/>
			<stop offset="1" stop-color="#ffbd23"/>
		</linearGradient>
		<linearGradient id="g84" x2="1" gradientUnits="userSpaceOnUse" gradientTransform="matrix(-30.234,-30.075,7.032,-7.069,202.523,726.158)">
			<stop offset="0" stop-color="#b1a7ff" stop-opacity="0"/>
			<stop offset="1" stop-color="#988aff" stop-opacity="1"/>
		</linearGradient>
		<linearGradient id="g85" x2="1" gradientUnits="userSpaceOnUse" gradientTransform="matrix(0,-78.071,78.503,0,186.757,752.847)">
			<stop offset="0" stop-color="#b7adff"/>
			<stop offset="1" stop-color="#dbd6ff"/>
		</linearGradient>
		<linearGradient id="g86" x2="1" gradientUnits="userSpaceOnUse" gradientTransform="matrix(134.966,-16.121,.692,5.793,571.598,386.383)">
			<stop offset="0" stop-color="#af92ff" stop-opacity="1"/>
			<stop offset="1" stop-color="#af92ff" stop-opacity=".2"/>
		</linearGradient>
		<linearGradient id="g87" x2="1" gradientUnits="userSpaceOnUse" gradientTransform="matrix(71.239,-8.509,.692,5.793,573.35,401.054)">
			<stop offset="0" stop-color="#af92ff" stop-opacity="1"/>
			<stop offset="1" stop-color="#af92ff" stop-opacity=".2"/>
		</linearGradient>
		<linearGradient id="g88" x2="1" gradientUnits="userSpaceOnUse" gradientTransform="matrix(71.238,-8.509,.692,5.793,575.103,415.726)">
			<stop offset="0" stop-color="#af92ff" stop-opacity="1"/>
			<stop offset="1" stop-color="#af92ff" stop-opacity=".2"/>
		</linearGradient>
		<linearGradient id="g89" x2="1" gradientUnits="userSpaceOnUse" gradientTransform="matrix(134.966,-16.121,.692,5.793,579.519,438.023)">
			<stop offset="0" stop-color="#af92ff" stop-opacity="1"/>
			<stop offset="1" stop-color="#af92ff" stop-opacity=".2"/>
		</linearGradient>
		<linearGradient id="g90" x2="1" gradientUnits="userSpaceOnUse" gradientTransform="matrix(71.239,-8.509,.692,5.793,581.271,452.695)">
			<stop offset="0" stop-color="#af92ff" stop-opacity="1"/>
			<stop offset="1" stop-color="#af92ff" stop-opacity=".2"/>
		</linearGradient>
		<linearGradient id="g91" x2="1" gradientUnits="userSpaceOnUse" gradientTransform="matrix(71.238,-8.509,.692,5.793,583.024,467.366)">
			<stop offset="0" stop-color="#af92ff" stop-opacity="1"/>
			<stop offset="1" stop-color="#af92ff" stop-opacity=".2"/>
		</linearGradient>
	</defs>
	<style>
		tspan { white-space:pre } 
		.s0 { fill: url(#g1) } 
		.s1 { fill: url(#g2) } 
		.s2 { fill: url(#g3) } 
		.s3 { fill: url(#g4) } 
		.s4 { fill: url(#g5) } 
		.s5 { fill: url(#g6) } 
		.s6 { fill: url(#g7) } 
		.s7 { fill: url(#g8) } 
		.s8 { fill: none;stroke: url(#g9);stroke-linecap: round;stroke-linejoin: round;stroke-width: 2 } 
		.s9 { fill: none;stroke: url(#g10);stroke-linecap: round;stroke-linejoin: round;stroke-width: 2 } 
		.s10 { fill: url(#g11) } 
		.s11 { fill: url(#g12) } 
		.s12 { fill: url(#g13) } 
		.s13 { fill: url(#g14) } 
		.s14 { fill: url(#g15) } 
		.s15 { fill: url(#g16) } 
		.s16 { fill: url(#g17) } 
		.s17 { fill: url(#g18) } 
		.s18 { fill: url(#g19) } 
		.s19 { fill: url(#g20) } 
		.s20 { fill: url(#g21) } 
		.s21 { fill: url(#g22) } 
		.s22 { fill: url(#g23) } 
		.s23 { opacity: .5;fill: url(#g24) } 
		.s24 { fill: none;stroke: url(#g25);stroke-linecap: round;stroke-miterlimit:10;stroke-width: 3.9 } 
		.s25 { fill: url(#g26) } 
		.s26 { fill: url(#g27) } 
		.s27 { fill: url(#g28) } 
		.s28 { fill: url(#g29) } 
		.s29 { fill: url(#g30) } 
		.s30 { fill: #ffffff } 
		.s31 { opacity: .2;fill: url(#g31) } 
		.s32 { opacity: .1;fill: url(#g32) } 
		.s33 { opacity: .6;fill: #af92ff } 
		.s34 { fill: url(#g33) } 
		.s35 { fill: url(#g34) } 
		.s36 { opacity: .5;mix-blend-mode: multiply;fill: url(#g35) } 
		.s37 { fill: url(#g36) } 
		.s38 { fill: url(#g37) } 
		.s39 { fill: url(#g38) } 
		.s40 { opacity: .5;mix-blend-mode: multiply;fill: url(#g39) } 
		.s41 { fill: url(#g40) } 
		.s42 { fill: url(#g41) } 
		.s43 { fill: url(#g42) } 
		.s44 { mix-blend-mode: screen;fill: url(#g43) } 
		.s45 { fill: url(#g44) } 
		.s46 { fill: url(#g45) } 
		.s47 { fill: url(#g46) } 
		.s48 { fill: url(#g47) } 
		.s49 { fill: url(#g48) } 
		.s50 { fill: url(#g49) } 
		.s51 { fill: url(#g50) } 
		.s52 { fill: url(#g51) } 
		.s53 { fill: url(#g52) } 
		.s54 { fill: url(#g53) } 
		.s55 { fill: url(#g54) } 
		.s56 { fill: url(#g55) } 
		.s57 { fill: url(#g56) } 
		.s58 { fill: url(#g57) } 
		.s59 { fill: url(#g58) } 
		.s60 { fill: url(#g59) } 
		.s61 { fill: url(#g60) } 
		.s62 { fill: url(#g61) } 
		.s63 { fill: url(#g62) } 
		.s64 { fill: url(#g63) } 
		.s65 { fill: url(#g64) } 
		.s66 { fill: url(#g65) } 
		.s67 { fill: url(#g66) } 
		.s68 { fill: url(#g67) } 
		.s69 { fill: url(#g68) } 
		.s70 { opacity: .5;mix-blend-mode: multiply;fill: url(#g69) } 
		.s71 { opacity: .5;mix-blend-mode: multiply;fill: url(#g70) } 
		.s72 { fill: url(#g71) } 
		.s73 { fill: url(#g72) } 
		.s74 { fill: url(#g73) } 
		.s75 { fill: url(#g74) } 
		.s76 { fill: url(#g75) } 
		.s77 { fill: url(#g76) } 
		.s78 { fill: url(#g77) } 
		.s79 { mix-blend-mode: multiply;fill: url(#g78) } 
		.s80 { fill: url(#g79) } 
		.s81 { fill: url(#g80) } 
		.s82 { fill: url(#g81) } 
		.s83 { fill: none;stroke: #ffffff;stroke-linecap: round;stroke-linejoin: round;stroke-width: 5.9 } 
		.s84 { fill: url(#g82) } 
		.s85 { fill: url(#g83) } 
		.t86 { font-size: 39px;fill: #ffffff;font-weight: 700;font-family: "Raleway-Bold", "Raleway" } 
		.s87 { mix-blend-mode: multiply;fill: url(#g84) } 
		.s88 { fill: url(#g85) } 
		.s89 { opacity: .6;fill: url(#g86) } 
		.s90 { opacity: .6;fill: url(#g87) } 
		.s91 { opacity: .6;fill: url(#g88) } 
		.s92 { opacity: .6;fill: url(#g89) } 
		.s93 { opacity: .6;fill: url(#g90) } 
		.s94 { opacity: .6;fill: url(#g91) } 
		.s95 { fill: #fecab2 } 
		.s96 { fill: #ff6a9c } 
		.s97 { fill: #352cc7 } 
		.s98 { fill: #4e40c7 } 
		.s99 { fill: #ff80ab } 
		.s100 { fill: #1a237e } 
		.s101 { fill: #b388ff } 
		.s102 { fill: #7c4dff } 
		.s103 { fill: #6c37ff } 
		.s104 { fill: #feb08c } 
		.s105 { fill: #ffab00 } 
		.s106 { fill: #ffc400 } 
		.s107 { fill: #aa00ff } 
		.t108 { font-size: 20px;line-height: 21px;fill: #afa4ff;font-weight: 700;font-family: "Raleway-Bold", "Raleway" } 
		.t109 { font-size: 13px;line-height: 14px;fill: #b0a6ff;font-weight: 700;font-family: "Raleway-Bold", "Raleway" } 
	</style>
	<g id="BACKGROUND">
	</g>
	<g id="OBJECTS">
		<g id="&lt;Clip Group&gt;" clip-path="url(#cp1)">
			<g id="&lt;Group&gt;">
				<g id="&lt;Group&gt;">
					<g id="&lt;Group&gt;">
						<g id="&lt;Clip Group&gt;" clip-path="url(#cp2)">
							<path id="&lt;Mesh&gt;" class="s0" d="m415.7 783.8q0 0.8 0 0.8h5.9q0 0 0-0.8zm5.9 0q0 0.8 0 0.8h1.9q0 0 0-0.8zm-5.9 0.8v0.7h5.9v-0.7zm5.9 0v0.7h2v-0.7zm-5.9 0.7v0.8h5.9v-0.8zm5.9 0v0.8h1.9v-0.8zm-5.9 0.8q0 0 0 0.7h5.9q0-0.7 0-0.7zm5.9 0q0 0 0 0.7h2q0-0.7 0-0.7z"/>
						</g>
						<path id="&lt;Mesh&gt;" class="s1" d="m421.6 783.8q0 0.8 0 0.8 1.9 0 1.9 0 0 0 0-0.8 0 0-1.9 0zm1.9 0q0 0.8 0 0.8h129q0 0 0-0.8zm129 0q0 0.8 0 0.8h24.6q0 0 0-0.8zm24.5 0q0 0.8 0 0.8 0 0 2 0 0 0 0-0.8-2 0-2 0zm-155.5 0.8v0.7q2 0 2 0v-0.7q0 0-2 0zm2 0v0.7h129v-0.7zm129 0v0.7h24.5v-0.7zm24.6 0v0.7q0 0 1.9 0v-0.7q-1.9 0-1.9 0zm-155.5 0.7v0.8q1.9 0 1.9 0v-0.8q0 0-1.9 0zm1.9 0v0.8h129v-0.8zm129 0v0.8h24.6v-0.8zm24.5 0v0.8q0 0 2 0v-0.8q-2 0-2 0zm-155.5 0.8q0 0 0 0.7 2 0 2 0 0-0.7 0-0.7 0 0-2 0zm2 0q0 0 0 0.7h129q0-0.7 0-0.7zm129 0q0 0 0 0.7h24.5q0-0.7 0-0.7zm24.6 0q0 0 0 0.7 0 0 1.9 0 0-0.7 0-0.7-1.9 0-1.9 0z"/>
						<g id="&lt;Clip Group&gt;" clip-path="url(#cp3)">
							<path id="&lt;Mesh&gt;" class="s2" d="m577.1 783.8q0 0.8 0 0.8h1.9q0 0 0-0.8zm2 0q0 0.8 0 0.8h5.9q0 0 0-0.8zm-2 0.8v0.7h2v-0.7zm1.9 0v0.7h5.9v-0.7zm-1.9 0.7v0.8h1.9v-0.8zm2 0v0.8h5.9v-0.8zm-2 0.8q0 0 0 0.7h2q0-0.7 0-0.7zm2 0q0 0 0 0.7h5.9q0-0.7 0-0.7z"/>
						</g>
					</g>
				</g>
				<g id="&lt;Group&gt;">
					<g id="&lt;Group&gt;">
						<g id="&lt;Clip Group&gt;" clip-path="url(#cp4)">
							<path id="&lt;Mesh&gt;" class="s3" d="m753.7 759.6q0 1 0 1c0 0 2.6 0.2 7.8 0.2q0 0 0-1c-5.2 0-7.8-0.2-7.8-0.2zm7.8 0.2q0 1 0 1 1 0 2 0.1 0 0 0-1-1 0-2-0.1zm-7.8 0.8q0 0.5 0 1c0 0 2.6 0.2 7.8 0.2q0-0.5 0-1c-5.2 0-7.8-0.2-7.8-0.2zm7.8 0.2q0 0.5 0 1 1 0 2 0.1 0-0.5 0-1-1-0.1-2-0.1zm-7.8 0.8q0 0.5 0 1c0 0 2.6 0.2 7.8 0.2q0-0.5 0-1c-5.2 0-7.8-0.2-7.8-0.2zm7.8 0.2q0 0.5 0 1 1 0 2 0 0-0.5 0-0.9-1-0.1-2-0.1zm-7.8 0.8q0 0 0 1c0 0 2.6 0.2 7.8 0.2q0-1 0-1c-5.2 0-7.8-0.2-7.8-0.2zm7.8 0.2q0 0 0 1 1 0 2 0 0-1 0-1-1 0-2 0z"/>
						</g>
						<path id="&lt;Mesh&gt;" class="s4" d="m761.5 759.8q0 1 0 1 2 0.1 2 0.1 0 0 0-1 0 0-2-0.1zm24.3 2q-2.7-0.5-5.5-0.9c-1.9-0.2-3.7-0.3-5.6-0.5-3.7-0.4-7.5-0.4-11.2-0.5q0 1 0 1c3.7 0.1 7.4 0.1 11.1 0.5 1.9 0.1 3.7 0.3 5.6 0.5q2.7 0.4 5.5 0.8c7.3 1.3 14.5 3.4 21.4 6.3q-0.1 0 0.3-0.9c-6.9-2.9-14.2-5-21.6-6.3zm42.9 15c-7.2-2.4-14.1-5.7-21.3-8.7q-0.4 0.9-0.3 0.9c7.1 2.9 14 6.3 21.3 8.6 7.2 2.4 14.7 4.1 22.3 4.9q0 0 0.1-0.9c-7.5-0.8-14.9-2.5-22.1-4.8zm33.3 5.8q-2.8-0.2-5.6-0.4c-1.9-0.2-3.7-0.3-5.6-0.6q-0.1 0.9-0.1 0.9c1.9 0.3 3.8 0.5 5.6 0.6q2.9 0.2 5.7 0.4 5.6 0.2 11.3 0.3 0 0 0-0.9-5.6-0.1-11.3-0.3zm11.3 0.3q0 0.9 0 0.9 0 0 0 0 0 0 0-0.9 0 0 0 0zm0 0q0 0.9 0 0.9 11.7 0 23.4 0 0 0 0-0.9-11.7 0-23.4 0zm23.4 0q0 0.9 0 0.9 7 0 13.9 0.1 0 0 0-0.9-6.9 0-13.9-0.1zm13.9 0.1q0 0.9 0 0.9 0 0 0 0 0 0 0-0.9 0 0 0 0zm0 0q0 0.9 0 0.9c10.3 0 20.4-4.6 27.1-12.3q0 0-0.6-0.5c-6.6 7.4-16.5 11.9-26.5 11.9zm26.5-11.9q0.6 0.5 0.6 0.5c5.9-6.5 9.2-15.2 9.3-24q0 0-0.9 0c0 8.6-3.3 17.1-9 23.5zm9-23.5q0.9 0 0.9 0 0-0.1 0-0.1 0 0-0.9 0 0 0 0 0.1zm0-0.1q0.9 0 0.9 0c-0.1-6.5-1.8-13.1-5.2-18.6q0 0-0.8 0.4c3.4 5.4 5 11.9 5.1 18.2zm-18-30.9c5.3 3.1 9.8 7.4 12.9 12.7q0.8-0.4 0.8-0.4c-3.2-5.4-7.9-9.9-13.3-13-5.4-3.1-11.6-4.6-17.9-4.7q0 0 0 0.8c6.1 0.1 12.2 1.6 17.5 4.6zm-17.5-4.6q0-0.8 0-0.8 0 0 0 0 0 0 0 0.8 0 0 0 0zm0 0q0-0.8 0-0.8-3.9 0-7.9 0 0 0 0 0.8 4 0 7.9 0zm-7.9 0q0-0.8 0-0.8-23-0.1-46.1-0.1 0 0 0 0.8 23.1 0 46.1 0.1zm-46.1-0.1q0-0.8 0-0.8-23.1 0-46.2 0 0 0 0 0.8 23.1 0 46.2 0zm-46.2 0q0-0.8 0-0.8-23.1 0-46.2 0 0 0 0 0.7 23.1 0 46.2 0.1zm-46.2-0.1q0-0.7 0-0.7-23.1 0-46.2-0.1 0 0 0 0.8 23.1 0 46.2 0zm-46.2 0q0-0.8 0-0.8-23.1 0-46.2 0 0 0 0 0.7 23.1 0 46.2 0.1zm-46.2-0.1q0-0.7 0-0.7-23.1 0-46.2 0 0 0 0 0.6 23.1 0.1 46.2 0.1zm-46.2-0.1q0-0.6 0-0.6-15.5 0-31 0 0 0 0 0.6 15.5 0 31 0zm-31 0q0-0.6 0-0.6 0 0 0 0 0 0 0 0.6 0 0 0 0zm0 0q0-0.6 0-0.6c-5.1-0.3-10.2-0.3-15.2-1.3q0 0-0.1 0.6c5 1 10.2 1 15.3 1.3zm-55.8-17.2c0.8 0.5 1.7 1 2.5 1.5q2.5 1.5 5 3.1c1.6 1 3.5 1.7 5.2 2.6 1.8 0.8 3.5 1.8 5.3 2.5q2.7 1 5.5 2 1.4 0.5 2.7 1 1.4 0.4 2.9 0.7 2.8 0.8 5.6 1.5c1.9 0.5 3.9 0.7 5.8 1q0.1-0.6 0.1-0.6c-1.9-0.4-3.9-0.5-5.8-1q-2.8-0.7-5.6-1.5-1.4-0.3-2.8-0.7-1.4-0.5-2.7-1-2.7-1-5.5-2c-1.8-0.7-3.5-1.6-5.2-2.4-1.8-0.9-3.6-1.6-5.2-2.7q-2.5-1.5-5-3c-0.8-0.5-1.7-1-2.4-1.5q-1.2-0.9-2.4-1.8 0 0-0.3 0.5 1.2 0.9 2.3 1.8zm-2.3-1.8q0.3-0.5 0.3-0.5c-12.4-9.1-23-21-29.9-34.9q0 0-0.5 0.2c6.9 14 17.6 26 30.1 35.2zm-30.1-35.2q0.5-0.2 0.5-0.2c-6.7-13.3-10.4-28-10.7-42.8q0 0-0.5 0c0.3 14.9 4 29.7 10.7 43zm-10.8-45v0.1q0 0 0 0 0 0 0 0 0 0.1 0 0.2 0 0.1 0 0.2 0 0.2 0 0.4 0 0.4 0 0.6 0.1 0.5 0.1 0.5 0.5 0 0.5 0 0 0 0-0.5 0-0.2 0-0.6 0-0.2-0.1-0.4 0-0.1 0-0.2 0-0.1 0-0.2 0 0 0 0 0 0 0 0v-0.1c0.3 0-0.5 0 0.6 0-2.2 0-0.6 0-1.1 0zm265.9 148.4q0 0.5 0 1 2 0.1 2 0.1 0-0.5 0-1 0 0-2-0.1zm24.2 1.9q-2.8-0.4-5.5-0.8c-1.9-0.2-3.7-0.4-5.6-0.5-3.7-0.4-7.4-0.4-11.1-0.5q0 0.5 0 1c3.7 0.1 7.4 0 11 0.4 1.9 0.2 3.7 0.3 5.5 0.5q2.8 0.5 5.5 0.9c7.3 1.2 14.4 3.3 21.2 6.2q0.2-0.5 0.4-0.9c-6.9-2.9-14.1-5-21.4-6.3zm42.7 14.9c-7.3-2.3-14.2-5.7-21.3-8.6q-0.2 0.4-0.4 0.9c7.1 2.9 14.1 6.2 21.4 8.6 7.3 2.4 14.8 4.1 22.5 5q0.1-0.5 0.1-1c-7.6-0.8-15.1-2.5-22.3-4.9zm33.6 5.9q-2.8-0.2-5.7-0.4c-1.8-0.1-3.7-0.3-5.6-0.6q0 0.5-0.1 1c1.9 0.3 3.8 0.4 5.7 0.5q2.8 0.2 5.6 0.5 5.7 0.1 11.4 0.2 0-0.4 0-0.9-5.7-0.1-11.3-0.3zm11.3 0.3q0 0.5 0 0.9 0 0 0 0 0-0.4 0-0.9 0 0 0 0zm0 0q0 0.5 0 0.9 11.7 0 23.4 0 0-0.4 0-0.9-11.7 0-23.4 0zm23.4 0q0 0.5 0 0.9 7 0 13.9 0 0-0.4 0-0.8-6.9-0.1-13.9-0.1zm13.9 0.1q0 0.4 0 0.8 0 0 0 0 0-0.4 0-0.8 0 0 0 0zm0 0q0 0.4 0 0.8c10.5 0.1 20.9-4.6 27.8-12.5q-0.3-0.3-0.7-0.6c-6.7 7.7-16.8 12.3-27.1 12.3zm27.1-12.3q0.4 0.3 0.7 0.6c6-6.7 9.4-15.6 9.4-24.6q-0.4 0-0.8 0c-0.1 8.8-3.4 17.5-9.3 24zm9.3-24q0.4 0 0.8 0 0-0.1 0-0.1-0.4 0-0.8 0 0 0 0 0.1zm0-0.1q0.4 0 0.8 0c-0.1-6.6-1.8-13.4-5.3-19.1q-0.4 0.2-0.7 0.5c3.4 5.5 5.1 12.1 5.2 18.6zm-18.5-31.6c5.4 3.1 10.1 7.6 13.3 13q0.3-0.3 0.7-0.5c-3.3-5.5-8-10-13.6-13.2-5.5-3.2-11.9-4.8-18.3-4.9q0 0.5 0 0.9c6.3 0.1 12.5 1.6 17.9 4.7zm-17.9-4.7q0-0.4 0-0.9 0 0 0 0 0 0.5 0 0.9 0 0 0 0zm0 0q0-0.4 0-0.9-3.9 0-7.9 0 0 0.4 0 0.9 4 0 7.9 0zm-7.9 0q0-0.5 0-0.9-23 0-46.1 0 0 0.4 0 0.8 23.1 0 46.1 0.1zm-46.1-0.1q0-0.4 0-0.8-23.1 0-46.2 0 0 0.4 0 0.8 23.1 0 46.2 0zm-46.2 0q0-0.4 0-0.8-23.1 0-46.2 0 0 0.4 0 0.8 23.1 0 46.2 0zm-46.2 0q0-0.4 0-0.8-23.1 0-46.2 0 0 0.4 0 0.7 23.1 0.1 46.2 0.1zm-46.2-0.1q0-0.3 0-0.7-23.1 0-46.2 0 0 0.4 0 0.7 23.1 0 46.2 0zm-46.2 0q0-0.3 0-0.7-23.1 0-46.2 0 0 0.4 0 0.7 23.1 0 46.2 0zm-46.2 0q0-0.3 0-0.7-15.5 0-31 0 0 0.4 0 0.7 15.5 0 31 0zm-31 0q0-0.3 0-0.7 0 0 0 0 0 0.4 0 0.7 0 0 0 0zm0 0q0-0.3 0-0.7c-5.1-0.3-10.2-0.3-15.1-1.2q-0.1 0.3-0.1 0.6c5 1 10.1 1 15.2 1.3zm-55.4-17.1c0.7 0.5 1.6 1 2.4 1.5q2.5 1.5 5 3c1.6 1.1 3.4 1.8 5.2 2.7 1.7 0.8 3.4 1.7 5.2 2.4q2.8 1 5.5 2 1.3 0.5 2.7 1 1.4 0.4 2.8 0.7 2.8 0.8 5.6 1.5c1.9 0.5 3.9 0.6 5.8 1q0-0.3 0.1-0.6c-1.9-0.4-3.9-0.5-5.7-1q-2.8-0.7-5.6-1.5-1.4-0.3-2.8-0.7-1.4-0.5-2.7-1-2.7-1-5.4-2c-1.8-0.6-3.5-1.6-5.3-2.4-1.7-0.9-3.5-1.6-5.1-2.6q-2.5-1.5-5-3c-0.8-0.5-1.6-1-2.4-1.5q-1.2-0.9-2.3-1.8-0.2 0.3-0.4 0.5 1.2 0.9 2.4 1.8zm-2.4-1.8q0.2-0.2 0.4-0.5c-12.4-9.1-22.9-20.9-29.8-34.7q-0.2 0.1-0.5 0.3c6.9 13.9 17.5 25.8 29.9 34.9zm-29.9-34.9q0.3-0.2 0.5-0.3c-6.7-13.1-10.3-27.8-10.6-42.5q-0.3 0-0.6 0c0.3 14.8 4 29.5 10.7 42.8zm-10.8-44.8v0.1q0 0 0 0 0 0 0 0 0 0.1 0 0.2 0 0.1 0 0.2 0.1 0.2 0.1 0.4 0 0.4 0 0.6 0 0.5 0 0.5 0.3 0 0.6 0 0 0-0.1-2c-1.1 0-0.3 0-0.6 0zm265.4 149.4q0 0.5 0 1 2 0 2 0 0-0.5 0-0.9 0 0-2-0.1zm24 1.9q-2.7-0.4-5.5-0.9c-1.8-0.2-3.6-0.3-5.5-0.5-3.6-0.4-7.3-0.3-11-0.4q0 0.4 0 0.9c3.6 0.2 7.3 0.1 11 0.5 1.8 0.2 3.6 0.3 5.4 0.5q2.7 0.4 5.4 0.8c7.2 1.3 14.3 3.4 21 6.1q0.2-0.4 0.4-0.8c-6.8-2.9-13.9-5-21.2-6.2zm42.6 14.8c-7.3-2.4-14.3-5.7-21.4-8.6q-0.2 0.4-0.4 0.8c7.1 2.9 14.1 6.3 21.5 8.7 7.4 2.4 15 4.2 22.7 5q0-0.5 0.1-0.9c-7.7-0.9-15.2-2.6-22.5-5zm33.8 6q-2.8-0.3-5.6-0.5c-1.9-0.1-3.8-0.2-5.7-0.5q-0.1 0.4-0.1 0.9c1.9 0.3 3.8 0.4 5.7 0.5q2.8 0.3 5.7 0.5 5.7 0.1 11.4 0.3 0-0.5 0-1-5.7-0.1-11.4-0.2zm11.4 0.2q0 0.5 0 1 0 0 0 0 0-0.5 0-1 0 0 0 0zm0 0q0 0.5 0 1 11.7 0 23.4-0.1 0-0.4 0-0.9-11.7 0-23.4 0zm23.4 0q0 0.5 0 0.9 7 0 13.9 0 0-0.4 0-0.9-6.9 0-13.9 0zm13.9 0q0 0.5 0 0.9 0 0 0 0 0-0.4 0-0.9 0 0 0 0zm0 0q0 0.5 0 0.9c10.8 0.1 21.4-4.8 28.4-12.8q-0.3-0.3-0.6-0.6c-6.9 7.9-17.3 12.6-27.8 12.5zm27.8-12.5q0.3 0.3 0.6 0.6c6.2-6.9 9.7-16 9.7-25.2q-0.5 0-0.9 0c0 9-3.4 17.9-9.4 24.6zm9.4-24.6q0.4 0 0.9 0 0-0.1 0-0.1-0.5 0-0.9 0 0 0 0 0.1zm0-0.1q0.4 0 0.9 0c-0.1-6.8-1.9-13.7-5.5-19.5q-0.4 0.2-0.7 0.4c3.5 5.7 5.2 12.5 5.3 19.1zm-18.9-32.3c5.6 3.2 10.3 7.7 13.6 13.2q0.3-0.2 0.7-0.4c-3.3-5.6-8.2-10.3-13.8-13.5-5.7-3.3-12.3-4.9-18.8-5q0 0.4 0 0.8c6.4 0.1 12.8 1.7 18.3 4.9zm-18.3-4.9q0-0.4 0-0.8 0 0 0 0 0 0.4 0 0.8 0 0 0 0zm0 0q0-0.4 0-0.8-3.9 0-7.9 0 0 0.4 0 0.8 4 0 7.9 0zm-7.9 0q0-0.4 0-0.8-23 0-46.1 0 0 0.4 0 0.8 23.1 0 46.1 0zm-46.1 0q0-0.4 0-0.8-23.1 0.1-46.2 0.1 0 0.4 0 0.7 23.1 0 46.2 0zm-46.2 0q0-0.3 0-0.7-23.1 0-46.2 0 0 0.4 0 0.7 23.1 0 46.2 0zm-46.2 0q0-0.3 0-0.7-23.1 0-46.2 0 0 0.4 0 0.7 23.1 0 46.2 0zm-46.2 0q0-0.3 0-0.7-23.1 0-46.2 0.1 0 0.3 0 0.6 23.1 0 46.2 0zm-46.2 0q0-0.3 0-0.6-23.1 0-46.2 0 0 0.3 0 0.6 23.1 0 46.2 0zm-46.2 0q0-0.3 0-0.6-15.5 0-31 0 0 0.3 0 0.6 15.5 0 31 0zm-31 0q0-0.3 0-0.6 0 0 0 0 0 0.3 0 0.6 0 0 0 0zm0 0q0-0.3 0-0.6c-5.1-0.3-10.1-0.3-15-1.3q-0.1 0.3-0.1 0.7c4.9 0.9 10 0.9 15.1 1.2zm-55.1-16.9c0.8 0.5 1.6 1 2.4 1.5q2.5 1.5 5 3c1.6 1 3.4 1.7 5.1 2.6 1.8 0.8 3.5 1.8 5.3 2.4q2.7 1 5.4 2 1.3 0.5 2.7 1 1.4 0.4 2.8 0.7 2.8 0.8 5.6 1.5c1.8 0.5 3.8 0.6 5.7 1q0-0.4 0.1-0.7c-1.9-0.3-3.8-0.4-5.7-0.9q-2.8-0.7-5.5-1.5-1.4-0.3-2.8-0.7-1.4-0.5-2.7-1-2.7-0.9-5.4-1.9c-1.8-0.7-3.5-1.6-5.2-2.4-1.7-0.9-3.5-1.6-5.1-2.6q-2.5-1.5-4.9-3c-0.8-0.5-1.7-1-2.5-1.5q-1.1-0.9-2.3-1.7-0.1 0.2-0.3 0.4 1.1 0.9 2.3 1.8zm-2.3-1.8q0.2-0.2 0.3-0.4c-12.3-9.1-22.8-20.8-29.6-34.6q-0.2 0.2-0.5 0.3c6.9 13.8 17.4 25.6 29.8 34.7zm-29.8-34.7q0.3-0.1 0.5-0.3c-6.6-13-10.3-27.6-10.6-42.2q-0.3 0-0.5 0c0.3 14.7 3.9 29.4 10.6 42.5zm-10.6-42.5q0.2 0 0.5 0 0 0 0-0.5 0-0.3 0-0.6-0.1-0.2-0.1-0.4 0-0.1 0-0.2 0-0.1 0-0.2 0 0 0 0 0 0 0 0v-0.1c-0.2 0 0.6 0-0.5 0q0.1 2 0.1 2zm264.7 148.4q0 0 0 1 2 0 2 0 0-1 0-1 0 0-2 0zm23.8 1.8q-2.7-0.4-5.4-0.8c-1.8-0.2-3.6-0.3-5.4-0.5-3.7-0.4-7.4-0.3-11-0.5q0 0 0 1c3.6 0.2 7.3 0.1 10.9 0.5 1.8 0.2 3.6 0.3 5.4 0.5q2.7 0.4 5.4 0.8c7.1 1.2 14 3.3 20.8 6q0.3-0.9 0.3-0.9c-6.7-2.7-13.8-4.8-21-6.1zm42.5 14.8c-7.4-2.4-14.4-5.8-21.5-8.7q0 0-0.3 0.9c7 2.9 14 6.3 21.5 8.7 7.4 2.4 15.1 4.2 22.9 5q0.1-0.9 0.1-0.9c-7.7-0.8-15.3-2.6-22.7-5zm34.1 6q-2.9-0.2-5.7-0.5c-1.9-0.1-3.8-0.2-5.7-0.5q0 0-0.1 0.9c1.9 0.3 3.8 0.4 5.7 0.6q2.9 0.2 5.7 0.4 5.8 0.1 11.5 0.3 0-0.9 0-0.9-5.7-0.2-11.4-0.3zm11.4 0.3q0 0 0 0.9 0 0 0 0 0-0.9 0-0.9 0 0 0 0zm0 0q0 0 0 0.9 11.7 0 23.4-0.1 0-0.9 0-0.9-11.7 0.1-23.4 0.1zm23.4-0.1q0 0 0 0.9 7 0 13.9 0 0-0.9 0-0.9-6.9 0-13.9 0zm13.9 0q0 0 0 0.9 0 0 0 0 0-0.9 0-0.9 0 0 0 0zm0 0q0 0 0 0.9c11 0.1 21.9-4.9 29.1-13.1q-0.7-0.6-0.7-0.6c-7 8-17.6 12.9-28.4 12.8zm28.4-12.8q0 0 0.7 0.6c6.3-7 9.8-16.4 9.8-25.8q-0.8 0-0.8 0c0 9.2-3.5 18.3-9.7 25.2zm9.7-25.2q0 0 0.8 0 0-0.1 0-0.1-0.8 0-0.8 0 0 0 0 0.1zm0-0.1q0 0 0.8 0c-0.1-7-1.9-14-5.6-19.9q-0.7 0.4-0.7 0.4c3.6 5.8 5.4 12.7 5.5 19.5zm-19.3-33c5.6 3.2 10.5 7.9 13.8 13.5q0 0 0.7-0.4c-3.4-5.8-8.3-10.6-14.1-13.9-5.8-3.3-12.5-4.9-19.2-5q0 0.8 0 0.8c6.5 0.1 13.1 1.7 18.8 5zm-18.8-5q0 0 0-0.8 0 0 0 0 0 0.8 0 0.8 0 0 0 0zm0 0q0 0 0-0.8-3.9 0-7.9 0 0 0.8 0 0.8 4 0 7.9 0zm-7.9 0q0 0 0-0.8-23 0-46.1 0.1 0 0.7 0 0.7 23.1 0 46.1 0zm-46.1 0q0 0 0-0.7-23.1 0-46.2 0 0 0.8 0 0.8 23.1 0 46.2-0.1zm-46.2 0.1q0 0 0-0.8-23.1 0-46.2 0.1 0 0.7 0 0.7 23.1 0 46.2 0zm-46.2 0q0 0 0-0.7-23.1 0-46.2 0 0 0.7 0 0.7 23.1 0 46.2 0zm-46.2 0q0 0 0-0.7-23.1 0-46.2 0.1 0 0.7 0 0.7 23.1-0.1 46.2-0.1zm-46.2 0.1q0 0 0-0.7-23.1 0-46.2 0 0 0.7 0 0.7 23.1 0 46.2 0zm-46.2 0q0 0 0-0.7-15.5 0-31 0.1 0 0.6 0 0.6 15.5 0 31 0zm-31 0q0 0 0-0.6 0 0 0 0 0 0.6 0 0.6 0 0 0 0zm0 0q0 0 0-0.6c-5-0.3-10-0.3-14.9-1.3q-0.1 0.6-0.1 0.6c4.9 1 9.9 1 15 1.3zm-54.8-16.8c0.8 0.5 1.7 1 2.5 1.5q2.4 1.5 4.9 3c1.6 1 3.4 1.7 5.1 2.6 1.7 0.8 3.4 1.7 5.2 2.4q2.7 1 5.4 1.9 1.3 0.5 2.7 1 1.4 0.4 2.8 0.7 2.7 0.8 5.5 1.5c1.9 0.5 3.8 0.6 5.7 0.9q0 0 0.1-0.6c-1.9-0.3-3.8-0.4-5.7-0.9q-2.7-0.8-5.5-1.5-1.4-0.3-2.7-0.7-1.4-0.5-2.7-0.9-2.7-1-5.4-2c-1.7-0.7-3.4-1.6-5.1-2.4-1.7-0.9-3.5-1.5-5.1-2.6q-2.5-1.4-4.9-2.9c-0.8-0.5-1.7-1-2.4-1.5q-1.2-0.9-2.3-1.7-0.4 0.5-0.4 0.5 1.2 0.8 2.3 1.7zm-2.3-1.7q0 0 0.4-0.5c-12.2-9-22.7-20.7-29.5-34.3q-0.5 0.2-0.5 0.2c6.8 13.8 17.3 25.5 29.6 34.6zm-29.6-34.6q0 0 0.5-0.2c-6.6-13-10.2-27.5-10.5-42q-0.6 0-0.6 0c0.3 14.6 4 29.2 10.6 42.2zm-10.7-44.2v0.1q0 0 0 0 0 0 0 0 0 0.1 0 0.2 0 0.1 0 0.2 0 0.2 0.1 0.4 0 0.3 0 0.6 0 0.5 0 0.5 0 0 0.6 0 0 0-0.1-0.5 0-0.3 0-0.6 0-0.2 0-0.4 0-0.1 0-0.2 0-0.1 0-0.2 0 0 0 0 0 0 0 0v-0.1c-0.5 0 1 0-1.1 0 1.1 0 0.3 0 0.5 0z"/>
						<path id="&lt;Mesh&gt;" fill-rule="evenodd" class="s5" d="m495.7 614.4q-0.1-0.5-0.1-1 0-0.2 0-0.5 0-0.1 0-0.2 0-0.1 0-0.2 0 0 0 0 0 0 0 0v-0.1h1.1 1.1v0.1q0 0 0 0 0 0 0 0 0 0.1 0 0.2 0 0.1 0 0.2 0 0.2 0 0.5 0 0.5 0.1 1-0.6 0-0.6 0-0.3 0-0.5 0-0.3 0-0.6 0 0 0-0.5 0zm1.5-1.9q0 0 0 0 0 0 0 0zm0 0q0 0.1 0 0.2 0-0.1 0-0.2zm0.1 0.9q0 0.5 0 1 0-0.5 0-1zm-0.6-1zm0 0zm0 0zm0 0z"/>
					</g>
				</g>
				<g id="&lt;Group&gt;">
					<path id="&lt;Compound Path&gt;" fill-rule="evenodd" class="s6" d="m695.2 337.6c-0.3 0.3-0.7 0.6-1.1 0.9-7.8 6.4-15.5 12.7-23.2 19.2-1.1 0.9-1.7 0.8-2.8 0-9.8-7.2-18.3-15.8-25.5-25.6-0.8-1-0.7-1.6 0.1-2.6 6.5-7.7 12.8-15.5 19.3-23.2 0.6-0.8 0.6-1.4 0.2-2.3q-3.5-8.1-6.8-16.3c-0.3-0.9-0.7-1.3-1.7-1.4-9.9-0.9-19.8-1.9-29.7-2.8-1.5-0.1-2.1-0.5-2.4-2.1q-2.7-18.2 0.1-36.3c0.2-1.1 0.6-1.4 1.6-1.5 10.1-0.9 20.2-1.9 30.4-2.9 0.9 0 1.4-0.3 1.7-1.3 1.7-5.8 4-11.4 7-16.7 0.5-0.9 0.1-1.3-0.4-1.9-6.4-7.7-12.8-15.5-19.3-23.2-0.8-1-0.9-1.6-0.1-2.7q10.9-14.9 25.8-25.7c0.9-0.7 1.5-0.7 2.3 0 7.8 6.5 15.6 12.9 23.3 19.3 0.9 0.8 1.5 0.8 2.5 0.3 5.3-2.3 10.7-4.5 16.1-6.6 1-0.4 1.4-0.8 1.5-1.9 0.9-10.1 1.9-20.2 2.9-30.2 0.1-1.2 0.4-1.6 1.6-1.8 12.1-1.9 24.2-1.8 36.4 0.1 1.1 0.2 1.6 0.5 1.7 1.8 0.9 10 1.9 20.1 2.9 30.2 0.1 1.1 0.5 1.5 1.5 1.8q8.1 3.3 16.1 6.7c1 0.4 1.6 0.4 2.4-0.3 7.7-6.4 15.5-12.8 23.2-19.2 1-0.8 1.6-0.9 2.5-0.1 9.9 7.2 18.5 15.8 25.8 25.6 0.8 1.1 0.8 1.7-0.1 2.7-6.4 7.7-12.8 15.5-19.3 23.2-0.7 0.9-0.6 1.5-0.2 2.4q3.4 8.1 6.7 16.2c0.4 0.9 0.7 1.3 1.7 1.4 10.1 0.9 20.1 1.9 30.2 2.9 1.2 0.1 1.7 0.4 1.9 1.6 1.9 12.3 1.9 24.5-0.1 36.7-0.1 1.1-0.6 1.4-1.5 1.5q-13.2 1.2-26.4 2.4c-1.7 0.2-3.8-0.1-5 0.7-1.1 0.9-1.2 3-1.9 4.6-1.8 4.3-3.7 8.6-5.7 12.9-0.4 0.9-0.4 1.4 0.2 2.1 6.5 7.8 12.9 15.6 19.4 23.4 0.8 0.9 0.8 1.5 0.1 2.5-7.3 9.9-15.9 18.6-25.8 25.8-0.9 0.7-1.4 0.7-2.3 0-7.7-6.5-15.5-12.9-23.2-19.3-1-0.8-1.7-0.8-2.8-0.3-5.3 2.3-10.6 4.5-15.9 6.6-1.1 0.4-1.5 0.8-1.6 1.9-0.9 10.1-1.9 20.1-2.8 30.2-0.1 1.2-0.5 1.6-1.6 1.7q-18.1 2.7-36.3 0.1c-1.2-0.2-1.7-0.6-1.8-2-0.9-10-2-20.1-2.9-30.1-0.1-0.9-0.3-1.4-1.3-1.8-5.5-2.1-10.9-4.4-16.3-6.7-0.4-0.2-0.8-0.4-1.3-0.6zm41.6-29.7c23.6 0.3 44-19.5 44.4-43.2 0.4-24.8-18.9-45.2-43.2-45.6-24.7-0.4-45.1 19-45.5 43.2-0.5 25.2 19 45.2 44.3 45.6z"/>
				</g>
				<g id="&lt;Group&gt;">
					<path id="&lt;Compound Path&gt;" fill-rule="evenodd" class="s7" d="m539.3 347.1q-0.3 0.2-0.6 0.5c-4.2 3.4-8.3 6.8-12.5 10.3-0.5 0.4-0.9 0.4-1.5 0q-7.8-5.8-13.6-13.7c-0.4-0.6-0.4-0.9 0-1.4 3.5-4.2 6.9-8.3 10.4-12.5 0.3-0.4 0.3-0.7 0.1-1.2q-1.9-4.4-3.6-8.8c-0.2-0.4-0.5-0.6-1-0.7-5.3-0.5-10.6-1-15.9-1.5-0.8 0-1.1-0.2-1.3-1.1q-1.4-9.7 0.1-19.5c0.1-0.5 0.3-0.7 0.8-0.8 5.5-0.5 10.9-1 16.3-1.5 0.5 0 0.8-0.2 0.9-0.7 1-3.1 2.2-6.1 3.8-9 0.3-0.4 0-0.7-0.2-1q-5.2-6.2-10.4-12.4c-0.4-0.6-0.5-0.9 0-1.5q5.8-7.9 13.8-13.8c0.5-0.3 0.8-0.3 1.3 0.1 4.1 3.4 8.3 6.9 12.4 10.3 0.5 0.4 0.8 0.4 1.4 0.2q4.3-1.9 8.6-3.6c0.5-0.2 0.8-0.4 0.8-1 0.5-5.4 1-10.8 1.5-16.2 0.1-0.6 0.3-0.8 0.9-0.9 6.5-1.1 13-1 19.5 0 0.6 0.1 0.9 0.3 0.9 1 0.5 5.4 1.1 10.8 1.5 16.2 0.1 0.6 0.4 0.7 0.9 1q4.3 1.7 8.6 3.5c0.5 0.3 0.8 0.2 1.3-0.1 4.1-3.5 8.3-6.9 12.4-10.4 0.5-0.4 0.9-0.4 1.4 0q7.9 5.8 13.8 13.8c0.4 0.5 0.4 0.8 0 1.4-3.5 4.1-6.9 8.3-10.4 12.4-0.4 0.5-0.4 0.8-0.1 1.3q1.8 4.3 3.6 8.7c0.2 0.5 0.4 0.7 0.9 0.7 5.4 0.5 10.8 1.1 16.2 1.6 0.6 0 0.9 0.2 1 0.9q1.5 9.8 0 19.6c-0.1 0.6-0.4 0.7-0.9 0.8q-7.1 0.6-14.1 1.3c-0.9 0.1-2-0.1-2.7 0.4-0.6 0.4-0.6 1.6-1 2.4-1 2.3-2 4.7-3.1 6.9-0.2 0.5-0.2 0.8 0.2 1.2 3.4 4.2 6.9 8.4 10.3 12.5 0.4 0.5 0.5 0.8 0.1 1.4q-5.9 8-13.9 13.8c-0.4 0.3-0.7 0.3-1.2 0-4.1-3.5-8.3-6.9-12.4-10.4-0.5-0.4-0.9-0.4-1.5-0.1q-4.2 1.8-8.5 3.5c-0.6 0.2-0.8 0.4-0.9 1-0.5 5.4-1 10.8-1.5 16.2 0 0.7-0.3 0.9-0.9 0.9q-9.7 1.5-19.4 0.1c-0.6-0.1-0.9-0.4-1-1.1-0.5-5.4-1-10.7-1.5-16.1-0.1-0.5-0.2-0.8-0.7-1-2.9-1.1-5.8-2.4-8.8-3.6-0.2-0.1-0.4-0.2-0.6-0.3zm22.3-15.9c12.6 0.2 23.5-10.4 23.7-23.2 0.3-13.3-10.1-24.2-23.1-24.4-13.2-0.2-24.2 10.2-24.4 23.1-0.2 13.5 10.2 24.3 23.8 24.5z"/>
				</g>
				<path id="&lt;Path&gt;" fill-rule="evenodd" class="s8" d="m319.8 342.2l185-191.1 257.7 137.7"/>
				<path id="&lt;Path&gt;" fill-rule="evenodd" class="s9" d="m353.3 343.2l151.5-192.1 214.7 145.9"/>
				<g id="&lt;Group&gt;" style="opacity: .5">
					<g id="&lt;Group&gt;">
						<path id="&lt;Path&gt;" class="s10" d="m232.5 582.8h64.1c6.5-7.5 10.4-17.2 10.4-27.8 0-8.8 3.5-17.3 9.9-23.4 14.4-13.8 23.4-33.2 23.4-54.8 0-41.6-33.5-75.3-75-75.7-40.3-0.3-74.3 31.6-76.4 71.8-1.1 23.1 8.1 44.1 23.4 58.7 6.4 6.1 9.8 14.6 9.8 23.4 0 10.6 4 20.3 10.4 27.8z"/>
						<g id="&lt;Group&gt;">
							<g id="&lt;Group&gt;">
								<g id="&lt;Clip Group&gt;" clip-path="url(#cp5)">
									<path id="&lt;Mesh&gt;" class="s11" d="m210.2 520.7q1.7-0.9 1.7-0.9c0 0-4.3-9.5-6.6-14.2q0 0-1.8 0.8c2.3 4.8 6.7 14.3 6.7 14.3zm-6.7-14.3q1.8-0.8 1.8-0.8-0.4-0.9-0.9-1.8 0 0-1.8 0.8 0.5 0.9 0.9 1.8zm8.4 13.4q0.9-0.4 1.8-0.8c0 0-4.4-9.6-6.6-14.3q-0.9 0.5-1.8 0.9c2.3 4.7 6.6 14.2 6.6 14.2zm-6.6-14.2q0.9-0.4 1.8-0.9-0.5-0.9-0.9-1.7-0.9 0.4-1.8 0.8 0.5 0.9 0.9 1.8zm8.4 13.4q0.9-0.4 1.8-0.9c0 0-4.4-9.5-6.7-14.2q-0.9 0.4-1.7 0.8c2.2 4.7 6.6 14.3 6.6 14.3zm-6.6-14.3q0.8-0.4 1.7-0.8-0.4-0.9-0.8-1.8-0.9 0.5-1.8 0.9 0.4 0.8 0.9 1.7zm8.4 13.4q0 0 1.7-0.8c0 0-4.3-9.6-6.6-14.3q-1.8 0.9-1.8 0.9c2.3 4.7 6.7 14.2 6.7 14.2zm-6.7-14.2q0 0 1.8-0.9-0.4-0.8-0.8-1.7-1.8 0.8-1.8 0.8 0.4 0.9 0.8 1.8z"/>
								</g>
								<path id="&lt;Mesh&gt;" class="s12" d="m203.5 506.4q1.8-0.8 1.8-0.8-0.9-1.8-0.9-1.8 0 0-1.8 0.8 0 0 0.9 1.8zm-0.9-1.8q1.8-0.8 1.8-0.8c-3.6-8.2-5.6-17.2-5.7-26.2q0 0-2 0c0.1 9.3 2.2 18.5 5.9 27zm-5.9-27q2 0 2 0 0-2.1 0.1-4.2 0 0-2-0.1-0.1 2.2-0.1 4.3zm0.1-4.3q2 0.1 2 0.1 0 0 0 0 0 0-2-0.1 0 0 0 0zm20.5-44.8c-12 11.7-19.7 27.9-20.5 44.8q2 0.1 2 0.1c0.8-16.4 8.2-32.1 19.9-43.5 11.6-11.4 27.5-18.4 43.9-18.9q0 0-0.1-1.9c-16.9 0.4-33.2 7.7-45.2 19.4zm45.2-19.4q0.1 1.9 0.1 1.9 0 0 2-0.1 0 0 0-1.9-2.1 0.1-2.1 0.1zm-57.2 96.5q0.9-0.4 1.8-0.9-0.9-1.7-0.9-1.7-0.9 0.4-1.8 0.8 0 0 0.9 1.8zm-0.9-1.8q0.9-0.4 1.8-0.8c-3.5-8-5.4-16.7-5.6-25.4q-0.9 0-1.9 0c0.1 9 2.1 18 5.7 26.2zm-5.7-26.2q1 0 1.9 0 0-2 0.1-4.1-1 0-1.9-0.1-0.1 2.1-0.1 4.2zm0.1-4.2q0.9 0.1 1.9 0.1 0 0 0 0-1-0.1-1.9-0.1 0 0 0 0zm19.9-43.5c-11.7 11.4-19.1 27.1-19.9 43.5q0.9 0 1.9 0.1c0.8-15.9 8-31.1 19.4-42.2 11.2-11 26.7-17.9 42.5-18.3q0-1 0-2c-16.4 0.5-32.3 7.5-43.9 18.9zm43.9-18.9q0 1 0 2 0 0 2-0.1 0-1 0-2-2 0.1-2 0.1zm-55.5 93.7q0.8-0.4 1.7-0.8-0.8-1.8-0.8-1.8-0.9 0.5-1.8 0.9 0 0 0.9 1.7zm-0.9-1.7q0.9-0.4 1.8-0.9c-3.4-7.7-5.3-16.1-5.4-24.5q-1 0-2 0c0.2 8.7 2.1 17.4 5.6 25.4zm-5.6-25.4q1 0 2 0 0-2 0.1-4-1 0-2-0.1-0.1 2.1-0.1 4.1zm0.1-4.1q1 0.1 2 0.1 0 0 0 0-1-0.1-2-0.1 0 0 0 0zm19.4-42.2c-11.4 11.1-18.6 26.3-19.4 42.2q1 0 2 0.1c0.7-15.3 7.7-30.2 18.7-40.8 11-10.8 26-17.4 41.3-17.8q0-1-0.1-2c-15.8 0.4-31.3 7.3-42.5 18.3zm42.5-18.3q0.1 1 0.1 2 0 0 1.9-0.1 0-1 0-2-2 0.1-2 0.1zm-53.8 90.9q0 0 1.8-0.9-0.8-1.7-0.8-1.7-1.8 0.8-1.8 0.8 0 0 0.8 1.8zm-0.8-1.8q0 0 1.8-0.8c-3.3-7.4-5.1-15.6-5.2-23.8q-2 0.1-2 0.1c0.1 8.4 2 16.8 5.4 24.5zm-5.4-24.5q0 0 2-0.1 0-1.9 0-3.8-1.9-0.1-1.9-0.1-0.1 2-0.1 4zm0.1-4q0 0 1.9 0.1 0 0 0 0-1.9-0.1-1.9-0.1 0 0 0 0zm18.7-40.8c-11 10.6-18 25.5-18.7 40.8q0 0 1.9 0.1c0.8-14.8 7.5-29.2 18.2-39.5 10.6-10.5 25.1-16.9 40-17.3q-0.1-1.9-0.1-1.9c-15.3 0.4-30.3 7-41.3 17.8zm41.3-17.8q0 0 0.1 1.9 0 0 1.8-0.1 0-1.9 0-1.9-1.9 0.1-1.9 0.1z"/>
								<g id="&lt;Clip Group&gt;" clip-path="url(#cp6)">
									<path id="&lt;Mesh&gt;" class="s13" d="m262.5 409.1q0.1 1.9 0.1 1.9 1 0 2-0.1 0 0 0-1.9-1.1 0-2.1 0.1zm2.1-0.1q0 1.9 0 1.9c5.2 0 15.7-0.7 15.7-0.7q0 0 0-2c0 0-10.5 0.8-15.7 0.8zm-2 2q0 1 0 2 1-0.1 2-0.1 0-1 0-2-1 0.1-2 0.1zm2-0.1q0 1 0 2c5.2 0 15.7-0.8 15.7-0.8q0-1 0-1.9c0 0-10.5 0.7-15.7 0.7zm-2 2.1q0.1 1 0.1 2 0.9-0.1 1.9-0.1 0-1 0-2-1 0-2 0.1zm2-0.1q0 1 0 2c5.2 0 15.7-0.8 15.7-0.8q0-1 0-2c0 0-10.5 0.8-15.7 0.8zm-1.9 2.1q0 0 0.1 1.9 0.9 0 1.8-0.1 0-1.9 0-1.9-1 0-1.9 0.1zm1.9-0.1q0 0 0 1.9c5.2 0 15.7-0.8 15.7-0.8q0-1.9 0-1.9c0 0-10.5 0.8-15.7 0.8z"/>
								</g>
							</g>
						</g>
						<path id="&lt;Path&gt;" class="s14" d="m276.7 638.9h-24.2c-11.9 0-21.6-9.7-21.6-21.6v-29h67.3v29c0 11.9-9.6 21.6-21.5 21.6z"/>
						<path id="&lt;Path&gt;" class="s15" d="m299.1 597.3l-69 4.7c-1.8 0.2-3.3-1.2-3.3-3 0-1.8 1.5-3.3 3.3-3.5l69-4.7c1.8-0.1 3.2 1.3 3.2 3 0 1.8-1.4 3.4-3.2 3.5z"/>
						<path id="&lt;Path&gt;" class="s16" d="m299.4 589.7h-69.7c-0.5 0-1-0.4-1-1v-7.3c0-0.6 0.5-1 1-1h69.7c0.6 0 1 0.4 1 1v7.3c0 0.6-0.4 1-1 1z"/>
					</g>
					<path id="&lt;Path&gt;" class="s17" d="m299.1 613.3l-69 4.7c-1.8 0.1-3.3-1.2-3.3-3 0-1.8 1.5-3.4 3.3-3.5l69-4.7c1.8-0.1 3.2 1.2 3.2 3 0 1.8-1.4 3.4-3.2 3.5z"/>
					<path id="&lt;Path&gt;" class="s18" d="m294.9 629.6l-60.6 4.2c-1.9 0.1-3.4-1.3-3.4-3.1 0-1.9 1.5-3.5 3.4-3.6l60.6-4.2c1.8-0.1 3.3 1.3 3.3 3.2 0 1.8-1.5 3.4-3.3 3.5z"/>
				</g>
				<g id="&lt;Group&gt;">
					<path id="&lt;Path&gt;" class="s19" d="m652 724.8h-73v-41.6h-42v41.6h-73c-9 0-16.3 7.3-16.3 16.3h220.6c0-9-7.3-16.3-16.3-16.3z"/>
					<path id="&lt;Path&gt;" class="s20" d="m571.8 642.8h7.2v40.4h-7.2z"/>
					<path id="&lt;Path&gt;" class="s21" d="m537 663h7.3v20.2h-7.3z"/>
					<path id="&lt;Path&gt;" class="s22" d="m544.3 673.1h7.3v10.1h-7.3z"/>
				</g>
				<path id="&lt;Compound Path&gt;" fill-rule="evenodd" class="s23" d="m506.5 149.2c-0.1-0.3-0.2-0.7-0.4-1l-8.7-14c0.2-0.3 0.3-0.6 0.3-1 0-1.3-1-2.3-2.2-2.3h-341c-0.1 0-0.3 0.1-0.4 0.1v-8.2h-41.7v13.4 5.4 30.4 9.4h-0.1v559.7h4.4v-7.8q0.1 0 0.2-0.1l16.2-16.2 16.1 16.2c0.1 0.1 0.2 0.1 0.3 0.2v7.7h4.5v-550.3h0.1v-18.8-19.3c0.1 0 0.3 0.1 0.4 0.1h350.2c1.2 0 2.2-1 2.2-2.3 0-0.5-0.2-0.9-0.4-1.3zm-21.4-4.5l-5.9-9.3h11.7zm-18.9 0l-5.8-9.3h11.6zm-18.8 0l-5.9-9.3h11.7zm-18.9 0l-5.8-9.4h11.6zm-18.9 0l-5.8-9.3h11.7zm-18.9 0l-5.8-9.3h11.6zm-19.2 0.5l-6.1-9.8h12.3zm-19.5 0l-6.1-9.8h12.2zm-19.5 0l-6.1-9.8h12.3zm-19.5 0l-6.1-9.8h12.2zm-19.5 0l-6.1-9.8h12.3zm-19.5 0l-6.1-9.8h12.2zm-19.5 0l-6.1-9.7h12.3zm-19.5 0l-6.1-9.8h12.2zm-19.5 0l-6.1-9.8h12.3zm-19.5 0l-6.1-9.8h12.2zm-19.5 0l-6.1-9.8h12.3zm-3.4 3.1h-12.8l6.4-10.3zm13.1-10.2l6.4 10.2h-12.8zm19.4 0l6.4 10.3h-12.8zm19.5 0l6.4 10.3h-12.8zm19.4 0l6.5 10.2h-12.9zm19.5 0l6.4 10.3h-12.8zm19.4 0l6.5 10.3h-12.9zm19.5 0l6.4 10.2h-12.8zm19.5 0l6.4 10.3h-12.9zm19.5 0l6.4 10.3h-12.8zm19.5 0l6.4 10.2h-12.9zm19.5 0l6.4 10.3h-12.8zm18.9 0l6.4 10.3h-12.8zm18.8 0l6.5 10.2h-12.9zm18.9 0l6.4 10.3h-12.8zm18.9 0l6.4 10.3h-12.9zm18.9 0l6.4 10.2h-12.8zm18.9 0l6.4 10.3h-12.8zm-358.2 537l13.2-13.1v26.2zm-19.7-25.7v-25.9l13 13zm0.3-32.4l16-16 16 16-16 16zm-0.3-6.3v-26l13 13zm0.3-32.3l16-16 16 16-16 16zm-0.3-6.4v-25.9l13 13zm0.3-32.4l16-16 16 16-16 16zm-0.3-6.3v-26l13 13zm0.3-32.3l16-16 16 16-16 16zm-0.3-6.4v-25.9l13 13zm0.3-32.4l16-16 16 16-16 16.1zm-0.3-6.4v-26l13 13zm0.3-32.3l16-16 16 16-16 16zm-0.3-6.3v-26l13 13zm0.3-32.4l16-16 16 16-16 16.1zm-0.3-6.4v-26l13 13zm0.3-32.3l16-16 16 16-16 16zm-0.3-6.3v-26l13 13zm0.3-32.4l16-16 16 16-16 16.1zm-0.3-6.4v-26l13 13zm0.3-32.3l16-16 16 16-16 16zm-0.3-6.3v-26l13 13zm0 425.4v-26l13 13zm0.3-32.3l16-16 16 16-16 16zm19.3-19.4l13.2-13.1v26.3zm0-38.7l13.1-13.1v26.2zm0-38.6l13.2-13.2v26.3zm0-38.7l13.1-13.1v26.3zm0-38.7l13.1-13.1v26.2zm0-38.6l13.2-13.2v26.3zm0-38.7l13.1-13.1v26.3zm0-38.7l13.1-13.1v26.2zm0-38.6l13.2-13.2v26.3zm0-38.7l13.1-13.1v26.3zm0-38.7l13.1-13.2v26.3zm-3.3-3.3l-16-16 16-16 16 16zm-16.3-22.4v-26l13 13zm16.3 454.4l16 16.1-16 16-16-16zm16.5-454.3l-13.2-13.1 13.2-13.2zm-0.3-32.6l-16.2 16.2-16.2-16.2q0-0.1-0.1-0.1v-0.6h0.5 32 0.3v0.5c-0.1 0.1-0.2 0.1-0.3 0.2zm-32.5 535.2v-26l13 13zm19.6-13l13.2-13.1v26.3zm-19.2-541.7v-30.4h32v30.4zm36.8-23.6v-6.8-5.4-0.9c0.2 0 0.3 0.1 0.5 0.1h8.9l-8.1 12.8q0 0 0 0.1h-0.8c-0.2 0-0.3 0-0.5 0.1z"/>
				<g id="&lt;Group&gt;">
					<path id="&lt;Path&gt;" fill-rule="evenodd" class="s24" d="m536.2 603.6c0 0 90.3 15.5 78.3 98.8"/>
					<g id="&lt;Group&gt;">
						<g id="&lt;Group&gt;">
							<g id="&lt;Clip Group&gt;" clip-path="url(#cp7)">
								<path id="&lt;Mesh&gt;" class="s25" d="m-42.7 783.4q0 0.9 0 0.9c0 0 5.3 0 7.9 0q0 0 0-0.9c-2.6 0-7.9 0-7.9 0zm7.9 0q0 0.9 0 0.9 1 0 1.9 0 0 0 0-0.9-0.9 0-1.9 0zm-7.9 0.9q0 0.5 0 1c0 0 5.3 0 7.9 0q0-0.5 0-1c-2.6 0-7.9 0-7.9 0zm7.9 0q0 0.5 0 1 1 0 1.9 0 0-0.5 0-1-0.9 0-1.9 0zm-7.9 1q0 0.5 0 1c0 0 5.3 0 7.9 0q0-0.5 0-1c-2.6 0-7.9 0-7.9 0zm7.9 0q0 0.5 0 1 1 0 1.9 0 0-0.5 0-1-0.9 0-1.9 0zm-7.9 1q0 0 0 1c0 0 5.3 0 7.9 0q0-1 0-1c-2.6 0-7.9 0-7.9 0zm7.9 0q0 0 0 1 1 0 1.9 0 0-1 0-1-0.9 0-1.9 0z"/>
							</g>
							<path id="&lt;Mesh&gt;" class="s26" d="m-34.8 783.4q0 0.9 0 0.9 1.9 0 1.9 0 0 0 0-0.9 0 0-1.9 0zm1.9 0q0 0.9 0 0.9 233.8 0 467.6 0 0 0 0-0.9-233.8 0-467.6 0zm467.6 0q0 0.9 0 0.9 0 0 0 0 0 0 0-0.9 0 0 0 0zm0 0q0 0.9 0 0.9c9.8 0 19.5-0.4 29.2-1.2q0 0-0.1-0.9c-9.6 0.8-19.4 1.1-29.1 1.2zm178.2-82.3c-4.1 9-9.5 17.3-15.7 24.9-6.3 7.6-13.6 14.2-21.5 20.1q-3.1 2.1-6.1 4.2-3.1 2-6.3 3.9c-2.1 1.3-4.3 2.4-6.5 3.6-2.2 1.1-4.4 2.3-6.6 3.3-9 4.2-18.3 7.6-27.8 10.4-9.5 2.9-19.2 5.1-29 6.8q-14.7 2.6-29.6 3.9 0.1 0.9 0.1 0.9 14.9-1.2 29.7-3.8c9.8-1.7 19.5-3.9 29.1-6.8 9.5-2.9 18.9-6.3 27.9-10.6 2.3-0.9 4.5-2.1 6.7-3.3 2.1-1.2 4.4-2.2 6.5-3.6q3.2-1.9 6.4-3.8 3-2.2 6.1-4.3c7.9-6 15.3-12.6 21.7-20.3 6.2-7.7 11.6-16 15.8-25.1 8.2-18.1 11.5-38.1 11.5-58q0 0-1 0c0 19.8-3.3 39.7-11.4 57.6zm11.4-57.6q1 0 1 0c-0.2-19.8-3.4-39.5-8.4-58.7q0 0-1 0.3c5.1 19.1 8.2 38.8 8.4 58.4zm-8.4-58.4q1-0.3 1-0.3 0 0-0.5-1.9 0 0-0.9 0.3 0.4 1.9 0.4 1.9zm-650.7 199.2q0 0.5 0 1 1.9 0 1.9 0 0-0.5 0-1 0 0-1.9 0zm1.9 0q0 0.5 0 1 233.8 0 467.6 0 0-0.5 0-1-233.8 0-467.6 0zm467.6 0q0 0.5 0 1 0 0 0 0 0-0.5 0-1 0 0 0 0zm0 0q0 0.5 0 1c9.8 0 19.6-0.4 29.3-1.2q0-0.5-0.1-1c-9.7 0.8-19.4 1.2-29.2 1.2zm179.1-82.8c-4.2 9.1-9.6 17.4-15.8 25.1-6.4 7.7-13.8 14.3-21.7 20.3q-3.1 2.1-6.1 4.3-3.2 1.9-6.4 3.8c-2.1 1.4-4.4 2.4-6.5 3.6-2.2 1.2-4.4 2.4-6.7 3.3-9 4.3-18.4 7.7-27.9 10.6-9.6 2.9-19.3 5.1-29.1 6.8q-14.8 2.6-29.7 3.8 0.1 0.5 0.1 1 15-1.2 29.8-3.8c9.8-1.7 19.6-4 29.1-6.9 9.6-2.9 19.1-6.2 28.1-10.6 2.3-1 4.5-2.1 6.7-3.3 2.2-1.2 4.5-2.3 6.6-3.6q3.2-2 6.4-3.9 3.1-2.2 6.1-4.3c8-6 15.5-12.7 21.9-20.4 6.3-7.8 11.8-16.2 16-25.4 8.2-18.2 11.6-38.4 11.6-58.4q-0.5 0-1 0c0 19.9-3.3 39.9-11.5 58zm11.5-58q0.5 0 1 0c-0.3-19.9-3.4-39.7-8.5-58.9q-0.5 0.1-0.9 0.2c5 19.2 8.2 38.9 8.4 58.7zm-8.4-58.7q0.4-0.1 0.9-0.2 0 0-0.4-1.9-0.5 0.1-1 0.2 0.5 1.9 0.5 1.9zm-651.7 200.5q0 0.5 0 1 1.9 0 1.9 0 0-0.5 0-1 0 0-1.9 0zm1.9 0q0 0.5 0 1 233.8 0 467.6 0 0-0.5 0-1-233.8 0-467.6 0zm467.6 0q0 0.5 0 1 0 0 0 0 0-0.5 0-1 0 0 0 0zm0 0q0 0.5 0 1c9.8 0 19.6-0.4 29.4-1.2q-0.1-0.5-0.1-1c-9.7 0.8-19.5 1.2-29.3 1.2zm180-83.4c-4.2 9.2-9.7 17.6-16 25.4-6.4 7.7-13.9 14.4-21.9 20.4q-3 2.1-6.1 4.3-3.2 1.9-6.4 3.9c-2.1 1.3-4.4 2.4-6.6 3.6-2.2 1.2-4.4 2.3-6.7 3.3-9 4.4-18.5 7.7-28.1 10.6-9.5 2.9-19.3 5.2-29.1 6.9q-14.8 2.6-29.8 3.8 0 0.5 0.1 1 15-1.3 29.8-3.9c9.9-1.7 19.7-3.9 29.3-6.8 9.6-2.9 19.1-6.3 28.2-10.7 2.3-1 4.5-2.2 6.8-3.3 2.2-1.2 4.5-2.3 6.6-3.7q3.2-1.9 6.4-3.9 3.1-2.2 6.2-4.3c8.1-6.1 15.6-12.8 22.1-20.6 6.3-7.8 11.9-16.4 16.1-25.5 8.3-18.5 11.7-38.8 11.6-58.9q-0.4 0-0.9 0c0 20-3.4 40.2-11.6 58.4zm11.6-58.4q0.5 0 0.9 0c-0.2-20-3.3-39.9-8.4-59.1q-0.5 0.1-1 0.2c5.1 19.2 8.2 39 8.5 58.9zm-8.5-58.9q0.5-0.1 1-0.2 0 0-0.5-2-0.5 0.2-0.9 0.3 0.4 1.9 0.4 1.9zm-652.6 201.7q0 0 0 1 1.9 0 1.9 0 0-1 0-1 0 0-1.9 0zm1.9 0q0 0 0 1 233.8 0 467.6 0 0-1 0-1-233.8 0-467.6 0zm467.6 0q0 0 0 1 0 0 0 0 0-1 0-1 0 0 0 0zm0 0q0 0 0 1c9.8 0 19.7-0.4 29.5-1.2q-0.1-1-0.1-1c-9.8 0.8-19.6 1.2-29.4 1.2zm180.9-83.9c-4.2 9.1-9.8 17.7-16.1 25.5-6.5 7.8-14 14.5-22.1 20.6q-3.1 2.1-6.2 4.3-3.2 2-6.4 3.9c-2.1 1.4-4.4 2.5-6.6 3.7-2.3 1.1-4.5 2.3-6.8 3.3-9.1 4.4-18.6 7.8-28.2 10.7-9.6 2.9-19.4 5.1-29.3 6.8q-14.8 2.6-29.8 3.9 0 0 0.1 1 15-1.3 29.9-3.9c9.9-1.7 19.8-4 29.4-6.9 9.7-2.9 19.2-6.3 28.3-10.7 2.4-1 4.6-2.2 6.8-3.4 2.2-1.2 4.5-2.3 6.7-3.6q3.2-2 6.5-4 3.1-2.2 6.2-4.3c8.1-6.1 15.7-13 22.2-20.8 6.4-7.9 12-16.5 16.3-25.7 8.4-18.6 11.7-39.1 11.7-59.3q-1 0-1 0c0.1 20.1-3.3 40.4-11.6 58.9zm11.6-58.9q0 0 1 0c-0.2-20.1-3.4-40.1-8.5-59.4q-0.9 0.3-0.9 0.3c5.1 19.2 8.2 39.1 8.4 59.1zm-8.4-59.1q0 0 0.9-0.3 0 0-0.4-1.9-1 0.2-1 0.2 0.5 2 0.5 2z"/>
							<g id="&lt;Clip Group&gt;" clip-path="url(#cp8)">
								<path id="&lt;Mesh&gt;" class="s27" d="m615.9 585.1q1-0.3 1-0.3-0.3-0.9-0.5-1.9 0 0-0.9 0.3 0.2 0.9 0.4 1.9zm-0.4-1.9q0.9-0.3 0.9-0.3c-0.7-2.5-1.8-7.6-1.8-7.6q0 0-1 0.2c0 0 1.2 5.2 1.9 7.7zm1.4 1.6q0.4-0.1 0.9-0.2-0.2-1-0.4-1.9-0.5 0.1-1 0.2 0.2 1 0.5 1.9zm-0.5-1.9q0.5-0.1 1-0.2c-0.7-2.5-1.9-7.7-1.9-7.7q-0.4 0.2-0.9 0.3c0 0 1.1 5.1 1.8 7.6zm1.4 1.7q0.5-0.1 1-0.2-0.3-1-0.5-2-0.5 0.2-0.9 0.3 0.2 0.9 0.4 1.9zm-0.4-1.9q0.4-0.1 0.9-0.3c-0.7-2.5-1.8-7.6-1.8-7.6q-0.5 0.1-1 0.2c0 0 1.2 5.2 1.9 7.7zm1.4 1.7q0 0 0.9-0.3-0.2-1-0.4-1.9-1 0.2-1 0.2 0.2 1 0.5 2zm-0.5-2q0 0 1-0.2c-0.7-2.5-1.9-7.7-1.9-7.7q-0.9 0.3-0.9 0.3c0 0 1.1 5.1 1.8 7.6z"/>
							</g>
						</g>
					</g>
				</g>
				<g id="&lt;Group&gt;">
					<path id="&lt;Path&gt;" class="s28" d="m790.7 590.1l-429 51.2c-5.4 0.7-10.3-3.2-11-8.5l-34-284.7c-0.6-5.4 3.2-10.2 8.6-10.9l429.1-51.2c5.4-0.7 10.3 3.2 10.9 8.6l34 284.6c0.7 5.4-3.2 10.2-8.6 10.9z"/>
					<path id="&lt;Path&gt;" class="s29" d="m364.6 626.3l-32.9-275.2 419.7-50.1 32.9 275.2z"/>
					<path id="&lt;Path&gt;" class="s30" d="m403.3 592.8l-26.1-218.2 335.6-40.1 26 218.2z"/>
					<path id="&lt;Path&gt;" class="s31" d="m417.8 553.4l-17.4-145.5c-0.3-2.2 1.3-4.2 3.4-4.4l152.5-18.2c2.2-0.3 4.2 1.2 4.4 3.4l17.4 145.5c0.2 2.2-1.3 4.1-3.4 4.4l-152.6 18.2c-2.1 0.3-4.1-1.3-4.3-3.4z"/>
					<path id="&lt;Path&gt;" class="s32" d="m590.7 531.8l-5.3-44.5c-0.2-2.1 1.3-4.1 3.4-4.3l125-15c2.2-0.2 4.1 1.3 4.4 3.5l5.3 44.5c0.3 2.1-1.3 4.1-3.4 4.3l-125 15c-2.2 0.2-4.1-1.3-4.4-3.5z"/>
					<path id="&lt;Path&gt;" class="s33" d="m378.9 388.5l-1.7-13.9 335.6-40.1 1.6 13.9z"/>
				</g>
				<g id="&lt;Group&gt;">
					<g id="&lt;Group&gt;">
						<path id="&lt;Path&gt;" class="s34" d="m758.1 448.2l11.7 33.9c0 0-13.1 3.6-12.6 12.3 0.6 8.8 5.3 32.5 5.3 32.5h-6.6l-15.8-40.7c-3.8-9.9-0.9-20.7 7.4-28.4z"/>
						<path id="&lt;Path&gt;" class="s35" d="m854.8 486.2l-15.8 40.6h-6.6c0 0 4.7-23.6 5.3-32.4 0.2-3.4-1.8-6.1-4.2-8-3.6-3-8.3-4.3-8.3-4.3l11.6-33.9 2.9 2.6 7.7 7c8.3 7.7 11.2 18.5 7.4 28.4z"/>
						<path id="&lt;Path&gt;" class="s36" d="m839.7 450.8c1.9 11.3-0.6 25.1-6.2 35.6-3.6-3-8.3-4.3-8.3-4.3l11.6-33.9z"/>
						<g id="&lt;Group&gt;">
							<path id="&lt;Path&gt;" class="s37" d="m804.2 320c-4-3.6-10-3.6-14 0-7.3 6.6-18.9 19-27.5 37.1h69c-8.6-18.1-20.2-30.5-27.5-37.1z"/>
							<path id="&lt;Path&gt;" class="s38" d="m762.7 357.1c-6.4 13.6-11.2 30.5-11.2 50.6 0 38.9 12.3 67.6 12.3 67.6h33.4 33.4c0 0 12.3-28.7 12.3-67.6 0-20.1-4.8-37-11.2-50.6z"/>
						</g>
						<path id="&lt;Path&gt;" class="s39" d="m830.5 475.3l-7.2 21h-52.2l-7.2-21z"/>
						<path id="&lt;Path&gt;" class="s40" d="m819.5 389.3c0 11.5-9.3 20.9-20.8 20.9-11.6 0-20.9-9.4-20.9-20.9 0-11.5 9.3-20.9 20.9-20.9 11.5 0 20.8 9.4 20.8 20.9z"/>
						<g id="&lt;Group&gt;">
							<path id="&lt;Path&gt;" class="s41" d="m817.4 387c0 11.2-9 20.3-20.2 20.3-11.2 0-20.2-9.1-20.2-20.3 0-11.2 9-20.2 20.2-20.2 11.2 0 20.2 9 20.2 20.2z"/>
							<path id="&lt;Compound Path&gt;" fill-rule="evenodd" class="s42" d="m817.4 387c0 11.2-9 20.3-20.2 20.3-11.2 0-20.2-9.1-20.2-20.3 0-11.2 9-20.2 20.2-20.2 11.2 0 20.2 9 20.2 20.2zm-39.5 0c0 10.6 8.7 19.3 19.3 19.3 10.6 0 19.3-8.7 19.3-19.3 0-10.6-8.7-19.2-19.3-19.2-10.6 0-19.3 8.6-19.3 19.2z"/>
						</g>
						<path id="&lt;Path&gt;" class="s43" d="m811.6 387c0 8-6.4 14.4-14.4 14.4-8 0-14.4-6.4-14.4-14.4 0-7.9 6.4-14.4 14.4-14.4 8 0 14.4 6.5 14.4 14.4z"/>
						<path id="&lt;Path&gt;" class="s44" d="m793.6 382.8c-2 2-4.6 2.7-5.7 1.5-1.2-1.1-0.5-3.7 1.6-5.7 2-2 4.5-2.7 5.7-1.6 1.1 1.2 0.4 3.7-1.6 5.8z"/>
						<g id="&lt;Group&gt;" style="opacity: .3;mix-blend-mode: multiply">
							<path id="&lt;Path&gt;" class="s45" d="m771.7 496.3h-0.6l-7.2-21h0.8z"/>
							<path id="&lt;Path&gt;" class="s46" d="m777.1 496.3h-2.4l-6.2-21h3z"/>
							<path id="&lt;Path&gt;" class="s47" d="m782.4 496.3h-2.4l-4.7-21h3z"/>
							<path id="&lt;Path&gt;" class="s48" d="m787.7 496.3h-2.4l-3.2-21h3z"/>
							<path id="&lt;Path&gt;" class="s49" d="m793.1 496.3h-2.4l-1.8-21h3z"/>
							<path id="&lt;Path&gt;" class="s50" d="m798.7 475.3l-0.3 21h-2.4l-0.3-21z"/>
							<path id="&lt;Path&gt;" class="s51" d="m805.5 475.3l-1.8 21h-2.4l1.2-21z"/>
							<path id="&lt;Path&gt;" class="s52" d="m812.3 475.3l-3.2 21h-2.4l2.6-21z"/>
							<path id="&lt;Path&gt;" class="s53" d="m819.1 475.3l-4.7 21h-2.4l4.1-21z"/>
							<path id="&lt;Path&gt;" class="s54" d="m825.9 475.3l-6.2 21h-2.4l5.6-21z"/>
							<path id="&lt;Path&gt;" class="s55" d="m830.5 475.3l-7.2 21h-0.7l7.1-21z"/>
						</g>
						<path id="&lt;Path&gt;" class="s56" d="m796.4 526.9c-1.1 0-1.9-0.7-2-1.6l-2.6-73.8c-0.1-2.2 2-4 4.6-4 2.6 0 4.7 1.8 4.6 4l-2.6 73.8c-0.1 0.9-0.9 1.6-2 1.6z"/>
					</g>
					<g id="&lt;Group&gt;">
						<path id="&lt;Path&gt;" class="s57" d="m734.6 609.8h-30.2c-3.2 0-5.8-2.6-5.8-5.9v-30.1c0-3.3 2.6-5.9 5.8-5.9h30.2c3.2 0 5.9 2.6 5.9 5.9v30.1c0 3.3-2.7 5.9-5.9 5.9z"/>
						<path id="&lt;Path&gt;" class="s58" d="m726.7 609.8h-30.1c-3.3 0-5.9-2.6-5.9-5.9v-30.1c0-3.3 2.6-5.9 5.9-5.9h30.1c3.3 0 5.9 2.6 5.9 5.9v30.1c0 3.3-2.6 5.9-5.9 5.9z"/>
					</g>
					<g id="&lt;Group&gt;">
						<path id="&lt;Path&gt;" class="s59" d="m722.5 606.8h139.2c3.3 0 5.9 2.6 5.9 5.8v122.6c0 3.2-2.6 5.9-5.9 5.9h-139.2c-3.3 0-5.9-2.7-5.9-5.9v-122.6c0-3.2 2.6-5.8 5.9-5.8z"/>
						<path id="&lt;Path&gt;" class="s60" d="m696.6 606.8h139.3c3.2 0 5.9 2.6 5.9 5.8v122.6c0 3.2-2.7 5.9-5.9 5.9h-139.3c-3.3 0-5.9-2.7-5.9-5.9v-122.6c0-3.2 2.6-5.8 5.9-5.8z"/>
					</g>
					<g id="&lt;Group&gt;">
						<path id="&lt;Path&gt;" class="s61" d="m768.4 525.7h79.4c3.3 0 5.9 2.6 5.9 5.9v69.3c0 3.2-2.6 5.9-5.9 5.9h-79.4c-3.3 0-5.9-2.7-5.9-5.9v-69.3c0-3.3 2.6-5.9 5.9-5.9z"/>
						<path id="&lt;Path&gt;" class="s62" d="m749.9 525.7h79.4c3.3 0 5.9 2.6 5.9 5.9v69.3c0 3.2-2.6 5.9-5.9 5.9h-79.4c-3.2 0-5.8-2.7-5.8-5.9v-69.3c0-3.3 2.6-5.9 5.8-5.9z"/>
					</g>
					<path id="&lt;Path&gt;" class="s63" d="m867.4 748.6h-115.2c-8.7 0-15.7-7-15.7-15.7 0-8.7 7-15.7 15.7-15.7h115.2c8.7 0 15.8 7 15.8 15.7 0 8.7-7.1 15.7-15.8 15.7z"/>
					<path id="&lt;Path&gt;" class="s64" d="m860.8 748.6h-115.3c-8.7 0-15.7-7-15.7-15.7 0-8.7 7-15.7 15.7-15.7h115.3c8.7 0 15.7 7 15.7 15.7 0 8.7-7 15.7-15.7 15.7z"/>
					<g id="&lt;Group&gt;">
						<path id="&lt;Path&gt;" class="s65" d="m851.1 518.8l73.6 211.3c2.5 7.3-1.3 15.2-8.6 17.8-7.3 2.5-15.2-1.4-17.8-8.6l-73.6-211.4c-2.5-7.2 1.3-15.2 8.6-17.7 7.3-2.6 15.3 1.3 17.8 8.6z"/>
						<g id="&lt;Group&gt;" style="mix-blend-mode: multiply">
							<path id="&lt;Compound Path&gt;" fill-rule="evenodd" class="s66" d="m917.8 726.5c3 2.8 3.8 7.5 1.6 11.1-2.2 3.7-6.7 5.3-10.7 3.9q-3-1.2-4.6-3.9c-1.4-2.4-1.6-5-0.7-7.6q-0.7-0.4-1.3-0.8-1.9-1.2-3.7-2.4c-0.7-0.4-0.9-1-0.8-1.8 0.1-0.6 0.5-1.1 1.2-1.3 0.6-0.2 1.1-0.1 1.6 0.2q2.4 1.6 4.8 3.1c4.2-4.1 9.7-3.1 12.6-0.5zm-0.8 5.4c-0.7-2.9-3.6-4.7-6.5-4-2.8 0.6-4.6 3.6-4 6.4 0.7 2.9 3.6 4.7 6.5 4 2.9-0.7 4.7-3.6 4-6.4z"/>
						</g>
					</g>
				</g>
				<g id="&lt;Group&gt;">
					<path id="&lt;Path&gt;" class="s67" d="m735 799.6h-11.4c-2 0-3.7-1.6-3.7-3.6v-68.4c0-2 1.7-3.6 3.7-3.6h11.4c20.8 0 37.8 16.9 37.8 37.8 0 20.9-17 37.8-37.8 37.8z"/>
					<path id="&lt;Path&gt;" class="s68" d="m719.9 721.2c-0.6 0-1.2 0.1-1.8 0.1h-14.3v8.7c-6 7.4-9.9 18.9-9.9 31.8 0 12.9 3.9 24.4 9.9 31.8v9h16.1v-0.2c14.4 0 26.1-18.2 26.1-40.6 0-22.4-11.7-40.6-26.1-40.6z"/>
					<path id="&lt;Path&gt;" class="s69" d="m729.8 761.8c0 22.4-11.6 40.6-26 40.6-14.4 0-26-18.2-26-40.6 0-22.4 11.6-40.6 26-40.6 14.4 0 26 18.2 26 40.6z"/>
					<path id="&lt;Path&gt;" class="s70" d="m724 778.7l-14.9-12.9v-14.8h2.1l12.8 10.9z"/>
					<path id="&lt;Path&gt;" class="s71" d="m710.6 784.7l-14.9-12.8v-14.8h2.1l12.8 10.9z"/>
					<g id="&lt;Group&gt;">
						<g id="&lt;Group&gt;">
							<path id="&lt;Compound Path&gt;" fill-rule="evenodd" class="s72" d="m696.4 757.1v14.8h-45.9c-4 0-7.4-3.3-7.4-7.4 0-2.1 0.9-3.9 2.2-5.2 1.3-1.4 3.2-2.2 5.2-2.2zm-40.1 7.4c0-1.9-1.6-3.4-3.5-3.4-1.8 0-3.4 1.5-3.4 3.4 0 1.9 1.6 3.4 3.4 3.4 1.9 0 3.5-1.5 3.5-3.4z"/>
						</g>
						<g id="&lt;Group&gt;">
							<path id="&lt;Compound Path&gt;" fill-rule="evenodd" class="s73" d="m698 757.1v14.8h-45.8c-4.1 0-7.4-3.3-7.4-7.4 0-2.1 0.8-3.9 2.1-5.2 1.4-1.4 3.2-2.2 5.3-2.2zm-40.2 7.4c0-1.9-1.5-3.4-3.4-3.4-1.9 0-3.4 1.5-3.4 3.4 0 1.9 1.5 3.4 3.4 3.4 1.9 0 3.4-1.5 3.4-3.4z"/>
						</g>
					</g>
					<g id="&lt;Group&gt;">
						<g id="&lt;Group&gt;">
							<path id="&lt;Compound Path&gt;" fill-rule="evenodd" class="s74" d="m709.6 751v14.8h-45.9c-4.1 0-7.4-3.3-7.4-7.4 0-2.1 0.8-3.9 2.2-5.3 1.3-1.3 3.1-2.1 5.2-2.1zm-40.2 7.4c0-1.9-1.5-3.5-3.4-3.5-1.9 0-3.4 1.6-3.4 3.5 0 1.9 1.5 3.4 3.4 3.4 1.9 0 3.4-1.5 3.4-3.4z"/>
						</g>
						<g id="&lt;Group&gt;">
							<path id="&lt;Compound Path&gt;" fill-rule="evenodd" class="s75" d="m711.2 751v14.8h-45.9c-4 0-7.4-3.3-7.4-7.4 0-2.1 0.9-3.9 2.2-5.3 1.3-1.3 3.2-2.1 5.2-2.1zm-40.1 7.4c0-1.9-1.6-3.5-3.4-3.5-1.9 0-3.5 1.6-3.5 3.5 0 1.9 1.6 3.4 3.5 3.4 1.8 0 3.4-1.5 3.4-3.4z"/>
						</g>
					</g>
				</g>
				<path id="&lt;Path&gt;" class="s76" d="m391 741.1h-97.5c-3.2 0-5.9-2.7-5.9-5.9v-219.6c0-3.3 2.7-5.9 5.9-5.9h97.5c3.3 0 5.9 2.6 5.9 5.9v219.6c0 3.2-2.6 5.9-5.9 5.9z"/>
				<path id="&lt;Path&gt;" class="s77" d="m279.2 741.1h-97.5c-3.3 0-5.9-2.7-5.9-5.9v-91.9c0-3.3 2.6-5.9 5.9-5.9h97.5c3.3 0 5.9 2.6 5.9 5.9v91.9c0 3.2-2.6 5.9-5.9 5.9z"/>
				<path id="&lt;Path&gt;" class="s78" d="m231.2 748.2h-97.5c-3.3 0-5.9-2.7-5.9-5.9v-40.3c0-3.3 2.6-5.9 5.9-5.9h97.5c3.2 0 5.9 2.6 5.9 5.9v40.3c0 3.2-2.7 5.9-5.9 5.9z"/>
				<path id="&lt;Compound Path&gt;" fill-rule="evenodd" class="s79" d="m339.2 555.5c1.2 0 2.1 0.9 2.1 2.1v3.8h18.1v-3.8c0-1.2 0.9-2.1 2.1-2.1 1.2 0 2.1 0.9 2.1 2.1l0.4 200.2c0 1.2-1 2.2-2.1 2.2-1.2 0-2.2-1-2.2-2.2v-7.1h-18v7.1c0 1.2-1 2.2-2.1 2.2-1.2 0-2.2-1-2.2-2.2l-0.3-200.2c0-1.2 0.9-2.1 2.1-2.1zm20.4 148.6v-8.3h-18v8.3zm-18 2.7v8.3h18v-8.3zm18-13.7v-8.3h-18v8.3zm0-10.9l-0.1-8.3h-18v8.3zm0-11v-8.3h-18v8.3zm0-11v-8.3h-18.1l0.1 8.3zm-0.1-11v-8.3h-18v8.3zm0-10.9v-8.3h-18v8.3zm0-11l-0.1-8.3h-18v8.3zm0-11v-8.3h-18v8.3zm0-11v-8.3h-18.1v8.3zm0-10.9v-8.3h-18v8.3zm0.2 123.4h-18v8.3h18zm-18.2-134.4h18v-8.3h-18zm18.2 145.3h-18v8.3h18.1zm-18.4-164.6l0.1 8.3h18v-8.3zm18.3 183.9v-8.3h-18v8.3z"/>
				<path id="&lt;Compound Path&gt;" fill-rule="evenodd" class="s80" d="m339.2 555.5c1.2 0 1.9 0.9 1.7 2.1l-0.7 3.8h18l0.7-3.8c0.3-1.2 1.4-2.1 2.6-2.1 1.2 0 1.9 0.9 1.7 2.1l-39.6 200.2c-0.2 1.2-1.4 2.2-2.5 2.2-1.2 0-2-1-1.8-2.2l1.5-7.1h-18.1l-1.4 7.1c-0.2 1.2-1.4 2.2-2.5 2.2-1.2 0-2-1-1.8-2.2l39.6-200.2c0.3-1.2 1.4-2.1 2.6-2.1zm-9.2 148.6l1.6-8.3h-18l-1.7 8.3zm-18.5 2.7l-1.6 8.3h18l1.6-8.3zm20.7-13.7l1.7-8.3h-18l-1.7 8.3zm2.2-10.9l1.6-8.3h-18l-1.6 8.3zm2.1-11l1.7-8.3h-18.1l-1.6 8.3zm2.2-11l1.6-8.3h-18l-1.6 8.3zm2.1-11l1.7-8.3h-18.1l-1.6 8.3zm2.2-10.9l1.6-8.3h-18l-1.6 8.3zm2.1-11l1.7-8.3h-18.1l-1.6 8.3zm2.2-11l1.6-8.3h-18l-1.7 8.3zm2.2-11l1.7-8.3h-18.1l-1.6 8.3zm2.2-10.9l1.6-8.3h-18l-1.7 8.3zm-24.4 123.4h-18l-1.6 8.3h18zm8.6-134.4h18l1.6-8.3h-18zm-10.7 145.3h-18l-1.7 8.3h18zm14.6-164.6l-1.7 8.3h18l1.7-8.3zm-18.4 183.9l1.7-8.3h-18l-1.7 8.3z"/>
				<g id="&lt;Group&gt;">
					<g id="&lt;Group&gt;">
						<path id="&lt;Path&gt;" class="s81" d="m348.2 468.7h30.1c3.3 0 5.9-2.7 5.9-5.9v-30.2c0-3.2-2.6-5.8-5.9-5.8h-30.1c-3.3 0-5.9 2.6-5.9 5.8v30.2c0 3.2 2.6 5.9 5.9 5.9z"/>
						<path id="&lt;Path&gt;" class="s82" d="m356 468.7h30.2c3.2 0 5.9-2.7 5.9-5.9v-30.2c0-3.2-2.7-5.8-5.9-5.8h-30.2c-3.2 0-5.9 2.6-5.9 5.8v30.2c0 3.2 2.7 5.9 5.9 5.9z"/>
					</g>
					<path id="&lt;Path&gt;" fill-rule="evenodd" class="s83" d="m381.1 445.6l-8.6 8.5-14.8-14.8"/>
				</g>
				<g id="&lt;Group&gt;">
					<g id="&lt;Group&gt;">
						<path id="&lt;Path&gt;" class="s84" d="m339.2 509.7h30.1c3.2 0 5.9-2.6 5.9-5.9v-30.1c0-3.2-2.7-5.9-5.9-5.9h-30.1c-3.3 0-5.9 2.7-5.9 5.9v30.1c0 3.3 2.6 5.9 5.9 5.9z"/>
						<path id="&lt;Path&gt;" class="s85" d="m347 509.7h30.1c3.3 0 5.9-2.6 5.9-5.9v-30.1c0-3.2-2.6-5.9-5.9-5.9h-30.1c-3.2 0-5.9 2.7-5.9 5.9v30.1c0 3.3 2.7 5.9 5.9 5.9z"/>
					</g>
					<g id="&lt;Group&gt;">
						<path id="&lt;Path&gt;" fill-rule="evenodd" class="s83" d="m372.1 478.7l-20.1 20.1"/>
						<path id="&lt;Path&gt;" fill-rule="evenodd" class="s83" d="m372.1 498.8l-20.1-20.1"/>
					</g>
				</g>
				<text id="&lt;/&gt;
" style="opacity: .7;transform: matrix(2,0,0,2,708.005,687.646)" >
					<tspan x="0" y="0" class="t86" dx="0" >&lt;</tspan><tspan  y="0" class="t86" dx="0" >/</tspan><tspan  y="0" class="t86" dx="0 -9" >&gt;
</tspan>
				</text>
				<path id="&lt;Path&gt;" class="s87" d="m236.2 726.2h-18.4l-30.3-30.1h18.5z"/>
				<g id="&lt;Group&gt;">
					<path id="&lt;Compound Path&gt;" fill-rule="evenodd" class="s88" d="m187.9 684.3c3.2 3.4 6.1 6.5 9.1 9.6 1.9 1.9 3.3 2 5.5 0.3q1.1-0.9 2.1-1.9c2.9-3 2.8-4.7-0.1-7.7q-4.1-4.1-8.2-8.2c5.2-3.2 12.6-1.2 16.2 2.5 3.6 3.6 5.3 7.9 4.6 12.9-0.2 1.7 0.2 2.7 1.4 3.8q21.8 21.8 43.6 43.6c4.3 4.3 3.4 10.5-2 13-3 1.4-6.4 0.6-9.3-2.3q-17.7-17.8-35.5-35.5c-2.6-2.7-5.3-5.3-7.9-8-1-1.1-2-1.5-3.6-1.3-11.4 1.5-20.3-9.1-16.7-19.5 0.1-0.2 0.3-0.4 0.8-1.3zm68.6 64.4c2.2 0 3.9-1.7 3.9-3.8 0-1.9-1.7-3.7-3.7-3.8-2.1-0.1-3.9 1.6-4 3.7 0 2 1.8 3.8 3.8 3.9z"/>
				</g>
				<g id="&lt;Group&gt;" style="opacity: .5">
					<path id="&lt;Path&gt;" class="s89" d="m707.3 376.1l-135 16.1-0.7-5.8 135-16.1z"/>
					<path id="&lt;Path&gt;" class="s90" d="m645.3 398.3l-71.3 8.5-0.6-5.7 71.2-8.6z"/>
					<path id="&lt;Path&gt;" class="s91" d="m647 413l-71.2 8.5-0.7-5.8 71.2-8.5z"/>
				</g>
				<g id="&lt;Group&gt;" style="opacity: .5">
					<path id="&lt;Path&gt;" class="s92" d="m715.2 427.7l-135 16.1-0.7-5.8 135-16.1z"/>
					<path id="&lt;Path&gt;" class="s93" d="m653.2 450l-71.2 8.5-0.7-5.8 71.2-8.5z"/>
					<path id="&lt;Path&gt;" class="s94" d="m655 464.7l-71.3 8.5-0.7-5.8 71.3-8.5z"/>
				</g>
			</g>
			<g id="&lt;Group&gt;">
				<path id="&lt;Path&gt;" class="s95" d="m305.4 748.9l-1.4 6.8h11.1l-6.3-2.5 0.9-3.8z"/>
				<path id="&lt;Path&gt;" class="s95" d="m318.4 738.5l-1.5 3.2 2.1 3.5h7.5l-4.1-1.8-0.9-1.5 0.7-2z"/>
				<path id="&lt;Path&gt;" class="s95" d="m321.8 661.6c-2.6-0.5-4.3-3-3.8-5.5l0.9-4.5c0.4-2.6 2.9-4.3 5.5-3.8 2.5 0.5 4.2 2.9 3.8 5.5l-0.9 4.5c-0.4 2.6-2.9 4.3-5.5 3.8z"/>
				<path id="&lt;Path&gt;" class="s95" d="m320.2 664.2h-0.3c-1.3-0.3-2.2-1.5-1.9-2.8l0.7-3.9c0.3-1.3 1.5-2.2 2.8-1.9h0.3c1.3 0.3 2.2 1.5 1.9 2.8l-0.7 3.9c-0.3 1.3-1.5 2.2-2.8 1.9z"/>
				<path id="&lt;Path&gt;" class="s95" d="m340.6 641.9c0 0 0.1-0.9-0.1-1.6-0.2-0.7-0.6-1.8-0.3-2.5 0.2-0.6 0.8-0.4 0.8-0.4 0 0 0.2-1.3 0.5-1.4 0.9-0.2 3.3 0.2 3.7 1.2 0 1.1-0.1 3.2-0.6 3.9-0.4 0.8-0.7 1-0.9 1.5-1.8-0.5-3.1-0.7-3.1-0.7z"/>
				<g id="&lt;Group&gt;">
					<path id="&lt;Path&gt;" class="s96" d="m316.7 671l-13.9 7.3 1.1-4.7 7.9 13.4-4.3 2.8-9.1-12.5c-1-1.4-0.7-3.4 0.7-4.4v-0.1l0.3-0.2 13.1-8.7z"/>
				</g>
				<g id="&lt;Group&gt;">
					<path id="&lt;Path&gt;" class="s97" d="m317.7 700.7l-2.1 25.1-0.1 0.3q0 0.1 0 0.2l-5.2 24.9-6.3-1.1 3.2-25.2-0.1 0.5 0.3-25.2z"/>
				</g>
				<g id="&lt;Group&gt;">
					<path id="&lt;Path&gt;" class="s98" d="m322.5 697.7l10.7 18.1 0.2 0.3c0.7 1.2 0.7 2.7 0.1 3.8l-10.5 20.8-5.8-2.6 8.5-21.7 0.4 4.1-12.3-17.2z"/>
				</g>
				<g id="&lt;Group&gt;">
					<g id="&lt;Group&gt;">
						<path id="&lt;Path&gt;" class="s99" d="m324.4 697l-18.9-3.4 4.4-24.8c0.9-5.3 5.9-8.7 11.1-7.8 5.3 0.9 8.8 5.9 7.8 11.1z"/>
					</g>
					<g id="&lt;Group&gt;">
						<path id="&lt;Path&gt;" class="s98" d="m324.4 697l-18.9-3.4c-0.9 5 2.4 9.9 7.5 10.8l0.7 0.1c5 0.9 9.8-2.5 10.7-7.5z"/>
					</g>
					<g id="&lt;Group&gt;">
						<path id="&lt;Path&gt;" class="s99" d="m322.2 666.7l16.2-10.3-1.3 2.1 2.8-17.2 5.1 0.7-1.8 17.3c-0.1 0.8-0.5 1.5-1 1.9l-0.2 0.2-14.9 12z"/>
					</g>
				</g>
				<g id="&lt;Group&gt;">
					<path id="&lt;Path&gt;" class="s95" d="m341.5 636.1l0.4-1.9v-0.1l0.8-1.5c0.1-0.2 0.2-0.2 0.4-0.1 0.1 0 0.2 0.2 0.2 0.4l-0.6 1.5v-0.1l-0.2 2c-0.1 0.2-0.3 0.5-0.6 0.4-0.3 0-0.5-0.3-0.5-0.5q0.1-0.1 0.1-0.1z"/>
				</g>
				<g id="&lt;Group&gt;">
					<path id="&lt;Path&gt;" class="s95" d="m340.2 638.3l-0.2-1.4v-0.1l0.1-1c0-0.2 0.1-0.3 0.3-0.3 0.2 0 0.3 0.1 0.3 0.3l0.1 1v-0.1l0.4 1.3c0.1 0.3-0.1 0.6-0.4 0.7-0.2 0.1-0.5-0.1-0.6-0.4q0 0 0 0z"/>
				</g>
				<g id="&lt;Group&gt;">
					<path id="&lt;Path&gt;" class="s95" d="m342.4 636.4l0.5-2.2v-0.1l1-1.9c0.1-0.2 0.3-0.3 0.4-0.2 0.2 0.1 0.2 0.3 0.2 0.4l-0.9 2.1 0.1-0.1-0.3 2.1c-0.1 0.3-0.3 0.5-0.6 0.5-0.3 0-0.5-0.3-0.5-0.6q0.1 0 0.1 0z"/>
				</g>
				<g id="&lt;Group&gt;">
					<path id="&lt;Path&gt;" class="s95" d="m343.2 636.5l0.9-2.1v-0.1l1.1-1.7c0.1-0.2 0.3-0.2 0.5-0.1 0.1 0.1 0.2 0.2 0.1 0.4l-1 1.9v-0.1l-0.6 2.2c-0.1 0.3-0.4 0.4-0.6 0.3-0.3 0-0.5-0.3-0.4-0.6q0 0 0-0.1z"/>
				</g>
				<g id="&lt;Group&gt;">
					<path id="&lt;Path&gt;" class="s95" d="m344.1 637l1-1.8 0.1-0.1 0.1-0.1 1.3-0.9c0.1-0.1 0.3 0 0.4 0.1 0.1 0.1 0.1 0.3-0.1 0.4l-1.1 1.1 0.1-0.2-0.9 2c-0.1 0.2-0.4 0.4-0.7 0.2-0.2-0.1-0.4-0.4-0.2-0.6q0-0.1 0-0.1z"/>
				</g>
				<path id="&lt;Path&gt;" class="s100" d="m320.1 657.3c-2-0.3-3.4-2.3-3-4.3l0.7-3.8c0.4-2 2.3-3.4 4.3-3 2.1 0.4 3.4 2.3 3 4.3l-0.7 3.9c-0.4 2-2.3 3.3-4.3 2.9z"/>
				<path id="&lt;Path&gt;" class="s100" d="m325.9 655c-0.2 0-0.3-0.2-0.2-0.4l0.6-3.3c0-0.2 0.2-0.3 0.3-0.3 0.2 0.1 0.3 0.2 0.3 0.4l-0.6 3.3c0 0.2-0.2 0.3-0.4 0.3z"/>
				<path id="&lt;Path&gt;" class="s100" d="m330.7 649.8c-0.2 1.2-1.3 2.1-2.6 1.9l-6.6-1c-1.3-0.2-2.1-1.4-2-2.7 0.2-1.2 1.4-2.1 2.7-1.9l6.6 1c1.3 0.2 2.1 1.4 1.9 2.7z"/>
				<path id="&lt;Path&gt;" class="s96" d="m317.4 739.5c0 0 0.1 1.2 1.7 1.8 1.5 0.6 3 0 3 0v0.1c0.7 1.2 1.8 2.2 3 2.8l1.9 0.8v0.8h-7.4c-0.5 0-0.9-0.2-1.2-0.5l-2-2c-0.4-0.4-0.5-1-0.2-1.5z"/>
				<path id="&lt;Path&gt;" class="s96" d="m304.6 751.9c0 0 0.8 0.9 2 1 1.1 0.2 2.6-0.6 2.6-0.6l2.3 1.4q1 0.6 2.2 0.9l2.8 0.6v0.7h-13c0-1.5 0.4-2.8 1.1-4z"/>
			</g>
			<g id="&lt;Group&gt;">
				<g id="&lt;Group&gt;">
					<path id="&lt;Path&gt;" class="s95" d="m701.8 600.9l0.4 2.5-2.2 1.3-2.9 1v0.4h9.7l-1.2-5.6z"/>
					<path id="&lt;Path&gt;" class="s101" d="m701.9 603.1c0 0 0.6 1.4 2.3 1.3 1.7 0 1.9-1.3 1.9-1.3l0.5-0.1 0.7 3.3h-10.7v-0.9l2.5-0.7z"/>
				</g>
				<g id="&lt;Group&gt;">
					<path id="&lt;Path&gt;" class="s95" d="m739.3 581.1l2.5 0.8 0.3 2.5-0.4 3.1 0.4 0.2 4.1-8.9-5.6-1.3z"/>
					<path id="&lt;Path&gt;" class="s101" d="m741.4 582c0 0 1.5 0.1 2.2-1.5 0.7-1.6-0.4-2.4-0.4-2.4l0.1-0.5 3.3 0.8-4.5 9.8-0.8-0.4 0.4-2.6z"/>
				</g>
				<path id="&lt;Path&gt;" class="s95" d="m689.4 516c-1.8 0.7-3.8-0.2-4.6-2l-3.3-8.4c-0.7-1.8 0.2-3.8 2-4.6 1.8-0.7 3.9 0.2 4.6 2l3.3 8.5c0.7 1.8-0.2 3.8-2 4.5z"/>
				<g id="&lt;Group&gt;">
					<path id="&lt;Path&gt;" class="s102" d="m704.8 555.3l-0.2 23.6v-0.5l2.4 23-6.8 1-4.3-22.7v-0.5l-2.1-23.5z"/>
				</g>
				<g id="&lt;Group&gt;">
					<path id="&lt;Path&gt;" class="s103" d="m712.7 549.5l7.8 21.9-2.9-2.6 24.3 7.3-1.6 6.5-24.9-5.3c-1.3-0.2-2.3-1.1-2.8-2.2l-0.2-0.3-9.9-21z"/>
				</g>
				<path id="&lt;Path&gt;" class="s102" d="m707.2 560.8c-5.7 2.2-12.2-0.7-14.4-6.4l-1.4-3.5 20.9-8.1 1.3 3.5c2.2 5.8-0.6 12.3-6.4 14.5z"/>
				<g id="&lt;Group&gt;">
					<g id="&lt;Group&gt;">
						<g id="&lt;Group&gt;">
							<path id="&lt;Path&gt;" class="s104" d="m721.9 538.6l0.2-1.3v0.1l-0.3-2.7v-0.1c-0.1-0.4 0.2-0.8 0.7-0.9 0.4 0 0.8 0.3 0.9 0.7q0 0.1 0 0.2l-0.2 2.8v0.2h-0.1l-0.5 1.2c-0.1 0.2-0.3 0.3-0.5 0.2-0.2-0.1-0.2-0.2-0.2-0.4z"/>
						</g>
						<path id="&lt;Path&gt;" class="s95" d="m722.5 531.4c1.1-0.7 2.6-0.4 3.3 0.7l1.9 2.9c0.3 0.4 0.2 0.9-0.2 1.1l-2.7 1.8c-0.4 0.2-0.8 0.1-1.1-0.2l-1.9-3c-0.7-1.1-0.4-2.6 0.7-3.3z"/>
						<path id="&lt;Path&gt;" class="s95" d="m718.5 528.4l2.8-1.8 5.1 7.8-2.7 1.8z"/>
						<g id="&lt;Group&gt;">
							<path id="&lt;Path&gt;" class="s95" d="m725.2 537.4l0.8 2.1-0.1-0.1 1.5 1.5c0.2 0.2 0.2 0.4 0 0.6-0.1 0.1-0.3 0.1-0.5 0l-1.7-1.4v-0.1l-0.1-0.1-1-2c-0.2-0.3-0.1-0.6 0.2-0.8 0.3-0.1 0.7 0 0.8 0.3q0.1 0 0.1 0z"/>
						</g>
						<g id="&lt;Group&gt;">
							<path id="&lt;Path&gt;" class="s95" d="m725.6 536.9l1.5 2.3-0.1-0.2 1.8 1.5c0.2 0.1 0.2 0.3 0.1 0.5-0.1 0.2-0.3 0.2-0.5 0.1l-1.9-1.3h-0.1l-0.1-0.1-1.6-2.1c-0.2-0.3-0.2-0.7 0.1-0.9 0.2-0.2 0.6-0.1 0.8 0.1q0 0.1 0 0.1z"/>
						</g>
						<g id="&lt;Group&gt;">
							<path id="&lt;Path&gt;" class="s95" d="m726.5 536.2l1.4 2.1-0.1-0.1 1.7 1.5c0.2 0.1 0.2 0.3 0.1 0.5-0.1 0.2-0.4 0.2-0.5 0.1l-1.9-1.3-0.1-0.1-1.5-2c-0.2-0.2-0.2-0.6 0.1-0.8 0.2-0.2 0.6-0.2 0.8 0.1q0 0 0 0z"/>
						</g>
						<g id="&lt;Group&gt;">
							<path id="&lt;Path&gt;" class="s95" d="m727.6 535.7l1.1 1.7-0.1-0.1 1.5 1.1c0.2 0.1 0.2 0.3 0.1 0.5-0.1 0.2-0.3 0.2-0.5 0.1l-1.6-0.9h-0.1l-0.1-0.1-1.2-1.6c-0.3-0.3-0.2-0.7 0-0.9 0.3-0.2 0.7-0.1 0.9 0.1q0 0 0 0.1z"/>
						</g>
					</g>
					<g id="&lt;Group&gt;">
						<path id="&lt;Path&gt;" class="s105" d="m696.8 509.5l16.8 6.2 0.3 0.1q0.8 0.3 1.3 1l9.5 12.5-4.1 3.5-10.8-11.4 1.6 1.1-17.3-4.6z"/>
					</g>
				</g>
				<path id="&lt;Path&gt;" class="s106" d="m687.4 508.5l-1.2 0.5c-5.4 2.1-8.1 8.2-5.9 13.6l11.2 28.4 20.7-8.2-11.1-28.4c-2.2-5.4-8.3-8-13.7-5.9z"/>
				<g id="&lt;Group&gt;">
					<g id="&lt;Group&gt;">
						<g id="&lt;Group&gt;">
							<path id="&lt;Path&gt;" class="s104" d="m655.4 495.2l-0.2 1.3v-0.2l0.6 2.7v0.1c0.1 0.4-0.2 0.9-0.7 0.9-0.4 0.1-0.8-0.1-0.9-0.6q0-0.1 0-0.2v-2.7-0.2l0.5-1.3c0.1-0.2 0.3-0.3 0.5-0.2 0.1 0 0.2 0.2 0.2 0.4z"/>
						</g>
						<path id="&lt;Path&gt;" class="s95" d="m655.3 502.4c-1 0.8-2.5 0.6-3.3-0.5l-2.2-2.8c-0.3-0.3-0.2-0.8 0.2-1.1l2.5-1.9c0.4-0.3 0.9-0.2 1.1 0.1l2.2 2.8c0.8 1.1 0.6 2.6-0.5 3.4z"/>
						<path id="&lt;Path&gt;" class="s95" d="m659.4 505.1l-2.6 2-5.6-7.5 2.6-2z"/>
						<g id="&lt;Group&gt;">
							<path id="&lt;Path&gt;" class="s95" d="m652.2 496.6l-1-2.1 0.2 0.2-1.7-1.5c-0.1-0.1-0.2-0.3 0-0.5 0.1-0.1 0.3-0.2 0.5-0.1l1.8 1.3v0.1l0.1 0.1 1.2 1.9c0.1 0.3 0 0.6-0.2 0.8-0.3 0.2-0.7 0.1-0.9-0.2q0 0 0 0z"/>
						</g>
						<g id="&lt;Group&gt;">
							<path id="&lt;Path&gt;" class="s95" d="m651.8 497.1l-1.7-2.1 0.1 0.1-1.9-1.3c-0.1-0.2-0.2-0.4 0-0.6 0.1-0.1 0.3-0.2 0.4-0.1l2.1 1.1v0.1h0.1l1.8 2.1c0.2 0.2 0.2 0.6 0 0.8-0.3 0.2-0.7 0.2-0.9 0q0 0 0-0.1z"/>
						</g>
						<g id="&lt;Group&gt;">
							<path id="&lt;Path&gt;" class="s95" d="m650.9 497.8l-1.5-1.9 0.1 0.1-1.8-1.4c-0.2-0.1-0.2-0.3-0.1-0.5 0.1-0.2 0.3-0.2 0.5-0.1l2 1.1v0.1h0.1l1.6 1.9c0.3 0.2 0.2 0.6 0 0.8-0.2 0.3-0.6 0.2-0.8 0q-0.1 0-0.1-0.1z"/>
						</g>
						<g id="&lt;Group&gt;">
							<path id="&lt;Path&gt;" class="s95" d="m649.9 498.5l-1.3-1.7 0.2 0.1-1.6-1c-0.2-0.1-0.2-0.3-0.1-0.5 0.1-0.1 0.3-0.2 0.4-0.1l1.8 0.8 0.1 0.1 1.4 1.5c0.2 0.3 0.2 0.6 0 0.9-0.3 0.2-0.7 0.2-0.9-0.1q0 0 0 0z"/>
						</g>
					</g>
					<g id="&lt;Group&gt;">
						<path id="&lt;Path&gt;" class="s106" d="m684 522.1l-17.4-0.9h-0.4c-1-0.1-1.9-0.6-2.4-1.4l-10.2-15 4.3-3.3 11.4 14.2-2.8-1.4 17.4-1z"/>
					</g>
				</g>
				<path id="&lt;Path&gt;" class="s95" d="m685.5 508.5c-3.1 1.2-6.7-0.3-7.9-3.4l-1.4-3.7c-1.3-3.2 0.3-6.7 3.4-7.9 3.1-1.2 6.6 0.3 7.8 3.4l1.5 3.7c1.2 3.1-0.3 6.7-3.4 7.9z"/>
				<path id="&lt;Path&gt;" class="s107" d="m687.5 502.2l-3 1.2c-1.3 0.5-2.8-0.2-3.3-1.5l-2.4-6.1c-0.6-1.3 0.1-2.8 1.4-3.3l3-1.2c1.3-0.5 2.8 0.2 3.3 1.5l2.4 6.1c0.5 1.3-0.1 2.8-1.4 3.3z"/>
				<path id="&lt;Path&gt;" class="s107" d="m678.6 501.1h-0.2c-0.4 0.2-0.8 0-1-0.4l-1.1-2.8c-0.2-0.4 0-0.9 0.4-1l0.2-0.1c0.5-0.2 0.9 0 1.1 0.4l1.1 2.8c0.1 0.4-0.1 0.9-0.5 1.1z"/>
				<path id="&lt;Path&gt;" class="s107" d="m677 498.4c0 0-6.5-0.3-6.1-5.2 0.4-6.3 9-3.6 9-3.6 0 0 2.9-1.7 5.7 0.2 2.9 1.8 0.6 7 0.6 7l-6.2 1.8c0 0-0.9-1.6-2.1-0.5-1.1 1-0.9 0.3-0.9 0.3z"/>
				<path id="&lt;Path&gt;" class="s107" d="m684.8 491.6c0 0 0.8-2.5 3.7-1.2 2.2 1-0.4 4.6 1.8 8.5 2.3 3.9 6.2 1.5 6.2 1.5 0 0-2.6-0.2-2.6-3.4 0.1-3.2 3.6-10.1-1.6-12.3-5.3-2.2-9.3 1.6-8.1 6.9 0.5 0.2 0.6 0 0.6 0z"/>
			</g>
		</g>
		<text id="We are creating 
something amazing
" style="transform: matrix(2,0,0,2,499.98,877.821)" >
			<tspan x="-79" y="0" class="t108" dx="0 0 0 0 0 0 0 0 0 0 0 0 0 0 0 0 0" >We are creating 
</tspan>
			<tspan x="-94.8" y="20.9" class="t108" dx="0 0 0 0 0 0 0 0 0 0 0 0 0 0 0 0 0 0" >something amazing
</tspan>
		</text>
		<text id="LOADING
" style="transform: matrix(1.986,-0.237,.237,1.986,492.421,479.574)" >
			<tspan x="-29.4" y="0" class="t109" dx="0 0 0 0 0 0 0 0" >LOADING
</tspan>
		</text>
	</g>
</svg>