<?xml version="1.0" encoding="utf-8"?>
<!-- Generator: Adobe Illustrator 27.5.0, SVG Export Plug-In . SVG Version: 6.00 Build 0)  -->
<svg version="1.1" xmlns="http://www.w3.org/2000/svg" xmlns:xlink="http://www.w3.org/1999/xlink" x="0px" y="0px"
	 viewBox="0 0 500 500" style="enable-background:new 0 0 500 500;" xml:space="preserve">
<g id="Background_Complete">
	<g>
		<rect y="382.398" style="fill:#EBEBEB;" width="500" height="0.25"/>
		<rect x="416.779" y="398.494" style="fill:#EBEBEB;" width="33.122" height="0.25"/>
		<rect x="322.527" y="401.208" style="fill:#EBEBEB;" width="8.693" height="0.25"/>
		<rect x="396.586" y="389.208" style="fill:#EBEBEB;" width="19.192" height="0.25"/>
		<rect x="52.459" y="390.888" style="fill:#EBEBEB;" width="43.193" height="0.25"/>
		<rect x="104.556" y="390.888" style="fill:#EBEBEB;" width="6.333" height="0.25"/>
		<rect x="131.471" y="395.111" style="fill:#EBEBEB;" width="93.676" height="0.25"/>
		<path style="fill:#EBEBEB;" d="M237.014,337.8H43.915c-3.147,0-5.708-2.561-5.708-5.708V60.66c0-3.147,2.561-5.708,5.708-5.708
			h193.099c3.146,0,5.707,2.561,5.707,5.708v271.432C242.721,335.239,240.16,337.8,237.014,337.8z M43.915,55.203
			c-3.01,0-5.458,2.448-5.458,5.458v271.432c0,3.01,2.448,5.458,5.458,5.458h193.099c3.009,0,5.457-2.448,5.457-5.458V60.66
			c0-3.009-2.448-5.458-5.457-5.458H43.915z"/>
		<path style="fill:#EBEBEB;" d="M453.31,337.8H260.212c-3.147,0-5.707-2.561-5.707-5.708V60.66c0-3.147,2.561-5.708,5.707-5.708
			H453.31c3.148,0,5.708,2.561,5.708,5.708v271.432C459.019,335.239,456.458,337.8,453.31,337.8z M260.212,55.203
			c-3.009,0-5.457,2.448-5.457,5.458v271.432c0,3.01,2.448,5.458,5.457,5.458H453.31c3.01,0,5.458-2.448,5.458-5.458V60.66
			c0-3.009-2.448-5.458-5.458-5.458H260.212z"/>
	</g>
	<g>
		<path style="fill:#EBEBEB;" d="M220.343,106.434h7.603c0.588,0,1.061,0.473,1.061,1.055V382.56h11.497V107.489
			c0-0.582,0.473-1.055,1.055-1.055h7.603c0.946,0,1.42-1.145,0.748-1.81l-14.406-14.406c-0.416-0.416-1.087-0.416-1.496,0
			l-14.413,14.406C218.93,105.289,219.403,106.434,220.343,106.434z"/>
		<path style="fill:#EBEBEB;" d="M279.347,206.831h7.603c0.588,0,1.061,0.473,1.061,1.055V382.56h11.497V207.887
			c0-0.582,0.473-1.055,1.055-1.055h7.603c0.946,0,1.42-1.145,0.748-1.81l-14.406-14.406c-0.416-0.416-1.087-0.416-1.496,0
			l-14.413,14.406C277.934,205.687,278.407,206.831,279.347,206.831z"/>
		<path style="fill:#EBEBEB;" d="M146.243,264.435h7.603c0.588,0,1.061,0.473,1.061,1.055v117.07h11.497v-117.07
			c0-0.582,0.473-1.055,1.055-1.055h7.603c0.946,0,1.42-1.145,0.748-1.81l-14.407-14.406c-0.416-0.416-1.087-0.416-1.496,0
			l-14.413,14.406C144.83,263.291,145.303,264.435,146.243,264.435z"/>
		<g>
			<path style="fill:#E0E0E0;" d="M112.897,129.109V118.91l-5.252-0.495c-0.709-3.419-2.064-6.597-3.917-9.42l3.373-4.074
				l-7.212-7.212l-4.075,3.373c-2.823-1.853-6.001-3.208-9.42-3.916l-0.495-5.252H75.702l-0.495,5.252
				c-3.419,0.709-6.597,2.064-9.42,3.916l-4.075-3.373l-7.212,7.212l3.373,4.074c-1.852,2.823-3.207,6.002-3.917,9.42l-5.251,0.495
				v10.199l5.251,0.495c0.709,3.419,2.064,6.597,3.917,9.42l-3.373,4.075l7.212,7.211l4.074-3.373
				c2.823,1.853,6.002,3.208,9.421,3.916l0.495,5.251h10.199l0.495-5.251c3.419-0.709,6.597-2.064,9.42-3.916l4.074,3.373
				l7.212-7.211l-3.373-4.075c1.853-2.823,3.208-6.002,3.917-9.42L112.897,129.109z M80.802,137.816
				c-7.625,0-13.807-6.181-13.807-13.807c0-7.625,6.181-13.807,13.807-13.807c7.625,0,13.806,6.181,13.806,13.807
				C94.608,131.635,88.426,137.816,80.802,137.816z"/>
			<path style="fill:#E0E0E0;" d="M154.232,157.896v-7.992l-4.115-0.387c-0.556-2.679-1.618-5.169-3.069-7.382l2.643-3.193
				l-5.651-5.651l-3.193,2.644c-2.212-1.452-4.703-2.514-7.382-3.069l-0.388-4.115h-7.992l-0.388,4.115
				c-2.679,0.556-5.17,1.617-7.382,3.069l-3.193-2.644l-5.651,5.651l2.644,3.193c-1.452,2.213-2.514,4.703-3.069,7.382l-4.115,0.387
				v7.992l4.115,0.387c0.556,2.679,1.618,5.169,3.069,7.382l-2.644,3.193l5.651,5.651l3.193-2.643
				c2.212,1.451,4.703,2.513,7.382,3.069l0.388,4.115h7.992l0.388-4.115c2.679-0.556,5.17-1.618,7.382-3.069l3.193,2.643
				l5.651-5.651l-2.643-3.193c1.452-2.212,2.514-4.703,3.069-7.382L154.232,157.896z M129.082,164.719
				c-5.975,0-10.819-4.844-10.819-10.819c0-5.976,4.844-10.819,10.819-10.819c5.975,0,10.819,4.844,10.819,10.819
				C139.901,159.876,135.057,164.719,129.082,164.719z"/>
			<path style="fill:#E0E0E0;" d="M109.897,181.585v-6.713l-3.457-0.326c-0.466-2.25-1.358-4.342-2.577-6.201l2.22-2.681
				l-4.747-4.747l-2.681,2.22c-1.858-1.219-3.95-2.111-6.201-2.577l-0.326-3.457h-6.712l-0.326,3.456
				c-2.25,0.467-4.342,1.359-6.201,2.578l-2.682-2.22l-4.747,4.747l2.22,2.681c-1.219,1.858-2.111,3.951-2.577,6.201l-3.457,0.326
				l0.001,6.713l3.456,0.325c0.467,2.251,1.359,4.343,2.578,6.201l-2.22,2.682l4.747,4.747l2.682-2.22
				c1.858,1.219,3.95,2.111,6.201,2.578l0.326,3.456h6.712l0.326-3.456c2.25-0.467,4.342-1.359,6.201-2.578l2.681,2.22l4.747-4.747
				l-2.22-2.682c1.219-1.858,2.111-3.95,2.578-6.201L109.897,181.585z M88.772,187.316c-5.019,0-9.087-4.068-9.087-9.087
				c0-5.018,4.068-9.087,9.087-9.087c5.018,0,9.087,4.069,9.087,9.087C97.86,183.248,93.791,187.316,88.772,187.316z"/>
		</g>
		<g>
			<path style="fill:#E0E0E0;" d="M383.754,269.996v10.199l5.252,0.495c0.709,3.418,2.064,6.597,3.917,9.42l-3.373,4.074
				l7.212,7.212l4.075-3.373c2.823,1.853,6.001,3.208,9.42,3.917l0.495,5.252h10.199l0.495-5.252
				c3.419-0.709,6.597-2.064,9.42-3.917l4.075,3.373l7.212-7.212l-3.373-4.074c1.852-2.823,3.207-6.002,3.916-9.42l5.251-0.495
				v-10.199l-5.251-0.495c-0.709-3.419-2.064-6.597-3.916-9.42l3.373-4.075l-7.212-7.211l-4.074,3.373
				c-2.823-1.853-6.002-3.208-9.421-3.916L420.949,243H410.75l-0.495,5.251c-3.419,0.709-6.597,2.064-9.42,3.916l-4.074-3.373
				l-7.212,7.211l3.373,4.075c-1.853,2.823-3.208,6.002-3.917,9.42L383.754,269.996z M415.849,261.289
				c7.625,0,13.807,6.181,13.807,13.807c0,7.625-6.181,13.807-13.807,13.807c-7.625,0-13.806-6.181-13.806-13.807
				C402.043,267.47,408.225,261.289,415.849,261.289z"/>
			<path style="fill:#E0E0E0;" d="M342.419,241.208v7.992l4.115,0.387c0.556,2.679,1.618,5.169,3.069,7.382l-2.643,3.193
				l5.651,5.651l3.193-2.644c2.212,1.452,4.703,2.514,7.382,3.069l0.388,4.115h7.992l0.387-4.115c2.68-0.556,5.17-1.618,7.382-3.069
				l3.193,2.644l5.651-5.651l-2.644-3.193c1.452-2.213,2.514-4.703,3.069-7.382l4.115-0.387v-7.992l-4.115-0.387
				c-0.556-2.679-1.618-5.169-3.069-7.382l2.644-3.193l-5.651-5.651l-3.193,2.643c-2.212-1.451-4.703-2.513-7.382-3.069
				l-0.387-4.115h-7.992l-0.388,4.115c-2.679,0.556-5.17,1.618-7.382,3.069l-3.193-2.643l-5.651,5.651l2.643,3.193
				c-1.452,2.212-2.514,4.703-3.069,7.382L342.419,241.208z M367.569,234.385c5.975,0,10.819,4.844,10.819,10.819
				c0,5.976-4.844,10.819-10.819,10.819c-5.975,0-10.819-4.844-10.819-10.819C356.75,239.229,361.594,234.385,367.569,234.385z"/>
			<path style="fill:#E0E0E0;" d="M386.754,217.519v6.713l3.457,0.326c0.466,2.25,1.358,4.342,2.577,6.201l-2.22,2.681l4.747,4.747
				l2.681-2.22c1.858,1.219,3.951,2.111,6.201,2.577l0.326,3.457h6.712l0.326-3.456c2.25-0.467,4.342-1.359,6.201-2.578l2.682,2.22
				l4.747-4.747l-2.22-2.681c1.219-1.858,2.111-3.95,2.577-6.201l3.457-0.326l0-6.713l-3.456-0.325
				c-0.467-2.251-1.359-4.343-2.578-6.201l2.22-2.682l-4.747-4.747l-2.682,2.22c-1.858-1.219-3.95-2.111-6.201-2.578l-0.326-3.456
				h-6.712l-0.326,3.456c-2.25,0.467-4.342,1.359-6.201,2.578l-2.681-2.22l-4.747,4.747l2.22,2.682
				c-1.219,1.858-2.111,3.95-2.578,6.201L386.754,217.519z M407.879,211.788c5.019,0,9.087,4.068,9.087,9.087
				c0,5.018-4.068,9.087-9.087,9.087c-5.018,0-9.087-4.069-9.087-9.087C398.792,215.857,402.86,211.788,407.879,211.788z"/>
		</g>
		<path style="fill:#E0E0E0;" d="M218.004,318.727h16.701c1.293,0,2.332,1.039,2.332,2.318v61.516h25.255v-61.516
			c0-1.278,1.04-2.318,2.318-2.318h16.701c2.079,0,3.119-2.514,1.644-3.975l-31.646-31.646c-0.913-0.913-2.388-0.913-3.287,0
			l-31.66,31.646C214.9,316.213,215.939,318.727,218.004,318.727z"/>
		<path style="fill:#E0E0E0;" d="M61.898,267.095h16.701c1.292,0,2.331,1.04,2.331,2.318V382.56h25.255V269.413
			c0-1.278,1.04-2.318,2.318-2.318h16.701c2.079,0,3.119-2.514,1.644-3.975l-31.646-31.646c-0.913-0.913-2.388-0.913-3.287,0
			l-31.66,31.646C58.794,264.581,59.833,267.095,61.898,267.095z"/>
		<path style="fill:#E0E0E0;" d="M309.098,338.61h11.454c0.886,0,1.599,0.713,1.599,1.59v42.361h17.32v-42.361
			c0-0.877,0.713-1.59,1.59-1.59h11.454c1.426,0,2.139-1.724,1.127-2.726l-21.704-21.703c-0.626-0.626-1.638-0.626-2.254,0
			l-21.713,21.703C306.97,336.885,307.682,338.61,309.098,338.61z"/>
	</g>
</g>
<g id="Backgorund_Simple" style="display:none;">
	<g style="display:inline;">
		<path style="fill:#407BFF;" d="M98.877,96.88c7.318-9.385,16.634-17.258,28.253-22.999c27.931-13.802,63.988-3.154,80.755,22.845
			c21.371,33.137,23.113,74.266,40.712,108.98c7.912,15.607,21.926,32.138,40.943,32.21c20.652,0.077,34.278-18.797,50.636-28.422
			c16.989-9.996,41.136-10.818,56.53,3.346c18.55,17.067,16.828,47.793,10.41,69.92c-8.397,28.948-28.617,55.374-54.646,70.658
			c-43.167,25.348-99.072,25.326-145.33,8.854c-4.272-1.521-8.49-3.195-12.638-5.027c-40.576-17.915-76.507-48.63-96.563-88.602
			C74.703,222.33,63.64,142.069,98.877,96.88z"/>
		<path style="opacity:0.9;fill:#FFFFFF;" d="M98.877,96.88c7.318-9.385,16.634-17.258,28.253-22.999
			c27.931-13.802,63.988-3.154,80.755,22.845c21.371,33.137,23.113,74.266,40.712,108.98c7.912,15.607,21.926,32.138,40.943,32.21
			c20.652,0.077,34.278-18.797,50.636-28.422c16.989-9.996,41.136-10.818,56.53,3.346c18.55,17.067,16.828,47.793,10.41,69.92
			c-8.397,28.948-28.617,55.374-54.646,70.658c-43.167,25.348-99.072,25.326-145.33,8.854c-4.272-1.521-8.49-3.195-12.638-5.027
			c-40.576-17.915-76.507-48.63-96.563-88.602C74.703,222.33,63.64,142.069,98.877,96.88z"/>
	</g>
</g>
<g id="Shadow_1_">
	<ellipse id="_x3C_Path_x3E__359_" style="fill:#F5F5F5;" cx="250" cy="416.238" rx="193.889" ry="11.323"/>
</g>
<g id="Tools">
	<g>
		<polygon style="fill:#263238;" points="286.877,386.581 296.752,399.266 300.297,398.734 289.877,386.581 		"/>
		<polygon style="opacity:0.3;enable-background:new    ;" points="286.877,386.581 296.752,399.266 300.297,398.734 
			289.877,386.581 		"/>
		<polygon style="fill:#263238;" points="289.877,374.581 299.752,387.266 303.297,386.734 292.877,374.581 		"/>
		<polygon style="opacity:0.3;enable-background:new    ;" points="289.877,374.581 299.752,387.266 303.297,386.734 
			292.877,374.581 		"/>
		<polygon style="fill:#263238;" points="318.276,368.079 360.949,368.079 350.943,394.513 308.27,394.513 		"/>
		<polygon style="opacity:0.3;enable-background:new    ;" points="318.276,368.079 360.949,368.079 350.943,394.513 
			308.27,394.513 		"/>
		<g>
			
				<rect x="285.151" y="384.506" transform="matrix(-1 -1.224647e-16 1.224647e-16 -1 638.0952 772.4203)" style="fill:#263238;" width="67.793" height="3.408"/>
			
				<rect x="326.922" y="384.506" transform="matrix(-1 -1.224647e-16 1.224647e-16 -1 679.8657 772.4203)" style="opacity:0.2;enable-background:new    ;" width="26.022" height="3.408"/>
		</g>
		<g>
			
				<rect x="289.154" y="374.5" transform="matrix(-1 -1.224647e-16 1.224647e-16 -1 646.1003 752.4077)" style="fill:#263238;" width="67.793" height="3.408"/>
			
				<rect x="330.924" y="374.5" transform="matrix(-1 -1.224647e-16 1.224647e-16 -1 687.8707 752.4077)" style="opacity:0.2;enable-background:new    ;" width="26.022" height="3.408"/>
		</g>
		<polygon style="fill:#263238;" points="360.879,368.264 363.249,371.01 354.247,394.581 350.734,394.581 		"/>
		<g>
			<path style="fill:#263238;" d="M268.063,382.079l-4.581,1.138c0.274-2.129,1.981-4.716,4.601-5.367
				c2.972-0.739,5.958,0.977,7.071,3.752c0.387,0.964,0.499,1.939,0.31,2.992l27.611,16.618c3.238-2.72,7.068-0.676,8.65,1.541
				l-4.565,1.112c-1.072,0.266-1.717,1.338-1.451,2.41c0.266,1.072,1.355,1.718,2.427,1.452l4.583-1.142
				c-0.275,2.129-1.98,4.714-4.6,5.365c-2.972,0.739-6.054-0.817-7.167-3.592c-0.387-0.964-0.595-1.779-0.406-2.832l-27.611-16.618
				c-2.723,1.863-6.971,0.515-8.553-1.702l4.613-1.192c1.072-0.266,1.741-1.378,1.475-2.45S269.135,381.813,268.063,382.079z"/>
			<path style="opacity:0.6;fill:#FFFFFF;enable-background:new    ;" d="M268.063,382.079l-4.581,1.138
				c0.274-2.129,1.981-4.716,4.601-5.367c2.972-0.739,5.958,0.977,7.071,3.752c0.387,0.964,0.499,1.939,0.31,2.992l27.611,16.618
				c3.238-2.72,7.068-0.676,8.65,1.541l-4.565,1.112c-1.072,0.266-1.717,1.338-1.451,2.41c0.266,1.072,1.355,1.718,2.427,1.452
				l4.583-1.142c-0.275,2.129-1.98,4.714-4.6,5.365c-2.972,0.739-6.054-0.817-7.167-3.592c-0.387-0.964-0.595-1.779-0.406-2.832
				l-27.611-16.618c-2.723,1.863-6.971,0.515-8.553-1.702l4.613-1.192c1.072-0.266,1.741-1.378,1.475-2.45
				S269.135,381.813,268.063,382.079z"/>
		</g>
		
			<rect x="277.146" y="394.513" transform="matrix(-1 -1.224647e-16 1.224647e-16 -1 628.0889 810.5702)" style="fill:#263238;" width="73.797" height="21.545"/>
		
			<rect x="321.919" y="394.513" transform="matrix(-1 -1.224647e-16 1.224647e-16 -1 672.8613 810.5702)" style="opacity:0.2;enable-background:new    ;" width="29.024" height="21.545"/>
		<g>
			<path style="fill:#263238;" d="M376.86,410.603l3.333-3.342c0.866,1.965,0.742,5.061-1.165,6.973
				c-2.163,2.169-5.605,2.243-7.993,0.443c-0.829-0.625-1.429-1.402-1.812-2.401l-32.226,0.044
				c-1.367,4.002-5.701,4.232-8.201,3.151l3.333-3.311c0.78-0.782,0.778-2.033-0.004-2.813s-2.048-0.771-2.828,0.012l-3.333,3.346
				c-0.865-1.965-0.742-5.059,1.165-6.971c2.162-2.169,5.605-2.429,7.992-0.629c0.829,0.625,1.429,1.215,1.812,2.215l32.226-0.044
				c1.368-3.002,5.701-4.044,8.201-2.964l-3.333,3.405c-0.78,0.782-0.778,2.08,0.004,2.86
				C374.814,411.355,376.08,411.385,376.86,410.603z"/>
			<path style="opacity:0.6;fill:#FFFFFF;enable-background:new    ;" d="M376.86,410.603l3.333-3.342
				c0.866,1.965,0.742,5.061-1.165,6.973c-2.163,2.169-5.605,2.243-7.993,0.443c-0.829-0.625-1.429-1.402-1.812-2.401l-32.226,0.044
				c-1.367,4.002-5.701,4.232-8.201,3.151l3.333-3.311c0.78-0.782,0.778-2.033-0.004-2.813s-2.048-0.771-2.828,0.012l-3.333,3.346
				c-0.865-1.965-0.742-5.059,1.165-6.971c2.162-2.169,5.605-2.429,7.992-0.629c0.829,0.625,1.429,1.215,1.812,2.215l32.226-0.044
				c1.368-3.002,5.701-4.044,8.201-2.964l-3.333,3.405c-0.78,0.782-0.778,2.08,0.004,2.86
				C374.814,411.355,376.08,411.385,376.86,410.603z"/>
		</g>
	</g>
</g>
<g id="Box">
	<g>
		<path style="fill:#407BFF;" d="M136.777,340.645l6.225-7.545c1.03-1.248,2.564-1.971,4.182-1.971h5.752
			c1.464,0,2.32,1.649,1.477,2.846l-3.979,5.652L136.777,340.645z"/>
		<path style="opacity:0.3;enable-background:new    ;" d="M136.777,340.645l6.225-7.545c1.03-1.248,2.564-1.971,4.182-1.971h5.752
			c1.464,0,2.32,1.649,1.477,2.846l-3.979,5.652L136.777,340.645z"/>
		<polygon style="fill:#407BFF;" points="71.111,339.626 64.11,316.645 130.971,316.645 136.777,340.645 		"/>
		<path style="fill:#407BFF;" d="M64.11,316.645l2.452-3.173c1.281-1.658,3.258-2.629,5.354-2.629h57.135
			c1.603,0,2.804,1.47,2.484,3.041l-0.563,2.761H64.11z"/>
		<polygon style="opacity:0.3;enable-background:new    ;" points="71.111,339.626 64.11,316.645 130.971,316.645 136.777,340.645 
					"/>
		<path style="opacity:0.2;enable-background:new    ;" d="M64.11,316.645l2.452-3.173c1.281-1.658,3.258-2.629,5.354-2.629h57.135
			c1.603,0,2.804,1.47,2.484,3.041l-0.563,2.761H64.11z"/>
		<g>
			<g>
				<g>
					<path style="fill:#407BFF;" d="M101.71,286.099l-3.997-0.873l0.733-3.354c0.077-0.355,0.428-0.58,0.783-0.502l2.712,0.593
						c0.355,0.077,0.58,0.428,0.502,0.783L101.71,286.099z"/>
					<path style="fill:#407BFF;" d="M109.381,287.775l-3.997-0.873l0.733-3.354c0.077-0.355,0.428-0.58,0.783-0.502l2.712,0.593
						c0.355,0.077,0.58,0.428,0.502,0.783L109.381,287.775z"/>
					<path style="fill:#407BFF;" d="M117.052,289.451l-3.997-0.873l0.733-3.354c0.077-0.355,0.428-0.58,0.783-0.502l2.712,0.593
						c0.355,0.078,0.58,0.428,0.502,0.783L117.052,289.451z"/>
					<path style="fill:#407BFF;" d="M124.723,291.127l-3.997-0.873l0.733-3.354c0.077-0.355,0.428-0.58,0.783-0.502l2.712,0.592
						c0.355,0.077,0.58,0.428,0.502,0.783L124.723,291.127z"/>
					<path style="fill:#407BFF;" d="M132.394,292.803l-3.997-0.873l0.733-3.354c0.078-0.355,0.428-0.58,0.783-0.502l2.712,0.593
						c0.355,0.077,0.58,0.428,0.502,0.783L132.394,292.803z"/>
					<path style="fill:#407BFF;" d="M140.065,294.479l-3.997-0.873l0.733-3.355c0.077-0.355,0.428-0.579,0.783-0.502l2.712,0.593
						c0.355,0.077,0.58,0.428,0.502,0.783L140.065,294.479z"/>
				</g>
				<g>
					<path style="fill:#407BFF;" d="M125.628,341.388l3.997,0.873l-0.733,3.354c-0.077,0.355-0.428,0.58-0.783,0.502l-2.712-0.592
						c-0.355-0.078-0.58-0.428-0.502-0.783L125.628,341.388z"/>
					<path style="fill:#407BFF;" d="M117.958,339.711l3.997,0.873l-0.733,3.354c-0.078,0.355-0.428,0.58-0.783,0.502l-2.712-0.592
						c-0.355-0.078-0.58-0.428-0.502-0.783L117.958,339.711z"/>
					<path style="fill:#407BFF;" d="M110.287,338.036l3.997,0.873l-0.733,3.354c-0.077,0.355-0.428,0.58-0.783,0.502l-2.712-0.592
						c-0.355-0.078-0.58-0.428-0.502-0.783L110.287,338.036z"/>
					<path style="fill:#407BFF;" d="M102.616,336.36l3.997,0.873l-0.733,3.354c-0.077,0.355-0.428,0.58-0.783,0.502l-2.712-0.592
						c-0.355-0.078-0.58-0.428-0.502-0.783L102.616,336.36z"/>
					<path style="fill:#407BFF;" d="M94.945,334.684l3.997,0.873l-0.733,3.354c-0.077,0.355-0.428,0.58-0.783,0.502l-2.712-0.592
						c-0.355-0.078-0.58-0.428-0.502-0.783L94.945,334.684z"/>
					<path style="fill:#407BFF;" d="M87.274,333.008l3.997,0.873l-0.733,3.354c-0.078,0.355-0.428,0.58-0.783,0.502l-2.712-0.592
						c-0.355-0.078-0.58-0.428-0.502-0.783L87.274,333.008z"/>
				</g>
			</g>
			<g style="opacity:0.4;">
				<g>
					<path style="fill:#FFFFFF;" d="M101.71,286.099l-3.997-0.873l0.733-3.354c0.077-0.355,0.428-0.58,0.783-0.502l2.712,0.593
						c0.355,0.077,0.58,0.428,0.502,0.783L101.71,286.099z"/>
					<path style="fill:#FFFFFF;" d="M109.381,287.775l-3.997-0.873l0.733-3.354c0.077-0.355,0.428-0.58,0.783-0.502l2.712,0.593
						c0.355,0.077,0.58,0.428,0.502,0.783L109.381,287.775z"/>
					<path style="fill:#FFFFFF;" d="M117.052,289.451l-3.997-0.873l0.733-3.354c0.077-0.355,0.428-0.58,0.783-0.502l2.712,0.593
						c0.355,0.078,0.58,0.428,0.502,0.783L117.052,289.451z"/>
					<path style="fill:#FFFFFF;" d="M124.723,291.127l-3.997-0.873l0.733-3.354c0.077-0.355,0.428-0.58,0.783-0.502l2.712,0.592
						c0.355,0.077,0.58,0.428,0.502,0.783L124.723,291.127z"/>
					<path style="fill:#FFFFFF;" d="M132.394,292.803l-3.997-0.873l0.733-3.354c0.078-0.355,0.428-0.58,0.783-0.502l2.712,0.593
						c0.355,0.077,0.58,0.428,0.502,0.783L132.394,292.803z"/>
					<path style="fill:#FFFFFF;" d="M140.065,294.479l-3.997-0.873l0.733-3.355c0.077-0.355,0.428-0.579,0.783-0.502l2.712,0.593
						c0.355,0.077,0.58,0.428,0.502,0.783L140.065,294.479z"/>
				</g>
				<g>
					<path style="fill:#FFFFFF;" d="M125.628,341.388l3.997,0.873l-0.733,3.354c-0.077,0.355-0.428,0.58-0.783,0.502l-2.712-0.592
						c-0.355-0.078-0.58-0.428-0.502-0.783L125.628,341.388z"/>
					<path style="fill:#FFFFFF;" d="M117.958,339.711l3.997,0.873l-0.733,3.354c-0.078,0.355-0.428,0.58-0.783,0.502l-2.712-0.592
						c-0.355-0.078-0.58-0.428-0.502-0.783L117.958,339.711z"/>
					<path style="fill:#FFFFFF;" d="M110.287,338.036l3.997,0.873l-0.733,3.354c-0.077,0.355-0.428,0.58-0.783,0.502l-2.712-0.592
						c-0.355-0.078-0.58-0.428-0.502-0.783L110.287,338.036z"/>
					<path style="fill:#FFFFFF;" d="M102.616,336.36l3.997,0.873l-0.733,3.354c-0.077,0.355-0.428,0.58-0.783,0.502l-2.712-0.592
						c-0.355-0.078-0.58-0.428-0.502-0.783L102.616,336.36z"/>
					<path style="fill:#FFFFFF;" d="M94.945,334.684l3.997,0.873l-0.733,3.354c-0.077,0.355-0.428,0.58-0.783,0.502l-2.712-0.592
						c-0.355-0.078-0.58-0.428-0.502-0.783L94.945,334.684z"/>
					<path style="fill:#FFFFFF;" d="M87.274,333.008l3.997,0.873l-0.733,3.354c-0.078,0.355-0.428,0.58-0.783,0.502l-2.712-0.592
						c-0.355-0.078-0.58-0.428-0.502-0.783L87.274,333.008z"/>
				</g>
			</g>
			<path style="fill:#263238;" d="M134.543,344.76l-50.501-11.034c-1.921-0.42-3.138-2.317-2.718-4.238l9.513-43.544
				c0.42-1.921,2.317-3.138,4.238-2.718l50.501,11.033c1.921,0.42,3.138,2.317,2.718,4.238l-9.513,43.544
				C138.361,343.962,136.464,345.179,134.543,344.76z"/>
			<path style="opacity:0.4;enable-background:new    ;" d="M88.931,334.793l-4.885-1.067c-1.925-0.42-3.139-2.313-2.718-4.238
				l9.513-43.543c0.421-1.925,2.313-3.139,4.238-2.718l4.885,1.067c-1.925-0.421-3.817,0.794-4.238,2.718l-9.513,43.543
				C85.792,332.48,87.007,334.373,88.931,334.793z"/>
			<g>
				<path style="fill:#407BFF;" d="M116.749,304.653l-7.16,17.962l-3.78-0.826l0.983-19.312l2.875,0.628l-1.069,15.109l5.329-14.179
					L116.749,304.653z"/>
			</g>
			<g>
				<path style="fill:#407BFF;" d="M116.505,316.717l-1.589-0.347l0.214-0.98c1.102,0.157,1.847-0.138,2.235-0.58l0.979,0.214
					l-2.024,9.267l-1.403-0.307L116.505,316.717z"/>
				<path style="fill:#407BFF;" d="M118.223,323.251l1.403,0.307l-0.304,1.391l-1.403-0.307L118.223,323.251z"/>
				<path style="fill:#407BFF;" d="M121.226,323.144l0.061-0.278l1.379,0.163l-0.066,0.305c-0.162,0.741,0.092,1.102,0.608,1.214
					c0.516,0.113,0.897-0.108,1.03-0.717l0.468-2.146c0.119-0.542-0.115-0.87-0.565-0.969c-0.503-0.11-0.949,0.152-1.073,0.722
					l-0.035,0.159l-1.35-0.295l1.157-5.295l4.011,0.876l-0.289,1.324l-2.661-0.582l-0.504,2.304c0.277-0.314,0.85-0.521,1.485-0.383
					c1.046,0.229,1.52,1.109,1.274,2.234l-0.509,2.329c-0.307,1.403-1.326,2.068-2.703,1.767
					C121.569,325.577,120.92,324.548,121.226,323.144z"/>
			</g>
			<g>
				<path style="fill:#407BFF;" d="M84.56,325.383l-0.873,3.997l-3.354-0.733c-0.355-0.078-0.58-0.428-0.502-0.783l0.592-2.712
					c0.077-0.355,0.428-0.579,0.783-0.502L84.56,325.383z"/>
				<path style="fill:#407BFF;" d="M86.236,317.712l-0.873,3.997l-3.354-0.733c-0.355-0.078-0.58-0.428-0.502-0.783l0.592-2.712
					c0.078-0.355,0.428-0.58,0.783-0.502L86.236,317.712z"/>
				<path style="fill:#407BFF;" d="M87.912,310.041l-0.873,3.997l-3.354-0.733c-0.355-0.078-0.58-0.428-0.502-0.783l0.592-2.712
					c0.078-0.355,0.428-0.58,0.783-0.502L87.912,310.041z"/>
				<path style="fill:#407BFF;" d="M89.588,302.37l-0.873,3.997l-3.354-0.733c-0.355-0.078-0.58-0.428-0.502-0.783l0.592-2.712
					c0.078-0.355,0.428-0.58,0.783-0.502L89.588,302.37z"/>
				<path style="fill:#407BFF;" d="M91.263,294.699l-0.873,3.997l-3.354-0.733c-0.355-0.078-0.58-0.428-0.502-0.783l0.592-2.712
					c0.077-0.355,0.428-0.579,0.783-0.502L91.263,294.699z"/>
				<path style="fill:#407BFF;" d="M92.939,287.028l-0.873,3.997l-3.354-0.733c-0.355-0.078-0.58-0.428-0.502-0.783l0.592-2.712
					c0.077-0.355,0.428-0.58,0.783-0.502L92.939,287.028z"/>
			</g>
			<g style="opacity:0.4;">
				<path style="fill:#FFFFFF;" d="M84.56,325.383l-0.873,3.997l-3.354-0.733c-0.355-0.078-0.58-0.428-0.502-0.783l0.592-2.712
					c0.077-0.355,0.428-0.579,0.783-0.502L84.56,325.383z"/>
				<path style="fill:#FFFFFF;" d="M86.236,317.712l-0.873,3.997l-3.354-0.733c-0.355-0.078-0.58-0.428-0.502-0.783l0.592-2.712
					c0.078-0.355,0.428-0.58,0.783-0.502L86.236,317.712z"/>
				<path style="fill:#FFFFFF;" d="M87.912,310.041l-0.873,3.997l-3.354-0.733c-0.355-0.078-0.58-0.428-0.502-0.783l0.592-2.712
					c0.078-0.355,0.428-0.58,0.783-0.502L87.912,310.041z"/>
				<path style="fill:#FFFFFF;" d="M89.588,302.37l-0.873,3.997l-3.354-0.733c-0.355-0.078-0.58-0.428-0.502-0.783l0.592-2.712
					c0.078-0.355,0.428-0.58,0.783-0.502L89.588,302.37z"/>
				<path style="fill:#FFFFFF;" d="M91.263,294.699l-0.873,3.997l-3.354-0.733c-0.355-0.078-0.58-0.428-0.502-0.783l0.592-2.712
					c0.077-0.355,0.428-0.579,0.783-0.502L91.263,294.699z"/>
				<path style="fill:#FFFFFF;" d="M92.939,287.028l-0.873,3.997l-3.354-0.733c-0.355-0.078-0.58-0.428-0.502-0.783l0.592-2.712
					c0.077-0.355,0.428-0.58,0.783-0.502L92.939,287.028z"/>
			</g>
		</g>
		<rect x="71.111" y="339.626" style="fill:#407BFF;" width="79.324" height="76.431"/>
		<rect x="71.111" y="339.626" style="opacity:0.2;enable-background:new    ;" width="13.307" height="76.431"/>
		<path style="fill:#407BFF;" d="M84.418,339.626l-7.268-8.901c-1.075-1.317-2.685-2.08-4.385-2.08h-5.859
			c-1.866,0-2.901,2.162-1.73,3.615l5.935,7.367H84.418z"/>
	</g>
</g>
<g id="Character">
	<g id="_x3C_Group_x3E__9_">
		<path style="fill:#407BFF;" d="M273.73,200.81c-5.21,2.58-16.09,7.15-26.31,6.42c-2.51-0.18-4.98-0.67-7.31-1.6
			c-3.35-1.33-5.48-4.71-6.75-9.19c-4.63-16.19,1.85-46.75,1.85-46.75c9.42,1.54,18.52,38.27,22.08,40.28
			c3.56,2.01,18.71,1.31,18.71,1.31l0.5,4.49C276.73,197.87,275.62,199.88,273.73,200.81z"/>
		<path style="opacity:0.3;enable-background:new    ;" d="M247.42,207.23c-2.51-0.18-4.98-0.67-7.31-1.6
			c-3.35-1.33-5.48-4.71-6.75-9.19c0.36-2.42,0.79-4.13,0.79-4.13l17.32-4.98C251.47,187.33,252.19,199.84,247.42,207.23z"/>
		<polygon style="fill:#B97964;" points="233.845,408.375 242.213,409.259 243.783,391.212 235.416,390.328 		"/>
		<polygon style="fill:#B97964;" points="192.094,407.765 200.201,407.765 200.871,388.983 192.754,388.983 		"/>
		<path style="fill:#263238;" d="M201.325,406.826h-9.85c-0.332,0.002-0.619,0.233-0.691,0.557l-1.599,7.22
			c-0.137,0.646,0.276,1.281,0.923,1.418c0.087,0.018,0.175,0.027,0.263,0.026c3.187-0.052,5.508-0.248,9.51-0.248
			c2.465,0,9.902,0.258,13.305,0.258s3.847-3.362,2.455-3.672c-6.251-1.362-10.954-3.249-12.955-5.044
			C202.316,407.002,201.828,406.817,201.325,406.826z"/>
		<path style="fill:#407BFF;" d="M201.882,407.951c-0.077-0.02-0.134-0.086-0.144-0.165c-0.013-0.076,0.025-0.151,0.093-0.186
			c0.289-0.186,2.909-1.795,3.806-1.331c0.206,0.098,0.336,0.308,0.33,0.536c0.054,0.39-0.098,0.781-0.402,1.031
			c-0.457,0.311-1.007,0.457-1.557,0.413C203.29,408.229,202.577,408.129,201.882,407.951z M202.439,407.682
			c0.946,0.319,1.978,0.268,2.888-0.144c0.194-0.174,0.29-0.432,0.258-0.691c-0.01-0.155-0.072-0.227-0.124-0.227
			c-0.076-0.041-0.162-0.059-0.248-0.052C204.226,406.759,203.284,407.137,202.439,407.682z"/>
		<path style="fill:#407BFF;" d="M201.831,407.992c-0.059-0.039-0.094-0.105-0.093-0.175c0.01-0.113,0.206-2.445,1.145-3.208
			c0.223-0.196,0.52-0.286,0.815-0.247c0.301-0.001,0.56,0.211,0.619,0.505c0.165,0.856-1.454,2.64-2.29,3.094h-0.093
			C201.904,407.982,201.867,407.992,201.831,407.992z M203.13,404.836c-0.57,0.728-0.905,1.614-0.959,2.537
			c0.835-0.629,1.867-1.98,1.764-2.506c-0.01-0.052-0.031-0.196-0.278-0.196h-0.093C203.404,404.671,203.25,404.73,203.13,404.836z"
			/>
		<path style="fill:#263238;" d="M243.098,406.568h-9.85c-0.332,0.002-0.619,0.233-0.691,0.557l-1.599,7.22
			c-0.137,0.646,0.276,1.281,0.923,1.418c0.087,0.018,0.175,0.027,0.263,0.026c3.187-0.051,5.508-0.247,9.51-0.247
			c2.465,0,9.902,0.258,13.305,0.258c3.404,0,3.847-3.362,2.455-3.672c-6.251-1.362-10.954-3.249-12.955-5.044
			C244.089,406.744,243.601,406.559,243.098,406.568z"/>
		<path style="fill:#407BFF;" d="M243.655,407.693c-0.077-0.02-0.134-0.086-0.144-0.165c-0.013-0.076,0.025-0.151,0.093-0.186
			c0.289-0.186,2.909-1.795,3.806-1.331c0.206,0.098,0.336,0.308,0.33,0.536c0.054,0.39-0.098,0.781-0.402,1.031
			c-0.457,0.311-1.006,0.457-1.557,0.413C245.063,407.971,244.35,407.871,243.655,407.693z M244.212,407.424
			c0.946,0.32,1.978,0.268,2.888-0.144c0.194-0.174,0.291-0.432,0.258-0.691c-0.01-0.155-0.072-0.227-0.124-0.227
			c-0.076-0.041-0.162-0.059-0.248-0.051C245.999,406.501,245.057,406.879,244.212,407.424z"/>
		<path style="fill:#407BFF;" d="M243.604,407.734c-0.059-0.039-0.094-0.105-0.093-0.176c0.01-0.113,0.206-2.444,1.145-3.208
			c0.223-0.196,0.52-0.286,0.815-0.248c0.301-0.001,0.56,0.211,0.619,0.505c0.165,0.856-1.454,2.641-2.29,3.094h-0.093
			C243.676,407.724,243.64,407.735,243.604,407.734z M244.903,404.578c-0.57,0.729-0.905,1.614-0.959,2.537
			c0.835-0.629,1.867-1.98,1.764-2.506c-0.01-0.052-0.031-0.196-0.279-0.196h-0.093
			C245.177,404.414,245.023,404.472,244.903,404.578z"/>
		<polygon style="opacity:0.2;enable-background:new    ;" points="235.416,390.328 243.783,391.212 242.966,400.52 
			234.599,399.636 		"/>
		<polygon style="opacity:0.2;enable-background:new    ;" points="192.754,388.993 200.871,388.993 200.521,398.678 
			192.403,398.678 		"/>
		<path style="fill:#263238;" d="M196.102,224.235h43.035c4.092,22.344,16.9,101.414,7.711,171.865l-14.569-1.807
			c0,0,1.349-93.527-11.515-128.104c-1.479,18.505-3.236,38.194-4.762,48.67C212.258,340.647,204.244,397,204.244,397h-14.832
			c0,0,3.032-53.94,4.435-79.283C195.38,290.205,196.042,229.886,196.102,224.235z"/>
		<path style="opacity:0.2;enable-background:new    ;" d="M220.768,266.194c1.898,5.095,3.476,11.459,4.807,18.617
			c1.203-16.466-3.61-33.931-3.61-33.931L220.768,266.194z"/>
		<g>
			<polygon style="fill:#407BFF;" points="248.514,399.495 230.482,396.812 231.033,391.818 249.791,394.281 			"/>
			<polygon style="opacity:0.6;fill:#FFFFFF;enable-background:new    ;" points="248.514,399.495 230.482,396.812 231.033,391.818 
				249.791,394.281 			"/>
		</g>
		<g>
			<polygon style="fill:#407BFF;" points="206.029,397.12 188.535,397.12 188.535,391.891 206.689,391.551 			"/>
			<polygon style="opacity:0.6;fill:#FFFFFF;enable-background:new    ;" points="206.029,397.12 188.535,397.12 188.535,391.891 
				206.689,391.551 			"/>
		</g>
		<polygon style="fill:#407BFF;" points="195.187,240.341 195.187,244.989 242.857,242.665 242.857,238.462 		"/>
		<path style="fill:#B97964;" d="M271.803,193.984c0,0-0.276,2.218,3.285,4.161h4.549c0,0,1.78,1.055,2.967,1.005
			c1.187-0.05,6.881-4.259,7.912-5.166c1.031-0.907-1.78-11.095-1.78-11.095L271.803,193.984z"/>
		<g>
			<path style="fill:#407BFF;" d="M235.21,149.691c0,0-27.376-1.332-47.77,3.816c0,0,6.591,59.04,6.627,86.165
				c0.002,1.184,0.982,2.124,2.166,2.083l45.978-1.601c1.158-0.04,2.063-1.007,2.021-2.165
				C243.818,226.779,241.554,173.438,235.21,149.691z"/>
			<path style="opacity:0.2;enable-background:new    ;" d="M244.23,237.99c0.04,1.16-0.86,2.12-2.02,2.16l-45.98,1.6
				c-1.18,0.05-2.16-0.89-2.16-2.08c-0.01-5.52-0.29-12.37-0.73-19.77c-0.21-3.34-0.44-6.79-0.7-10.29
				c-0.29-4.1-0.62-8.26-0.96-12.36c-0.78-9.36-1.63-18.43-2.37-25.86c-1.06-10.61-1.87-17.88-1.87-17.88
				c20.39-5.15,47.77-3.82,47.77-3.82C241.55,173.44,243.82,226.78,244.23,237.99z"/>
		</g>
		<path style="fill:#B97964;" d="M203.007,150.746c3.95,3.589,13.628,2.262,13.628,2.262s6.041-1.654,4.772-3.541
			c-3.558-0.588-5.281-2.249-5.993-4.373c-0.412-1.238-0.475-2.63-0.361-4.064c0.052-0.753,0.165-1.516,0.299-2.269l-11.964-8.86
			C204.956,135.749,206.874,146.507,203.007,150.746z"/>
		<path style="opacity:0.2;enable-background:new    ;" d="M206.152,135.533c0.475,7.179,6.374,9.159,9.262,9.561
			c-0.412-1.238-0.475-2.63-0.361-4.064L206.152,135.533z"/>
		<g>
			<path style="fill:#263238;" d="M226.798,112.841c0,0,1.699,11.174-4.232,15.471c-5.931,4.298-5.931-16.503-5.931-16.503
				L226.798,112.841z"/>
			<path style="fill:#B97964;" d="M205.348,137.193c2.877,4.136,7.571,5.219,11.645,3.93c2.62-0.825,4.982-2.641,6.446-5.25
				c0.196-0.34,0.371-0.701,0.536-1.073c2.919-6.828,3.847-18.772-3.373-23.248c-5.126-3.228-11.913-1.691-15.141,3.445
				c-0.928,1.454-1.485,3.115-1.65,4.837C202.924,127.817,202.027,132.469,205.348,137.193z"/>
			<path style="fill:#263238;" d="M215.449,124.1c-0.154,0.631,0.137,1.222,0.566,1.295c0.428,0.072,0.851-0.398,0.964-1.039
				c0.114-0.641-0.148-1.225-0.566-1.295C215.995,122.991,215.565,123.448,215.449,124.1z"/>
			<path style="fill:#263238;" d="M222.736,125.344c-0.154,0.631,0.148,1.225,0.566,1.295c0.418,0.07,0.851-0.398,0.964-1.039
				c0.114-0.641-0.147-1.225-0.566-1.295C223.282,124.235,222.842,124.733,222.736,125.344z"/>
			<path style="fill:#A24E3F;" d="M220.367,125.266c0.431,2.103,1.15,4.135,2.138,6.041c-1.006,0.488-2.176,0.506-3.197,0.049
				L220.367,125.266z"/>
			<path style="fill:#263238;" d="M213.591,121.354c0.137,0.044,0.286,0.011,0.392-0.085c0.696-0.685,1.674-1.002,2.639-0.854
				c0.205,0.05,0.411-0.075,0.462-0.279c0.05-0.205-0.075-0.411-0.279-0.462c-0.001,0-0.001,0-0.002,0
				c-1.215-0.218-2.461,0.167-3.341,1.033c-0.158,0.14-0.173,0.381-0.033,0.539c0.002,0.002,0.004,0.005,0.006,0.007
				C213.482,121.294,213.534,121.328,213.591,121.354z"/>
			<path style="fill:#263238;" d="M217.691,134.515L217.691,134.515c-1.92-0.036-3.703-1.006-4.776-2.599
				c-0.055-0.097-0.023-0.221,0.072-0.279c0.091-0.058,0.212-0.032,0.271,0.059c0.003,0.004,0.005,0.009,0.008,0.013
				c1.022,1.453,2.669,2.34,4.445,2.393c0.108-0.001,0.196,0.087,0.197,0.195c0,0.007,0,0.015-0.001,0.022
				c0.001,0.108-0.087,0.196-0.195,0.197C217.705,134.516,217.698,134.516,217.691,134.515z"/>
			<path style="fill:#263238;" d="M226.296,123.366c0.066,0.041,0.143,0.059,0.22,0.054c0.203-0.056,0.323-0.266,0.267-0.469
				c-0.001-0.003-0.001-0.005-0.002-0.008c-0.319-1.197-1.2-2.164-2.362-2.592c-0.202-0.061-0.415,0.053-0.476,0.254l0,0.001
				c-0.056,0.202,0.057,0.411,0.255,0.477l0,0c0.908,0.365,1.589,1.137,1.839,2.083C226.09,123.267,226.185,123.34,226.296,123.366z
				"/>
			<path style="fill:#263238;" d="M211.306,110.95v3.566c-1.227,0.473-2.081,1.689-1.719,3.138c0.774,3.094-1.463,7.474-3.954,9.025
				c0,0,0.086-1.289-1.031-1.118c-1.117,0.172-1.633,6.876,0.086,10.314c0,0-2.836-3.266-3.782-10.486
				c-0.874-6.677-0.423-12.098,1.213-14.44H211.306z"/>
			<path style="fill:#B97964;" d="M199.244,125.735c0.572,1.941,1.891,3.576,3.667,4.546c2.361,1.268,4.125-0.705,3.965-3.241
				c-0.164-2.252-1.564-5.696-4.179-5.893C200.082,120.949,198.572,123.343,199.244,125.735z"/>
			<path style="fill:#263238;" d="M211.306,114.516c0,0,2.318,2.297,4.566,0.615c0,0,2.545,2.121,4.622,0.615
				c0,0,1.136,1.923,3,2.154c1.863,0.231,1.869-1.692,1.869-1.692s2.944,1.692,4.032,0.901s-0.593-3.956-0.593-3.956
				s1.385-0.747,0.495-3.291c-0.89-2.544-5.004-1.951-5.004-1.951s0.158-2.374-2.71-4.846c-2.868-2.473-4.577,0.593-4.577,0.593
				s-2.779-3.758-6.222-3.264c-3.443,0.494-3.047,2.868-3.047,2.868s-3.956-2.473-5.736,0c-1.78,2.473,0,3.659,0,3.659
				s-3.956,1.328-3.758,4.027c0.198,2.698,2.227,2.303,2.227,2.303s-1.139,1.286,1.433,2.374c2.571,1.088,4.985-1.582,4.985-1.582
				s-1.001,1.532,0.85,2.571C209.587,117.654,211.306,114.516,211.306,114.516z"/>
		</g>
		<path style="fill:#407BFF;" d="M216.635,153.008c0,0-13.957-9.483-18.401-10.015c-4.443-0.532-3.652,5.008-3.652,5.008
			s-3.429-0.001-2.11,4.219c1.319,4.22,20.277,6.547,27.281,4.46c7.004-2.087,11.166-6.015,10.008-9.721
			c-1.158-3.706-4.398-0.531-4.398-0.531s-1.883-3.492-4.596-2.674C218.055,144.571,216.635,153.008,216.635,153.008z"/>
		<path style="fill:none;stroke:#FFFFFF;stroke-linecap:round;stroke-linejoin:round;stroke-miterlimit:10;" d="M214.57,156.68
			c4.061,7.003-2.162,14.962,0.987,22.207"/>
		<path style="fill:none;stroke:#FFFFFF;stroke-linecap:round;stroke-linejoin:round;stroke-miterlimit:10;" d="M220.906,155.253
			c0,0,3.577,2.882,5.242,9.089c1.665,6.208-0.84,12.472-0.84,12.472"/>
		<g>
			<g>
				<g>
					<path style="fill:#407BFF;" d="M245.782,149.694l-3.992,0.895l-0.751-3.35c-0.079-0.354,0.143-0.706,0.498-0.786l2.709-0.607
						c0.355-0.079,0.706,0.143,0.786,0.498L245.782,149.694z"/>
					<path style="fill:#407BFF;" d="M253.444,147.977l-3.992,0.895l-0.751-3.35c-0.079-0.354,0.143-0.706,0.498-0.786l2.709-0.607
						c0.354-0.079,0.706,0.144,0.786,0.498L253.444,147.977z"/>
					<path style="fill:#407BFF;" d="M261.106,146.259l-3.992,0.895l-0.751-3.35c-0.079-0.354,0.143-0.706,0.498-0.786l2.709-0.607
						c0.354-0.079,0.706,0.143,0.786,0.498L261.106,146.259z"/>
					<path style="fill:#407BFF;" d="M268.767,144.542l-3.992,0.895l-0.751-3.35c-0.079-0.354,0.143-0.706,0.498-0.786l2.709-0.607
						c0.354-0.079,0.706,0.144,0.786,0.498L268.767,144.542z"/>
					<path style="fill:#407BFF;" d="M276.429,142.824l-3.992,0.895l-0.751-3.35c-0.079-0.354,0.144-0.706,0.498-0.786l2.709-0.607
						c0.354-0.079,0.706,0.143,0.786,0.498L276.429,142.824z"/>
					<path style="fill:#407BFF;" d="M284.091,141.107l-3.992,0.895l-0.751-3.35c-0.079-0.354,0.143-0.706,0.498-0.786l2.709-0.607
						c0.354-0.079,0.706,0.144,0.786,0.498L284.091,141.107z"/>
				</g>
				<g>
					<path style="fill:#407BFF;" d="M290.796,189.726l3.992-0.895l0.751,3.35c0.079,0.354-0.143,0.706-0.498,0.786l-2.709,0.607
						c-0.354,0.079-0.706-0.143-0.786-0.498L290.796,189.726z"/>
					<path style="fill:#407BFF;" d="M283.134,191.444l3.992-0.895l0.751,3.35c0.079,0.354-0.143,0.706-0.498,0.786l-2.709,0.607
						c-0.354,0.079-0.706-0.143-0.786-0.498L283.134,191.444z"/>
					<path style="fill:#407BFF;" d="M275.473,193.161l3.992-0.895l0.751,3.35c0.079,0.354-0.144,0.706-0.498,0.786l-2.709,0.607
						c-0.354,0.079-0.706-0.143-0.786-0.498L275.473,193.161z"/>
					<path style="fill:#407BFF;" d="M267.811,194.879l3.992-0.895l0.751,3.35c0.079,0.354-0.143,0.706-0.498,0.786l-2.709,0.607
						c-0.354,0.079-0.706-0.143-0.786-0.498L267.811,194.879z"/>
					<path style="fill:#407BFF;" d="M260.149,196.596l3.992-0.895l0.751,3.35c0.079,0.354-0.143,0.706-0.498,0.786l-2.709,0.607
						c-0.354,0.079-0.706-0.143-0.786-0.498L260.149,196.596z"/>
					<path style="fill:#407BFF;" d="M252.488,198.313l3.992-0.895l0.751,3.35c0.079,0.354-0.143,0.706-0.498,0.786l-2.709,0.607
						c-0.354,0.079-0.706-0.143-0.786-0.498L252.488,198.313z"/>
				</g>
			</g>
			<g style="opacity:0.4;enable-background:new    ;">
				<g>
					<path d="M245.782,149.694l-3.992,0.895l-0.751-3.35c-0.079-0.354,0.143-0.706,0.498-0.786l2.709-0.607
						c0.355-0.079,0.706,0.143,0.786,0.498L245.782,149.694z"/>
					<path d="M253.444,147.977l-3.992,0.895l-0.751-3.35c-0.079-0.354,0.143-0.706,0.498-0.786l2.709-0.607
						c0.354-0.079,0.706,0.144,0.786,0.498L253.444,147.977z"/>
					<path d="M261.106,146.259l-3.992,0.895l-0.751-3.35c-0.079-0.354,0.143-0.706,0.498-0.786l2.709-0.607
						c0.354-0.079,0.706,0.143,0.786,0.498L261.106,146.259z"/>
					<path d="M268.767,144.542l-3.992,0.895l-0.751-3.35c-0.079-0.354,0.143-0.706,0.498-0.786l2.709-0.607
						c0.354-0.079,0.706,0.144,0.786,0.498L268.767,144.542z"/>
					<path d="M276.429,142.824l-3.992,0.895l-0.751-3.35c-0.079-0.354,0.144-0.706,0.498-0.786l2.709-0.607
						c0.354-0.079,0.706,0.143,0.786,0.498L276.429,142.824z"/>
					<path d="M284.091,141.107l-3.992,0.895l-0.751-3.35c-0.079-0.354,0.143-0.706,0.498-0.786l2.709-0.607
						c0.354-0.079,0.706,0.144,0.786,0.498L284.091,141.107z"/>
				</g>
				<g>
					<path d="M290.796,189.726l3.992-0.895l0.751,3.35c0.079,0.354-0.143,0.706-0.498,0.786l-2.709,0.607
						c-0.354,0.079-0.706-0.143-0.786-0.498L290.796,189.726z"/>
					<path d="M283.134,191.444l3.992-0.895l0.751,3.35c0.079,0.354-0.143,0.706-0.498,0.786l-2.709,0.607
						c-0.354,0.079-0.706-0.143-0.786-0.498L283.134,191.444z"/>
					<path d="M275.473,193.161l3.992-0.895l0.751,3.35c0.079,0.354-0.144,0.706-0.498,0.786l-2.709,0.607
						c-0.354,0.079-0.706-0.143-0.786-0.498L275.473,193.161z"/>
					<path d="M267.811,194.879l3.992-0.895l0.751,3.35c0.079,0.354-0.143,0.706-0.498,0.786l-2.709,0.607
						c-0.354,0.079-0.706-0.143-0.786-0.498L267.811,194.879z"/>
					<path d="M260.149,196.596l3.992-0.895l0.751,3.35c0.079,0.354-0.143,0.706-0.498,0.786l-2.709,0.607
						c-0.354,0.079-0.706-0.143-0.786-0.498L260.149,196.596z"/>
					<path d="M252.488,198.313l3.992-0.895l0.751,3.35c0.079,0.354-0.143,0.706-0.498,0.786l-2.709,0.607
						c-0.354,0.079-0.706-0.143-0.786-0.498L252.488,198.313z"/>
				</g>
			</g>
			<path style="fill:#263238;" d="M300.301,189.022l-50.441,11.306c-1.919,0.43-3.823-0.777-4.253-2.695l-9.749-43.492
				c-0.43-1.919,0.777-3.823,2.695-4.253l50.441-11.307c1.919-0.43,3.823,0.777,4.253,2.695l9.749,43.492
				C303.427,186.688,302.22,188.592,300.301,189.022z"/>
			<path style="opacity:0.4;enable-background:new    ;" d="M254.743,199.233l-4.879,1.094c-1.922,0.431-3.822-0.773-4.253-2.695
				l-9.749-43.491c-0.431-1.922,0.773-3.822,2.695-4.252l4.879-1.094c-1.922,0.431-3.126,2.33-2.695,4.253l9.749,43.491
				C250.922,198.46,252.821,199.664,254.743,199.233z"/>
			<g>
				<path style="fill:#FFFFFF;" d="M267.245,160.169l1.088,19.306l-3.775,0.847l-7.257-17.923l2.871-0.644l5.406,14.149
					l-1.151-15.103L267.245,160.169z"/>
			</g>
			<g>
				<path style="fill:#FFFFFF;" d="M273.645,177.104l2.776-0.622l0.296,1.322l-4.442,0.996l-0.272-1.217l1.317-3.726
					c0.494-1.388,0.577-2.073,0.417-2.787c-0.145-0.648-0.529-0.937-1.071-0.815c-0.542,0.122-0.766,0.547-0.621,1.195l0.122,0.542
					l-1.349,0.302l-0.098-0.436c-0.338-1.508,0.275-2.617,1.663-2.929c1.388-0.311,2.427,0.36,2.747,1.787
					c0.225,1.004,0.105,1.893-0.498,3.598L273.645,177.104z"/>
				<path style="fill:#FFFFFF;" d="M277.699,176.124l1.401-0.314l0.311,1.389l-1.401,0.314L277.699,176.124z"/>
				<path style="fill:#FFFFFF;" d="M280.419,174.765l-1.132-5.051c-0.3-1.336,0.398-2.436,1.747-2.738
					c1.349-0.302,2.449,0.395,2.749,1.731l1.132,5.051c0.299,1.335-0.398,2.436-1.747,2.738
					C281.819,176.798,280.718,176.1,280.419,174.765z M283.513,174.072l-1.132-5.051c-0.13-0.582-0.535-0.838-1.051-0.723
					c-0.516,0.116-0.772,0.521-0.642,1.103l1.132,5.051c0.13,0.581,0.535,0.837,1.051,0.722
					C283.387,175.058,283.644,174.653,283.513,174.072z"/>
			</g>
			<g>
				<path style="fill:#407BFF;" d="M246.809,192.545l0.895,3.992l-3.35,0.751c-0.354,0.079-0.706-0.143-0.786-0.498l-0.607-2.709
					c-0.079-0.354,0.143-0.706,0.498-0.786L246.809,192.545z"/>
				<path style="fill:#407BFF;" d="M245.092,184.884l0.895,3.992l-3.35,0.751c-0.354,0.079-0.706-0.143-0.786-0.498l-0.607-2.709
					c-0.08-0.354,0.143-0.706,0.498-0.786L245.092,184.884z"/>
				<path style="fill:#407BFF;" d="M243.374,177.222l0.895,3.992l-3.35,0.751c-0.354,0.079-0.706-0.144-0.786-0.498l-0.607-2.709
					c-0.079-0.354,0.143-0.706,0.498-0.786L243.374,177.222z"/>
				<path style="fill:#407BFF;" d="M241.657,169.56l0.895,3.992l-3.35,0.751c-0.354,0.079-0.706-0.144-0.786-0.498l-0.607-2.709
					c-0.08-0.354,0.143-0.706,0.498-0.786L241.657,169.56z"/>
				<path style="fill:#407BFF;" d="M239.94,161.898l0.895,3.992l-3.35,0.751c-0.354,0.079-0.706-0.143-0.786-0.498l-0.607-2.709
					c-0.079-0.355,0.143-0.706,0.498-0.786L239.94,161.898z"/>
				<path style="fill:#407BFF;" d="M238.222,154.237l0.895,3.992l-3.351,0.751c-0.354,0.079-0.706-0.143-0.786-0.498l-0.607-2.709
					c-0.079-0.355,0.143-0.706,0.498-0.786L238.222,154.237z"/>
			</g>
			<g style="opacity:0.4;enable-background:new    ;">
				<path d="M246.809,192.545l0.895,3.992l-3.35,0.751c-0.354,0.079-0.706-0.143-0.786-0.498l-0.607-2.709
					c-0.079-0.354,0.143-0.706,0.498-0.786L246.809,192.545z"/>
				<path d="M245.092,184.884l0.895,3.992l-3.35,0.751c-0.354,0.079-0.706-0.143-0.786-0.498l-0.607-2.709
					c-0.08-0.354,0.143-0.706,0.498-0.786L245.092,184.884z"/>
				<path d="M243.374,177.222l0.895,3.992l-3.35,0.751c-0.354,0.079-0.706-0.144-0.786-0.498l-0.607-2.709
					c-0.079-0.354,0.143-0.706,0.498-0.786L243.374,177.222z"/>
				<path d="M241.657,169.56l0.895,3.992l-3.35,0.751c-0.354,0.079-0.706-0.144-0.786-0.498l-0.607-2.709
					c-0.08-0.354,0.143-0.706,0.498-0.786L241.657,169.56z"/>
				<path d="M239.94,161.898l0.895,3.992l-3.35,0.751c-0.354,0.079-0.706-0.143-0.786-0.498l-0.607-2.709
					c-0.079-0.355,0.143-0.706,0.498-0.786L239.94,161.898z"/>
				<path d="M238.222,154.237l0.895,3.992l-3.351,0.751c-0.354,0.079-0.706-0.143-0.786-0.498l-0.607-2.709
					c-0.079-0.355,0.143-0.706,0.498-0.786L238.222,154.237z"/>
			</g>
		</g>
		<path style="fill:#407BFF;" d="M211.306,212.267l2.027,1.074c0,0-2.15,15.428-7.181,18.791l-2.064-2.374
			C204.088,229.758,211.206,220.49,211.306,212.267z"/>
		<path style="fill:#407BFF;" d="M236.674,210.967l-2.52,1.3c0,0,4.663,14.92,7.672,18.282l1.717-2.374
			C243.543,228.176,237.809,218.681,236.674,210.967z"/>
		<path style="opacity:0.2;enable-background:new    ;" d="M211.06,203.12c0,0-6.45,13.08-17.72,16.78
			c-0.21-3.34-0.44-6.79-0.7-10.29c-0.29-4.1-0.62-8.26-0.96-12.36L211.06,203.12z"/>
		<path style="fill:#B97964;" d="M219.754,192.992l13.004-4.377c0,0,11.67-10.4,14.242-10.343c2.571,0.057,4.747,6.58,5.934,9.055
			c1.187,2.475-11.014,7.497-12.826,8.547c-1.812,1.049-4.333,0-4.333,0l-13.271,5.797L219.754,192.992z"/>
		<path style="fill:#407BFF;" d="M187.445,153.511c-12.115,1.61-5.84,47.237,1.967,56.204c6.521,7.49,30.305-3.511,37.964-7.339
			c1.381-0.69,2.039-2.293,1.551-3.758l-2.239-6.714c-0.515-1.545-2.129-2.432-3.707-2.029c-6.451,1.644-22.006,5.327-23.896,3.119
			c-2.392-2.795-5.557-16.502-5.03-25.209C194.582,159.077,187.445,153.511,187.445,153.511z"/>
		<polygon style="fill:#407BFF;" points="224.803,189.971 228.969,200.414 232.703,198.145 229.087,188.956 		"/>
		<polygon style="opacity:0.3;enable-background:new    ;" points="224.803,189.971 228.969,200.414 232.703,198.145 
			229.087,188.956 		"/>
	</g>
</g>
<g id="Screen">
	<g>
		<g>
			<path style="fill:#407BFF;enable-background:new    ;" d="M426.418,68.966v287.952c0,2.368-1.904,4.208-4.272,4.208H288.135
				c-1.066,0-2.004-0.401-2.678-1.075c-0.71-0.692-1.139-1.676-1.139-2.787V68.62c0-1.886,1.385-3.534,3.27-3.534h38.057
				c1.075,0,2.049,0.701,2.451,1.713l1.576,3.88c0.401,1.002,1.375,1.694,2.45,1.694h46.574c1.075,0,2.05-0.665,2.45-1.667
				l1.576-3.899c0.401-1.011,1.376-1.722,2.45-1.722h37.51C424.76,65.086,426.418,66.889,426.418,68.966z"/>
			<path style="fill:#407BFF;" d="M432.418,68.966v287.952c0,2.368-1.904,4.208-4.272,4.208H294.135
				c-1.066,0-2.004-0.401-2.678-1.075c-0.71-0.692-1.139-1.676-1.139-2.787V68.62c0-1.886,1.385-3.534,3.27-3.534h38.057
				c1.075,0,2.049,0.701,2.451,1.713l1.576,3.88c0.401,1.002,1.375,1.694,2.45,1.694h46.574c1.075,0,2.05-0.665,2.45-1.667
				l1.576-3.899c0.401-1.011,1.376-1.722,2.45-1.722h37.51C430.76,65.086,432.418,66.889,432.418,68.966z"/>
			<path style="opacity:0.4;fill:#FFFFFF;" d="M432.418,68.966v287.952c0,2.368-1.904,4.208-4.272,4.208H294.135
				c-1.066,0-2.004-0.401-2.678-1.075c-0.71-0.692-1.139-1.676-1.139-2.787V68.62c0-1.886,1.385-3.534,3.27-3.534h38.057
				c1.075,0,2.049,0.701,2.451,1.713l1.576,3.88c0.401,1.002,1.375,1.694,2.45,1.694h46.574c1.075,0,2.05-0.665,2.45-1.667
				l1.576-3.899c0.401-1.011,1.376-1.722,2.45-1.722h37.51C430.76,65.086,432.418,66.889,432.418,68.966z"/>
			<g>
				<g>
					
						<rect x="307.986" y="74.046" transform="matrix(-1 -1.224647e-16 1.224647e-16 -1 617.9517 150.732)" style="opacity:0.6;fill:#FFFFFF;enable-background:new    ;" width="1.98" height="2.64"/>
					
						<rect x="304.759" y="73.165" transform="matrix(-1 -1.224647e-16 1.224647e-16 -1 611.4973 149.8514)" style="opacity:0.6;fill:#FFFFFF;enable-background:new    ;" width="1.98" height="3.521"/>
					
						<rect x="301.531" y="72.285" transform="matrix(-1 -1.224647e-16 1.224647e-16 -1 605.043 148.9707)" style="opacity:0.6;fill:#FFFFFF;enable-background:new    ;" width="1.98" height="4.401"/>
					
						<rect x="298.304" y="71.404" transform="matrix(-1 -1.224647e-16 1.224647e-16 -1 598.5886 148.09)" style="opacity:0.6;fill:#FFFFFF;enable-background:new    ;" width="1.98" height="5.282"/>
				</g>
				<g>
					<rect x="413.1" y="73.083" style="opacity:0.6;fill:#FFFFFF;enable-background:new    ;" width="1.174" height="2.64"/>
					
						<rect x="415.081" y="72.119" transform="matrix(-1 -1.224647e-16 1.224647e-16 -1 839.5131 148.8052)" style="opacity:0.6;fill:#FFFFFF;enable-background:new    ;" width="9.351" height="4.567"/>
				</g>
			</g>
			<g>
				<path style="fill:#407BFF;" d="M316.306,284.643h90.125c2.809,0,5.087,2.277,5.087,5.086l0,0c0,2.809-2.277,5.087-5.087,5.087
					h-90.125c-2.809,0-5.087-2.277-5.087-5.087l0,0C311.219,286.92,313.496,284.643,316.306,284.643z"/>
				<path style="opacity:0.3;enable-background:new    ;" d="M316.306,284.643h90.125c2.809,0,5.087,2.277,5.087,5.086l0,0
					c0,2.809-2.277,5.087-5.087,5.087h-90.125c-2.809,0-5.087-2.277-5.087-5.087l0,0
					C311.219,286.92,313.496,284.643,316.306,284.643z"/>
				<path style="fill:#407BFF;" d="M345.441,285.554c2.302,0,4.176,1.873,4.176,4.176c0,2.303-1.873,4.176-4.176,4.176h-29.135
					c-2.303,0-4.176-1.873-4.176-4.176c0-2.302,1.873-4.176,4.176-4.176H345.441z"/>
			</g>
			<g>
				<path style="fill:#407BFF;" d="M337.343,133.218c-0.874,0-1.615-0.304-2.223-0.913c-0.608-0.608-0.913-1.346-0.913-2.213V119.93
					h1.94v10.141c0,0.315,0.112,0.582,0.336,0.802c0.224,0.22,0.493,0.331,0.808,0.331c0.315,0,0.582-0.11,0.802-0.331
					c0.22-0.22,0.33-0.487,0.33-0.802V119.93h2.066v10.162c0,0.881-0.308,1.622-0.923,2.224
					C338.951,132.917,338.21,133.218,337.343,133.218z"/>
				<path style="fill:#407BFF;" d="M345.375,119.93c0.965,0,1.734,0.304,2.308,0.913c0.531,0.581,0.797,1.321,0.797,2.223v1.909
					c0,0.867-0.303,1.608-0.907,2.223c-0.605,0.616-1.337,0.923-2.197,0.923h-1.143v4.95h-1.982V119.93H345.375z M346.56,123.098
					c0-0.343-0.103-0.619-0.309-0.829c-0.207-0.21-0.481-0.314-0.823-0.314h-1.196v4.205h1.196c0.315,0,0.582-0.112,0.802-0.336
					c0.22-0.224,0.33-0.493,0.33-0.808V123.098z"/>
				<path style="fill:#407BFF;" d="M352.989,133.239c-0.874,0-1.617-0.308-2.228-0.923c-0.612-0.615-0.918-1.353-0.918-2.213v-7.173
					c0-0.874,0.308-1.617,0.923-2.229c0.615-0.612,1.357-0.918,2.223-0.918c0.874,0,1.615,0.308,2.224,0.923
					c0.608,0.615,0.912,1.356,0.912,2.223v1.499h-2.055v-1.541c0-0.315-0.112-0.584-0.336-0.808
					c-0.224-0.224-0.493-0.336-0.807-0.336c-0.315,0-0.583,0.112-0.803,0.336c-0.22,0.224-0.33,0.493-0.33,0.808v7.194
					c0,0.314,0.11,0.582,0.33,0.802c0.22,0.22,0.488,0.33,0.803,0.33c0.314,0,0.583-0.109,0.807-0.329
					c0.224-0.22,0.336-0.486,0.336-0.8v-2.583h-1.102v-1.992h3.157v4.593c0,0.874-0.308,1.615-0.923,2.223
					C354.586,132.934,353.849,133.239,352.989,133.239z"/>
				<path style="fill:#407BFF;" d="M360.969,119.93c1.105,0,1.916,0.304,2.433,0.913c0.455,0.531,0.682,1.272,0.682,2.223v1.909
					c0,0.93-0.353,1.716-1.059,2.36l1.468,5.736h-2.144l-1.202-4.95c-0.056,0-0.116,0-0.179,0h-1.143v4.95h-1.982V119.93H360.969z
					 M362.154,123.098c0-0.762-0.377-1.143-1.132-1.143h-1.196v4.205h1.196c0.314,0,0.582-0.112,0.802-0.336
					c0.22-0.224,0.33-0.493,0.33-0.808V123.098z"/>
				<path style="fill:#407BFF;" d="M368.632,130.05l-0.481,3.02h-2.064l2.234-13.141h2.727l2.202,13.141h-2.084l-0.464-3.02H368.632
					z M369.673,122.94l-0.734,5.181h1.468L369.673,122.94z"/>
				<path style="fill:#407BFF;" d="M381.147,129.925c0,0.867-0.304,1.608-0.913,2.223c-0.608,0.615-1.342,0.923-2.202,0.923h-3.115
					V119.92h3.115c0.867,0,1.603,0.308,2.208,0.923c0.604,0.615,0.907,1.353,0.907,2.213V129.925z M376.899,131.11h1.196
					c0.315,0,0.58-0.114,0.797-0.341c0.217-0.227,0.325-0.495,0.325-0.802v-6.88c0-0.314-0.11-0.583-0.331-0.808
					c-0.22-0.224-0.484-0.335-0.792-0.335h-1.196V131.11z"/>
				<path style="fill:#407BFF;" d="M382.887,133.071V119.92h5.642v1.993h-3.66v3.586h2.674v1.993h-2.674v3.586h3.66v1.993H382.887z"
					/>
			</g>
			<g style="opacity:0.1;enable-background:new    ;">
				<path style="fill:#FFFFFF;" d="M354.245,72.373l-40.908,153.23v0.009l-0.455,1.722v0.009l-0.738,2.76v0.009l-0.465,1.722
					l-21.36,80.013V215.01l40.025-149.924h1.302c1.075,0,2.049,0.701,2.451,1.713l1.576,3.88c0.401,1.002,1.375,1.694,2.45,1.694
					H354.245z"/>
				<polygon style="fill:#FFFFFF;" points="432.418,150.628 432.418,247.465 406.904,343.036 406.284,345.358 402.076,361.126 
					376.225,361.126 380.433,345.368 381.107,342.835 384.487,330.174 385.161,327.642 386.518,322.577 387.192,320.045 
					388.54,314.98 389.214,312.448 410.483,232.79 410.483,232.781 411.467,229.101 411.467,229.092 				"/>
				<path style="fill:#FFFFFF;" d="M368.255,72.373l-40.653,152.274l-0.246,0.911l-2.223,8.344l-0.246,0.911l-33.43,125.239
					c-0.71-0.692-1.139-1.676-1.139-2.787v-14.729l28.757-107.722l0.246-0.911l2.223-8.344l0.246-0.911l40.653-152.274H368.255z"/>
			</g>
			<path style="fill:#407BFF;enable-background:new    ;" d="M405.25,206.317c0,21.15-14.97,38.81-34.89,42.96
				c-2.9,0.6-5.91,0.92-8.99,0.92c-3.08,0-6.09-0.32-8.99-0.92c-19.93-4.15-34.9-21.81-34.9-42.96c0-24.24,19.65-43.89,43.89-43.89
				C385.6,162.427,405.25,182.077,405.25,206.317z"/>
			<path style="opacity:0.6;fill:#FFFFFF;" d="M383.9,202.667h-11.89c-0.91,0-1.65,0.74-1.65,1.65v44.96
				c-2.9,0.6-5.91,0.92-8.99,0.92c-3.08,0-6.09-0.32-8.99-0.92v-44.96c0-0.91-0.74-1.65-1.66-1.65h-11.89
				c-1.47,0-2.21-1.79-1.17-2.83l22.54-22.53c0.64-0.65,1.69-0.65,2.34,0l22.53,22.53C386.12,200.877,385.38,202.667,383.9,202.667z
				"/>
		</g>
	</g>
</g>
</svg>
