<svg height="40" width="100%">
    <path d="M0 20 L10 0 L20 20 L30 0 L40 20 L50 0 L60 20 L70 0 L80 20 L90 0 L100 20 L110 0 L120 20 L130 0 L140 20 L150 0 L160 20 L170 0 L180 20 L190 0 L200 20 L210 0 L220 20 L230 0 L240 20 L250 0 L260 20 L270 0 L280 20 L290 0 L300 20 L310 0 L320 20 L330 0 L340 20 L350 0 L360 20 L370 0 L380 20 L390 0 L400 20 L410 0 L420 20 L430 0 L440 20 L450 0 L460 20 L470 0 L480 20 L490 0 L500 20 L510 0 L520 20 L530 0 L540 20 L550 0 L560 20 L570 0 L580 20 L590 0 L600 20 L610 0 L620 20 L630 0 L640 20 L650 0 L660 20 L670 0 L680 20 L690 0 L700 20 L710 0 L720 20 L730 0 L740 20 L750 0 L760 20 L770 0 L780 20 L790 0 L800 20 L810 0 L820 20 L830 0 L840 20 L850 0 L860 20 L870 0 L880 20 L890 0 L900 20 L910 0 L920 20 L930 0 L940 20 L950 0 L960 20 L970 0 L980 20 L990 0 L1000 20 L1010 0 L1020 20 L1030 0 L1040 20 L1050 0 L1060 20 L1070 0 L1080 20 L1090 0 L1100 20 L1110 0 L1120 20 L1130 0 L1140 20 L1150 0 L1160 20 L1170 0 L1180 20 L1190 0 L1200 20 L1210 0 L1220 20 L1230 0 L1240 20 L1250 0 L1260 20 L1270 0 L1280 20 L1290 0 L1300 20 L1310 0 L1320 20 L1330 0 L1340 20 L1350 0 L1360 20 L1370 0 L1380 20 L1390 0 L1400 20 L1410 0 L1420 20 L1430 0 L1440 20 L1450 0 L1460 20 L1470 0 L1480 20 L1490 0 L1500 20 L1510 0 L1520 20 L1530 0 L1540 20 L1550 0 L1560 20 L1570 0 L1580 20 L1590 0 L1600 20 L1610 0 L1620 20 L1630 0 L1640 20 L1650 0 L1660 20 L1670 0 L1680 20 L1690 0 L1700 20 L1710 0 L1720 20 L1730 0 L1740 20 L1750 0 L1760 20 L1770 0 L1780 20 L1790 0 L1800 20 L1810 0 L1820 20 L1830 0 L1840 20 L1850 0 L1860 20 L1870 0 L1880 20 L1890 0 L1900 20 L1910 0 L1920 20 L1930 0 L1940 20 L1950 0 L1960 20 L1970 0 L1980 20 L1990 0 L2000 20 L2010 0 L2020 20 L2030 0 L2040 20 L2050 0 L2060 20 L2070 0 L2080 20 L2090 0 L2100 20 L2110 0 L2120 20 L2130 0 L2140 20 L2150 0 L2160 20 L2170 0 L2180 20 L2190 0 L2200 20 L2210 0 L2220 20 L2230 0 L2240 20 L2250 0 L2260 20 L2270 0 L2280 20 L2290 0 L2300 20 L2310 0 L2320 20 L2330 0 L2340 20 L2350 0 L2360 20 L2370 0 L2380 20 L2390 0 L2400 20 L2410 0 L2420 20 L2430 0 L2440 20 L2450 0 L2460 20 L2470 0 L2480 20 L2490 0 L2500 20 L2510 0 L2520 20 L2530 0 L2540 20 L2550 0 L2560 20 L2570 0 L2580 20 L2590 0 L2600 20 L2610 0 L2620 20 L2630 0 L2640 20 L2650 0 L2660 20 L2670 0 L2680 20 L2690 0 L2700 20 L2710 0 L2720 20 L2730 0 L2740 20 L2750 0 L2760 20 L2770 0 L2780 20 L2790 0 L2800 20 L2810 0 L2820 20 L2830 0 L2840 20 L2850 0 L2860 20 L2870 0 L2880 20 L2890 0 L2900 20 L2910 0 L2920 20 L2930 0 L2940 20 L2950 0 L2960 20 L2970 0 L2980 20 L2990 0 L3000 20 L3010 0 L3020 20 L3030 0 L3040 20 L3050 0 L3060 20 L3070 0 L3080 20 L3090 0 L3100 20 L3110 0 L3120 20 L3130 0 L3140 20 L3150 0 L3160 20 L3170 0 L3180 20 L3190 0 L3200 20 Z" fill="#F1F4F9"/>
</svg>
